<?xml version="1.0" encoding="UTF-8"?>
<!--
  - 2023.12.11.18:40:15
  -->

<svg xmlns="http://www.w3.org/2000/svg" height="512pt" viewBox="-77 0 512 512" width="512pt">
    <path d="m9.78125 10.007812h338.085938v54.453126h-338.085938zm0 0" fill="#787878"></path>
    <path d="m194.972656 110.355469h-112.402344c-14.582031 0-26.402343-11.820313-26.402343-26.402344v-19.492187h245.3125v19.492187c0 14.582031-11.824219 26.402344-26.40625 26.402344zm0 0"
          fill="#fc6c49"></path>
    <path d="m95.921875 502.007812v-37.089843c0-4.78125-1.828125-9.378907-5.109375-12.855469l-31.679688-33.570312c-6.035156-6.394532-9.398437-14.855469-9.398437-23.648438v-69.808594c0-10.414062 4.710937-20.265625 12.808594-26.808594l33.378906-26.953124v79.742187-168.46875c0-16.09375 13.046875-29.140625 29.140625-29.140625s29.144531 13.046875 29.144531 29.140625v120.054687-9.617187c0-15.261719 12.371094-27.636719 27.632813-27.636719 15.261718 0 27.632812 12.375 27.632812 27.636719v26.894531-4.988281c0-14.203125 11.515625-25.714844 25.714844-25.714844 14.203125 0 25.714844 11.511719 25.714844 25.714844v19.910156c0-12.015625 9.742187-21.753906 21.753906-21.753906h3.5c12.015625 0 21.753906 9.738281 21.753906 21.753906v83.660157c0 4.988281-1.988281 9.769531-5.523437 13.285156l-20.351563 20.234375c-3.539062 3.515625-5.527344 8.296875-5.527344 13.285156v36.742187zm0 0"
          fill="#e8c499"></path>
    <path d="m348.085938 0h-338.085938c-5.523438 0-10 4.476562-10 10v54.453125c0 5.519531 4.476562 10 10 10h36.386719v9.488281c0 20.074219 16.332031 36.40625 36.402343 36.40625h112.402344c5.523438 0 10-4.480468 10-10 0-5.523437-4.476562-10-10-10h-112.402344c-9.042968 0-16.402343-7.359375-16.402343-16.40625v-9.488281h225.3125v9.488281c0 9.046875-7.359375 16.40625-16.40625 16.40625-5.523438 0-10 4.476563-10 10 0 5.519532 4.476562 10 10 10 20.074219 0 36.40625-16.332031 36.40625-36.40625v-9.488281h36.386719c5.523437 0 10-4.480469 10-10v-54.453125c0-5.523438-4.480469-10-10-10zm-10 54.453125h-318.085938v-34.453125h318.085938zm0 0"></path>
    <path d="m286.375 303.039062h-3.5c-4.601562 0-8.976562.984376-12.925781 2.75-4.03125-15.304687-17.988281-26.621093-34.542969-26.621093-6.125 0-11.894531 1.550781-16.9375 4.277343-4.230469-16.152343-18.949219-28.105468-36.410156-28.105468-6.367188 0-12.371094 1.589844-17.632813 4.394531v-77.195313c0-21.582031-17.5625-39.140624-39.144531-39.140624-21.585938 0-39.144531 17.558593-39.144531 39.140624v83.945313l-29.660157 23.953125c-10.5 8.484375-16.523437 21.089844-16.523437 34.589844v69.808594c0 11.390624 4.304687 22.226562 12.125 30.511718l31.675781 33.566406c1.535156 1.628907 2.382813 3.757813 2.382813 5.996094v37.089844c0 5.523438 4.476562 10 10 10 5.523437 0 10-4.476562 10-10v-37.089844c0-7.359375-2.78125-14.363281-7.835938-19.722656l-31.679687-33.566406c-4.300782-4.558594-6.667969-10.519532-6.667969-16.785156v-69.808594c0-7.429688 3.3125-14.363282 9.089844-19.03125l17.09375-13.804688v58.816406c0 5.519532 4.476562 10 10 10 5.523437 0 10-4.480468 10-10v-168.46875c0-10.554687 8.585937-19.140624 19.140625-19.140624 10.558594 0 19.144531 8.585937 19.144531 19.140624v120.054688c0 5.523438 4.476563 10 10 10s10-4.476562 10-10v-9.617188c0-9.722656 7.910156-17.632812 17.632813-17.632812 9.726562 0 17.636718 7.910156 17.636718 17.632812v26.894532c0 5.523437 4.476563 10 10 10 5.523438 0 10-4.476563 10-10v-4.988282c0-8.664062 7.046875-15.714843 15.714844-15.714843 8.664062 0 15.714844 7.050781 15.714844 15.714843v19.910157c0 5.523437 4.476562 10 10 10 5.523437 0 10-4.476563 10-10 0-6.480469 5.273437-11.753907 11.753906-11.753907h3.5c6.480469 0 11.753906 5.273438 11.753906 11.753907v83.660156c0 2.3125-.9375 4.566406-2.578125 6.195313l-20.351562 20.230468c-5.386719 5.355469-8.476563 12.78125-8.476563 20.378906v36.742188c0 5.523438 4.476563 10 10 10 5.523438 0 10-4.476562 10-10v-36.742188c0-2.308593.941406-4.566406 2.578125-6.191406l20.351563-20.230468c5.386718-5.355469 8.476562-12.78125 8.476562-20.378907v-83.664062c0-17.507813-14.242187-31.753907-31.753906-31.753907zm0 0"></path>
    <path d="m227.070312 115.898438c2.347657 3.523437 6.8125 5.199218 10.898438 4.101562 4.097656-1.105469 7.097656-4.765625 7.390625-9 .28125-4.070312-2.082031-8.019531-5.785156-9.71875-3.65625-1.683594-8.085938-1.003906-11.027344 1.765625-3.519531 3.316406-4.15625 8.828125-1.476563 12.851563zm0 0"></path>
    <path d="m105.371094 384.699219c-1.636719-3.933594-5.691406-6.453125-9.949219-6.148438-4.207031.304688-7.839844 3.316407-8.941406 7.386719-1.074219 3.964844.488281 8.335938 3.839843 10.71875 3.457032 2.457031 8.183594 2.457031 11.644532 0 3.753906-2.667969 5.144531-7.71875 3.40625-11.957031zm0 0"></path>
</svg>