<?xml version="1.0" encoding="UTF-8"?>
<!--
  - 2023.12.11.18:40:15
  -->

<svg xmlns="http://www.w3.org/2000/svg" id="Capa_1" height="512" viewBox="0 0 511.967 511.967" width="512">
    <path d="m312.665 302.462h-.02-112.54-.02s-71.703 46.033-127.175-.484c19.52 125.312 131.429 183.026 170.226 199.457 8.469 3.586 18.009 3.586 26.477 0 38.798-16.43 150.707-74.145 170.226-199.457-55.472 46.518-127.174.484-127.174.484z"
          fill="#b4dbff"></path>
    <path d="m134.934 322.702c-20.049.759-42.084-4.004-62.023-20.724 14.183 91.058 77.146 146.415 125.397 176.183-27.844-40.531-49.862-93.995-63.374-155.459z"
          fill="#8bcaff"></path>
    <path d="m443.662 62.7c-.773-7.881-6.063-14.57-13.543-17.167-31.13-10.81-116.236-38.408-173.744-38.408s-142.614 27.598-173.744 38.408c-7.48 2.597-12.77 9.286-13.543 17.167-2.499 25.463-6.333 90.94 1.363 216.64.506 8.261 1.418 16.247 2.668 23.983 55.579 47.625 126.967 1.139 126.967 1.139h.02 112.54.02s71.388 46.486 126.967-1.138c1.25-7.736 2.163-15.722 2.668-23.983 7.695-125.7 3.86-191.178 1.361-216.641z"
          fill="#dfebfa"></path>
    <path d="m119.978 180.673c0-54.201 6.186-105.744 17.327-152.378-23.06 6.546-42.797 13.114-54.674 17.239-7.48 2.597-12.77 9.286-13.543 17.167-2.499 25.463-6.333 90.94 1.363 216.64.506 8.261 1.418 16.247 2.668 23.983 20.061 17.19 42.181 22.116 62.261 21.396-9.926-44.414-15.402-93.054-15.402-144.047z"
          fill="#b4dbff"></path>
    <path d="m383.885 186.324c-15.719-2.476-47.026-4.448-70.168 13.043-1.339 1.013-2.119 2.596-2.192 4.273-.25 5.702 1.167 18.831 17.849 26.915 16.556 8.022 45.141-20.552 57.903-34.721 3.054-3.393 1.118-8.8-3.392-9.51z"
          fill="#8bcaff"></path>
    <path d="m424.632 158.293c-5.163-8.227-29.611-37.242-69.63-37.242-37.851 0-61.773 21.845-68.622 31.082-1.26 1.699-1.3 4.008-.123 5.766l13.764 20.542c1.849 2.76 5.813 3.006 7.973.482 12.514-14.624 52.523-52.12 106.873-11.552 5.939 4.432 13.728-2.765 9.765-9.078z"
          fill="#695d67"></path>
    <path d="m157.749 121.051c-40.019 0-64.466 29.014-69.631 37.242-3.962 6.313 3.826 13.51 9.765 9.077 54.35-40.568 94.359-3.071 106.873 11.552 2.161 2.525 6.124 2.279 7.973-.482l13.764-20.542c1.177-1.757 1.137-4.066-.123-5.766-6.849-9.237-30.77-31.081-68.621-31.081z"
          fill="#695d67"></path>
    <path d="m295.38 167.229c6.85-9.237 30.771-31.082 68.623-31.082 29.418 0 50.408 15.673 61.522 27.248.39-1.598.187-3.382-.893-5.102-5.163-8.227-29.611-37.242-69.63-37.242-37.851 0-61.773 21.845-68.623 31.082-1.26 1.699-1.3 4.009-.123 5.765l8.15 12.164c.027-1 .349-1.991.974-2.833z"
          fill="#554e56"></path>
    <path d="m108.079 160.552c11.672-11.137 31.604-24.406 58.669-24.406 27.892 0 48.208 11.859 59.715 21.797l.03-.045c1.177-1.757 1.137-4.066-.123-5.765-6.85-9.238-30.771-31.082-68.623-31.082-40.018 0-64.466 29.015-69.63 37.242-3.962 6.313 3.826 13.51 9.765 9.077 3.459-2.581 6.858-4.843 10.197-6.818z"
          fill="#554e56"></path>
    <path d="m128.866 186.324c15.719-2.476 47.026-4.448 70.168 13.043 1.339 1.013 2.119 2.596 2.192 4.273.25 5.702-1.167 18.831-17.849 26.915-16.556 8.022-45.141-20.552-57.903-34.721-3.055-3.393-1.119-8.8 3.392-9.51z"
          fill="#8bcaff"></path>
    <path d="m281.465 412.384h-50.179c-8.156 0-14.046 7.802-11.813 15.646l17.497 61.444c2.469 8.67 10.39 14.65 19.405 14.65 9.014 0 16.936-5.98 19.404-14.65l17.497-61.444c2.235-7.844-3.656-15.646-11.811-15.646z"
          fill="#695d67"></path>
    <path d="m270.176 489.474-17.497-61.444c-2.233-7.844 3.657-15.646 11.812-15.646h-33.206c-8.156 0-14.046 7.802-11.813 15.646l17.497 61.444c2.469 8.67 10.39 14.65 19.405 14.65 6.764 0 12.911-3.367 16.603-8.71-1.227-1.778-2.184-3.775-2.801-5.94z"
          fill="#554e56"></path>
    <path d="m369.139 347.125c-6.803 2.709-17.121 6.479-28.501 9.438-17.645 4.587-36.415 1.369-51.649-8.647-4.214-2.772-9.322-3.845-14.296-3.004l-13.051 2.205c-.03.005-.061.01-.091.016-3.436.632-6.916.632-10.351 0-.03-.006-.061-.011-.091-.016l-13.051-2.205c-4.941-.835-10.032.191-14.214 2.95-15.248 10.058-34.054 13.296-51.73 8.701-11.38-2.959-21.698-6.728-28.501-9.438-3.2-1.275-6.275 2.156-4.623 5.179 11.84 21.658 42.225 43.044 70.045 43.044 22.511 0 36.987-11.384 43.441-17.915 1.032-1.045 2.431-1.633 3.899-1.633s2.867.588 3.899 1.633c6.454 6.531 20.93 17.914 43.441 17.914 27.82 0 58.205-21.385 70.045-43.044 1.653-3.022-1.421-6.453-4.621-5.178z"
          fill="#695d67"></path>
    <path d="m225.368 383.77c-21.699 0-44.959-13.012-59.762-29.015-8.756-2.58-16.516-5.448-21.994-7.63-3.2-1.275-6.275 2.156-4.623 5.179 11.84 21.658 42.225 43.044 70.045 43.044 22.204 0 36.585-11.073 43.167-17.642-7.099 3.444-16.04 6.064-26.833 6.064z"
          fill="#554e56"></path>
    <path d="m291.078 282.853c-4.131-1.458-7.049-5.166-7.578-9.516l-5.975-64.353c-1.299-10.691-10.374-18.73-21.144-18.73s-19.844 8.039-21.144 18.73l-5.974 64.353c-.528 4.35-3.447 8.058-7.578 9.516-30.223 10.667-26.909 34.995-1.337 40.288 7.818 1.618 12.495 4.006 25.301 9.65 6.839 3.014 14.63 3.014 21.469 0 12.771-5.628 17.466-8.031 25.284-9.646 25.616-5.293 28.843-29.646-1.324-40.292z"
          fill="#8bcaff"></path>
    <g fill="#60b8fe">
        <path d="m344.724 203.64c.074-1.677.853-3.26 2.192-4.273 10.373-7.84 22.384-11.763 33.899-13.49-16.467-2.199-45.378-2.927-67.099 13.49-1.339 1.012-2.118 2.596-2.192 4.273-.25 5.702 1.167 18.831 17.849 26.915 6.896 3.341 15.878.324 24.935-5.347-8.908-7.684-9.784-17.004-9.584-21.568z"></path>
        <path d="m158.674 195.834c-3.055-3.393-1.119-8.8 3.391-9.51.966-.152 1.992-.302 3.07-.446-14.175-2.126-27.596-.92-36.27.446-4.51.711-6.447 6.118-3.391 9.51 12.761 14.169 41.347 42.743 57.903 34.721 3.33-1.614 6.043-3.43 8.265-5.347-12.688-7.944-25.522-21.106-32.968-29.374z"></path>
        <path d="m278.847 327.484c-12.806-5.643-17.483-8.032-25.301-9.65-25.571-5.293-28.886-29.621 1.337-40.288 4.131-1.458 7.05-5.166 7.578-9.516l5.975-64.353c.336-2.768 1.203-5.353 2.477-7.672-3.826-3.575-8.945-5.751-14.532-5.751-10.77 0-19.844 8.039-21.144 18.73l-5.974 64.353c-.528 4.35-3.447 8.058-7.578 9.516-30.223 10.667-26.909 34.995-1.337 40.288 7.818 1.618 12.495 4.006 25.301 9.65 6.839 3.014 14.63 3.014 21.469 0 4.967-2.189 8.706-3.885 11.888-5.242-.054-.024-.107-.043-.159-.065z"></path>
    </g>
    <path d="m384.673 179.29c-17.526-2.76-50.689-4.554-75.859 14.469-3.104 2.348-4.986 5.965-5.162 9.927-.301 6.859 1.248 23.902 22.072 33.993 3 1.453 6.188 2.115 9.509 2.115 18.29-.001 40.585-20.076 57.237-38.566 3.252-3.611 4.265-8.697 2.642-13.273-1.626-4.587-5.626-7.907-10.439-8.665zm-52.408 44.89c-11.688-5.664-13.648-14.038-13.646-19.02 19.264-14.045 44.928-13.566 60.473-11.522-23.426 25.383-40.322 33.695-46.827 30.542z"></path>
    <path d="m218.581 182.99 13.763-20.541c2.941-4.388 2.81-10.179-.328-14.409-9.396-12.671-35.69-34.115-74.646-34.115-49.825 0-75.728 40.347-75.983 40.755-8.369 13.338 8.057 28.442 20.604 19.075 48.346-36.084 83.722-4.734 96.688 10.419 5.392 6.299 15.287 5.702 19.902-1.184zm-72.468-41.108c-14.73 0-31.412 4.661-49.563 17.304 8.44-10.834 29.964-30.261 60.819-30.261 31.549 0 53.335 16.706 61.515 26.665l-10.977 16.383c-9.71-10.605-31.673-30.091-61.794-30.091z"></path>
    <path d="m203.177 193.759c-25.166-19.023-58.329-17.23-75.857-14.469-4.813.758-8.813 4.078-10.438 8.663-1.623 4.576-.611 9.662 2.641 13.275 16.655 18.492 38.949 38.567 57.238 38.566 13.331-.002 32.524-14.662 31.58-36.106-.174-3.962-2.057-7.582-5.164-9.929zm-23.45 30.421c-6.497 3.15-23.397-5.157-46.826-30.542 15.538-2.042 41.207-2.521 60.472 11.522.002 4.985-1.958 13.357-13.646 19.02z"></path>
    <path d="m430.606 154.68c-6.49-10.339-26.598-31.696-56.246-38.518-4.029-.93-8.062 1.59-8.99 5.627-.93 4.037 1.59 8.062 5.627 8.991 22.183 5.104 37.724 19.939 44.381 28.36-55.228-38.424-96.838-2.954-111.292 12.833l-10.974-16.378c6.317-7.608 22.508-21.021 45.908-25.276 4.075-.741 6.778-4.645 6.037-8.72-.74-4.076-4.642-6.779-8.721-6.038-29.446 5.353-49.282 22.934-56.361 32.48-3.136 4.231-3.268 10.021-.327 14.406l13.763 20.541c4.615 6.89 14.513 7.482 19.903 1.185 12.967-15.153 48.348-46.501 96.688-10.418 12.574 9.385 28.963-5.759 20.604-19.075z"></path>
    <path d="m445.093 216.204c4.184.143 7.61-3.102 7.751-7.241 2.748-80.968-.134-126.616-2.097-146.621-1.054-10.742-8.334-19.974-18.547-23.52-33.615-11.672-118.077-38.822-176.204-38.822-58.13 0-142.59 27.15-176.204 38.823-10.213 3.546-17.493 12.778-18.547 23.52-2.528 25.744-3.244 57.313-3.253 83.23-.012 34.175 1.152 78.398 4.593 134.601 3.821 62.405 29.545 117.033 76.458 162.367 37.653 36.386 79.31 57.079 100.789 66.175 10.153 4.3 22.006 4.37 32.327 0 21.479-9.096 63.136-29.789 100.789-66.175 46.913-45.333 72.637-99.961 76.458-162.366.744-12.149 1.412-24.296 1.983-36.103.2-4.137-2.991-7.654-7.129-7.854-4.139-.19-7.653 2.991-7.854 7.128-1.12 23.139-1.674 39.906-4.146 56.411-33.14 26.688-77.405 20.736-112.955.537-2.013-9.554-10.314-17.839-23.358-23.095-2.518-1.017-4.952-1.335-5.372-4.313l-5.963-64.221c-.007-.07-.014-.141-.022-.211-1.754-14.438-14.045-25.326-28.589-25.326s-26.834 10.887-28.59 25.325c-.009.071-.016.141-.022.212l-5.963 64.221c-.413 2.938-2.806 3.275-5.38 4.317-13.047 5.258-21.349 13.542-23.362 23.09-35.674 20.276-79.855 26.119-112.954-.537-4.193-27.87-6.747-117.221-6.745-153.804.002-25.595.689-56.687 3.187-82.145.484-4.937 3.837-9.181 8.539-10.814 32.898-11.424 115.439-37.993 171.285-37.993 55.844 0 138.387 26.569 171.284 37.993 4.702 1.633 8.055 5.878 8.539 10.814 1.926 19.636 4.752 64.54 2.032 144.647-.139 4.14 3.102 7.609 7.242 7.75zm-176.905 271.591c-3.483 12.226-20.891 12.26-24.384 0l-17.497-61.444c-.873-3.067 1.425-6.092 4.6-6.092h50.179c3.178 0 5.472 3.029 4.6 6.092zm-44.386-197.495c6.845-2.417 11.645-8.427 12.526-15.684.009-.07.016-.141.022-.211l5.964-64.236c.772-6.012 5.362-10.721 11.144-11.805 7.825-1.466 15.226 3.983 16.23 11.805l5.964 64.235c.007.071.014.142.022.212.882 7.255 5.71 13.275 12.527 15.683 21.61 7.624 21.704 21.865 2.301 25.874-7.481 1.545-12.551 3.801-21.755 7.896-10.569 4.702-12.576 5.745-25.446.021-9.535-4.24-14.321-6.368-21.813-7.918-19.682-4.075-19.041-18.334 2.314-25.872zm51.762 62.381c3.115-.526 6.285.14 8.926 1.875 17.059 11.217 38.073 14.729 57.656 9.639 6.473-1.683 12.61-3.62 17.969-5.478-24.552 29.24-67.448 41.579-94.885 13.818-5.09-5.152-13.377-5.153-18.467 0-5.79 5.858-18.44 15.687-38.107 15.687-20.893 0-43.718-13.951-56.777-29.505 5.358 1.858 11.495 3.795 17.969 5.478 19.623 5.101 40.67 1.567 57.747-9.699 2.573-1.698 5.711-2.344 8.835-1.815l13.034 2.202c4.334.798 8.73.798 13.049.003zm-80.367-36.679c4.135 7.202 12.34 12.6 23.251 14.858 5.825 1.206 9.572 2.852 18.37 6.763-6.18-.566-12.317.943-17.484 4.352-13.538 8.93-30.199 11.737-45.713 7.703-11.062-2.876-21.122-6.562-27.612-9.146-9.731-3.876-18.995 6.565-13.979 15.744 12.614 23.077 44.725 46.947 76.626 46.947 23.607 0 39.358-11.148 47.341-18.735 7.98 7.586 23.73 18.735 47.341 18.735 31.899 0 64.011-23.87 76.626-46.947 5.017-9.179-4.25-19.619-13.98-15.743-6.491 2.585-16.551 6.27-27.611 9.146-15.484 4.026-32.119 1.236-45.641-7.654-5.218-3.432-11.377-4.961-17.544-4.401 8.543-3.8 12.533-5.557 18.352-6.759 10.918-2.255 19.126-7.654 23.26-14.86 35.258 18.225 76.729 23.895 111.324 4.564-23.32 93.583-101.317 144.585-144.009 166.069l15.997-56.177c3.6-12.64-5.875-25.201-19.025-25.201h-50.179c-13.141 0-22.627 12.553-19.025 25.2l15.997 56.177c-42.69-21.482-120.679-72.48-144.005-166.052 34.7 19.386 76.261 13.542 111.322-4.583z"></path>
</svg>