<?xml version="1.0" encoding="UTF-8"?>
<!--
  - 2023.12.11.18:40:15
  -->

<svg xmlns="http://www.w3.org/2000/svg" id="Layer_1" data-name="Layer 1" viewBox="0 0 47 51.99">
    <defs>
        <style>
            .cls-1{fill:#fee95d;}.cls-2{fill:#a4fef1;}.cls-3{fill:#e54696;}.cls-4{fill:#d8fc7e;}.cls-5{fill:#fcad42;}.cls-6{fill:#b6e6fa;}.cls-7{fill:#7f34a9;}.cls-8{fill:#54e072;}.cls-9{fill:#fff;}
        </style>
    </defs>
    <title>api-icon</title>
    <path class="cls-1"
          d="M43.1,22.93a16.69,16.69,0,0,0-2.4-5.8l1.88-2.64-4-4.05-2.64,1.89a16.74,16.74,0,0,0-5.8-2.41l-.53-3.19H23.83L23.3,9.92a16.91,16.91,0,0,0-5.8,2.41l-2.63-1.89-4.06,4.05,1.89,2.64a16.91,16.91,0,0,0-2.41,5.8l-3.19.53v5.73l3.19.53a16.74,16.74,0,0,0,2.41,5.8l-1.89,2.64,4.06,4.05,2.63-1.89a16.52,16.52,0,0,0,5.8,2.41l.53,3.2h5.73l.53-3.2a16.37,16.37,0,0,0,5.8-2.41l2.64,1.89,4-4.05L40.7,35.52a16.54,16.54,0,0,0,2.4-5.8l3.2-.53V23.46Z"
          transform="translate(-3.52 -0.33)"></path>
    <circle class="cls-2" cx="23.18" cy="25.99" r="10.76"></circle>
    <circle class="cls-3" cx="43.35" cy="3.65" r="2.89"></circle>
    <circle class="cls-4" cx="3.77" cy="3.65" r="2.89"></circle>
    <circle class="cls-4" cx="42.15" cy="48.34" r="2.89"></circle>
    <circle class="cls-3" cx="3.65" cy="48.34" r="2.89"></circle>
    <path class="cls-5" d="M37.93,12.33l1.45-1-.85-.85-1.71,1.22c.38.21.75.43,1.11.67Z"
          transform="translate(-3.52 -0.33)"></path>
    <path class="cls-5" d="M19.53,12.33a16.91,16.91,0,0,1,5.8-2.41l.53-3.19h-2L23.3,9.92a16.89,16.89,0,0,0-4.7,1.74Z"
          transform="translate(-3.52 -0.33)"></path>
    <path class="cls-5" d="M37.93,40.32c-.36.24-.73.46-1.11.67l1.71,1.22.85-.85Z"
          transform="translate(-3.52 -0.33)"></path>
    <path class="cls-5"
          d="M12.84,38.16l1.89-2.64a16.74,16.74,0,0,1-2.41-5.8l-3.19-.53V23.46l3.19-.53a16.83,16.83,0,0,1,2.41-5.8l-1.89-2.64,3.21-3.2-1.18-.85-4.06,4.05,1.89,2.64a16.83,16.83,0,0,0-2.41,5.8l-3.19.53v5.73l3.19.53a16.74,16.74,0,0,0,2.41,5.8l-1.89,2.64,4.06,4.05,1.18-.85Z"
          transform="translate(-3.52 -0.33)"></path>
    <path class="cls-5"
          d="M19.53,40.32,18.6,41a16.58,16.58,0,0,0,4.7,1.74l.53,3.2h2l-.53-3.2A16.52,16.52,0,0,1,19.53,40.32Z"
          transform="translate(-3.52 -0.33)"></path>
    <path class="cls-6" d="M18,26.33a10.75,10.75,0,0,1,9.74-10.72,10.76,10.76,0,1,0,0,21.43A10.75,10.75,0,0,1,18,26.33Z"
          transform="translate(-3.52 -0.33)"></path>
    <path class="cls-7" d="M47.88,1.28a2.89,2.89,0,1,0,0,5.41A2.89,2.89,0,0,1,47.88,1.28Z"
          transform="translate(-3.52 -0.33)"></path>
    <path class="cls-8" d="M8.3,1.28a2.89,2.89,0,1,0,0,5.41A2.89,2.89,0,0,1,8.3,1.28Z"
          transform="translate(-3.52 -0.33)"></path>
    <path class="cls-8" d="M46.69,46a2.89,2.89,0,1,0,0,5.41,2.89,2.89,0,0,1,0-5.41Z"
          transform="translate(-3.52 -0.33)"></path>
    <path class="cls-7" d="M8.18,46a2.89,2.89,0,1,0,0,5.41,2.89,2.89,0,0,1,0-5.41Z"
          transform="translate(-3.52 -0.33)"></path>
    <path d="M38.61,43.21l5-5-2-2.74a17.34,17.34,0,0,0,2.12-5.11l3.33-.55v-7l-3.33-.55a17.45,17.45,0,0,0-2.12-5.11l2-2.74-5-5-2.74,2a17.76,17.76,0,0,0-1.72-.93l-.65,1.38a17.54,17.54,0,0,1,2.41,1.39l2.54-1.81,3.14,3.14-1.82,2.53a16,16,0,0,1,2.69,6.49l3.08.51v4.44l-3.08.5a16,16,0,0,1-2.69,6.49l1.82,2.54-3.14,3.14L35.91,39.4a16.09,16.09,0,0,1-6.48,2.69l-.51,3.07H24.48L24,42.09a16,16,0,0,1-6.49-2.69L15,41.22l-3.14-3.14,1.81-2.54a16.16,16.16,0,0,1-2.69-6.49l-3.07-.5V24.11l3.07-.51a16.2,16.2,0,0,1,2.69-6.49l-1.81-2.53L15,11.44l2.53,1.81A16.1,16.1,0,0,1,24,10.56l.51-3.07h4.44l.51,3.07a17.06,17.06,0,0,1,2.62.7l.51-1.44a18.58,18.58,0,0,0-1.8-.53L30.21,6h-7l-.55,3.32a17.23,17.23,0,0,0-5.11,2.12l-2.75-2-5,5,2,2.74a17.39,17.39,0,0,0-2.12,5.12l-3.32.54v7l3.32.55a17.34,17.34,0,0,0,2.12,5.11l-2,2.74,5,5,2.75-2a17.23,17.23,0,0,0,5.11,2.12l.55,3.33h7l.55-3.33a17.34,17.34,0,0,0,5.11-2.12Z"
          transform="translate(-3.52 -0.33)"></path>
    <path d="M26.7,37.85A11.53,11.53,0,1,0,18,33.92l1.14-1a10.14,10.14,0,1,1,1,1l-1,1.16a11.52,11.52,0,0,0,7.51,2.78Z"
          transform="translate(-3.52 -0.33)"></path>
    <path d="M24.7,30.28v-8H19.36v8h1.52V27.44h2.29v2.84Zm-3.82-4.36V23.84h2.29v2.08Z"
          transform="translate(-3.52 -0.33)"></path>
    <path d="M27.45,27.39h3.81V22.31H25.92v8h1.53V27.39Zm0-3.55h2.29v2H27.45Z"
          transform="translate(-3.52 -0.33)"></path>
    <path d="M32.52,22.37H34v7.91H32.52Z" transform="translate(-3.52 -0.33)"></path>
    <path d="M46.86.33a3.66,3.66,0,0,0-.76,7.23V18.72h-.82v1.52h2.34V7.56A3.65,3.65,0,0,0,46.86.33Zm0,5.78A2.13,2.13,0,1,1,49,4,2.13,2.13,0,0,1,46.86,6.11Z"
          transform="translate(-3.52 -0.33)"></path>
    <path d="M7.29,7.64a3.65,3.65,0,0,0,3.55-2.83h7.83v3.1h1.52V3.29H10.87A3.65,3.65,0,1,0,7.29,7.64Zm0-5.78A2.13,2.13,0,1,1,5.16,4,2.12,2.12,0,0,1,7.29,1.86Z"
          transform="translate(-3.52 -0.33)"></path>
    <path d="M45.67,45a3.66,3.66,0,0,0-3.6,3H34.29V44.91H32.77v4.67h9.36A3.65,3.65,0,1,0,45.67,45Zm0,5.78a2.13,2.13,0,1,1,2.13-2.13A2.13,2.13,0,0,1,45.67,50.8Z"
          transform="translate(-3.52 -0.33)"></path>
    <path d="M7.93,45.1V34.24h.31V32.72H6.41V45.1a3.65,3.65,0,1,0,1.52,0Zm-.76,5.7A2.13,2.13,0,1,1,9.3,48.67,2.13,2.13,0,0,1,7.17,50.8Z"
          transform="translate(-3.52 -0.33)"></path>
    <path class="cls-9"
          d="M39.75,26.33a13.07,13.07,0,0,0-1.44-6l1.35-.7a14.51,14.51,0,0,1,1.61,6.66Zm-2.17-7.2A14.33,14.33,0,0,0,36.72,18l1.17-1a15.41,15.41,0,0,1,1,1.29Zm-1.84-2.21c-.35-.33-.72-.64-1.1-.94l.93-1.2a12.26,12.26,0,0,1,1.22,1.05Z"
          transform="translate(-3.52 -0.33)"></path>
</svg>