<!--
  - 2023.12.11.18:40:15
  -->

<svg id="Layer_1" data-name="Layer 1" xmlns="http://www.w3.org/2000/svg" viewBox="0 0 168.16 50.82">
    <defs>
        <style>.cls-1{fill:#fff;}.cls-2{fill:#00a8e0;}</style>
    </defs>
    <path id="path5" class="cls-1"
          d="M161.12,45.19a.86.86,0,0,1-.92-.81h0V17.21H151a.87.87,0,0,1-.92-.83h0V12.6a.89.89,0,0,1,.82-.92h24.58a.9.9,0,0,1,.93.83h0v3.82a.89.89,0,0,1-.86.93h-9.27V44.32a.87.87,0,0,1-.82.92h-4.34M90.69,31.67,85.92,17.83,81,31.67ZM101.42,44.1a.76.76,0,0,1-.33,1,.69.69,0,0,1-.37.08H96.35a1.17,1.17,0,0,1-1.19-.88l-2.47-7.15H79.05L76.57,44.3a1.17,1.17,0,0,1-1.19.88H71.25a.76.76,0,0,1-.77-.77h0a.81.81,0,0,1,0-.31L81.87,12.47a1.23,1.23,0,0,1,1.2-.84h5.62a1.21,1.21,0,0,1,1.26.84l11.39,31.66M134,40.69a6.78,6.78,0,0,0,6-3.58l-6.8-7.28c-2.6,1.47-4.28,2.94-4.28,5.87a4.93,4.93,0,0,0,4.93,4.95H134m1.84-24.58a3.15,3.15,0,0,0-3.41,2.85h0v.4c0,1.43.75,2.68,2.48,4.53,3-1.72,4.23-2.77,4.23-4.62a3,3,0,0,0-2.82-3.16h-.48m18.63,28c.53.58.2,1.19-.47,1.19H148.7a1.76,1.76,0,0,1-1.56-.7L144,40.92a11.74,11.74,0,0,1-10.06,5c-6.12,0-11-3.69-11-10,0-4.87,2.6-7.47,6.54-9.65a10.32,10.32,0,0,1-2.81-6.63c0-5.2,3.66-8.78,9.16-8.78s9.06,3.33,9.06,8.23c0,4.2-3,6.54-6.21,8.34l4.77,5.08,2.69-4.59a1.41,1.41,0,0,1,1.38-.76h4.08c.67,0,1,.46.63,1.19l-4.77,8L154.66,44m-41.9,1.19a.88.88,0,0,0,.93-.82h0V17.21h9.18a.87.87,0,0,0,.92-.83h0V12.6a.89.89,0,0,0-.82-.92H98.24a.87.87,0,0,0-.93.81v0h0v3.82a.89.89,0,0,0,.85.93h9.27V44.32a.88.88,0,0,0,.82.92h.1Z"
          transform="translate(-8.2 -2.95)"/>
    <path id="path9" class="cls-2"
          d="M18.07,48.42a25.42,25.42,0,0,0,32.35-1c0-.05,0-.08,0-.05-2,1.34-7.73,4.27-16.73,4.27-7.82,0-12.77-1.75-15.56-3.31-.06,0-.07,0,0,.05m17.33,1.3c6.26,0,13.14-1.71,17.24-5.06a13.69,13.69,0,0,0,3.18-3.76,26.27,26.27,0,0,0,1.44-3.2c0-.06,0-.08,0,0-3.81,5.67-14.89,9.15-26.33,9.15-8.09,0-16.79-2.58-20.22-7.52,0,0-.07,0-.05,0,3.25,6.74,12.83,10.42,24.72,10.42M28.53,38.56c-13,0-19.16-6.1-20.27-10.2,0-.06-.06,0-.06,0a24.76,24.76,0,0,0,.38,4.38A5.07,5.07,0,0,0,9.86,35c3.19,3.29,11.05,7.9,24.66,7.9,18.53,0,22.77-6.18,23.64-8.22a18.35,18.35,0,0,0,1-6.28V27c0-.07,0-.07,0,0-.93,5-16.79,11.56-30.46,11.56M10.68,17.46a24.67,24.67,0,0,0-1.81,5.29A1.65,1.65,0,0,0,9,24c1.56,3.28,9.45,8.62,27.86,8.62,11.23,0,20-2.76,21.37-7.79a5.92,5.92,0,0,0-.07-3.26,23.83,23.83,0,0,0-1.66-4.4h0C56.68,23.76,38.25,28,29,28,18.9,28,10.5,24,10.5,18.92a5.94,5.94,0,0,1,.24-1.45s0-.06-.06,0M50.46,9.35a1.1,1.1,0,0,1,.17.59c0,2.82-8.67,7.82-22.39,7.82-10.11,0-12.06-3.75-12.06-6.11a4.08,4.08,0,0,1,1.08-2.6c0-.05,0-.07,0,0a26,26,0,0,0-3.62,3.72,3.31,3.31,0,0,0-.81,1.52c0,4.93,12.43,8.49,24,8.49,12.36,0,17.87-4,17.87-7.57,0-1.27-.49-2-1.75-3.44a30.36,30.36,0,0,0-2.38-2.43h-.08m-3.81-2.8a25.38,25.38,0,0,0-26.17.08c-1.15.72-1.79,1.27-1.79,2,0,2.17,5,4.46,13.9,4.46s15.66-2.53,15.66-5c0-.58-.51-1-1.53-1.61"
          transform="translate(-8.2 -2.95)"/>
</svg>