<!--
  - 2023.12.11.18:40:15
  -->

<svg id="Layer_1" data-name="Layer 1" xmlns="http://www.w3.org/2000/svg" viewBox="0 0 300 70.87">
    <defs>
        <style>
            .cls-1{fill:#fff;}.cls-2{fill:none;stroke:#fff;stroke-miterlimit:10;stroke-width:2px;}.cls-3{fill:#00a8e0;}
        </style>
    </defs>
    <path class="cls-1"
          d="M204.06,47.39a8,8,0,0,1-3.58-.79,6.63,6.63,0,0,1-2.56-2.17,6,6,0,0,1-1-3.15h2.71a3.75,3.75,0,0,0,1.43,2.6,5.07,5.07,0,0,0,5.54.33,4.66,4.66,0,0,0,1.75-1.83,5.83,5.83,0,0,0,0-5.36,5,5,0,0,0-1.82-1.88,5.23,5.23,0,0,0-2.63-.7,7.72,7.72,0,0,0-2.18.32,6.41,6.41,0,0,0-1.84.85l-2.63-.31,1.4-11.39h12v2.48h-9.67l-.82,6.83h.14a6.33,6.33,0,0,1,1.78-.94,7.25,7.25,0,0,1,8.65,3.4,8.13,8.13,0,0,1,1,4,7.65,7.65,0,0,1-1,4A7.16,7.16,0,0,1,208,46.42,7.68,7.68,0,0,1,204.06,47.39Z"/>
    <path class="cls-1"
          d="M230.81,31.16a8.14,8.14,0,0,0-1-2,6.53,6.53,0,0,0-1.39-1.58,6.3,6.3,0,0,0-1.88-1,7.47,7.47,0,0,0-2.31-.34,7,7,0,0,0-3.74,1.06,7.46,7.46,0,0,0-2.68,3.13,11.86,11.86,0,0,0-1,5.08,11.61,11.61,0,0,0,1,5.07,7.28,7.28,0,0,0,2.73,3.13,7.11,7.11,0,0,0,3.88,1,6.91,6.91,0,0,0,3.51-.85,5.82,5.82,0,0,0,2.37-2.42,7.38,7.38,0,0,0,.86-3.69L232,38h-7V35.5h8.81V38a9.77,9.77,0,0,1-1.21,5,8.3,8.3,0,0,1-3.35,3.27,10,10,0,0,1-4.85,1.14,9.55,9.55,0,0,1-9-5.56,14.48,14.48,0,0,1-1.29-6.33,15.47,15.47,0,0,1,.74-5A11.21,11.21,0,0,1,217,26.76a9.41,9.41,0,0,1,3.21-2.38,10.22,10.22,0,0,1,4.08-.82,10.43,10.43,0,0,1,3.42.55,9.55,9.55,0,0,1,2.84,1.54,9.07,9.07,0,0,1,3.23,5.46Z"/>
    <rect class="cls-2" x="185.82" y="14.46" width="57.95" height="41.11" rx="6.12"/>
    <path id="path5" class="cls-1"
          d="M156.12,52.27a.86.86,0,0,1-.92-.81h0V24.29H146a.87.87,0,0,1-.92-.84h0V19.68a.89.89,0,0,1,.82-.92h24.58a.88.88,0,0,1,.93.83h0v3.82a.9.9,0,0,1-.86.93h-9.27V51.4a.87.87,0,0,1-.82.92h-4.34M85.69,38.75,80.92,24.91,76,38.75ZM96.42,51.18a.77.77,0,0,1-.33,1,.8.8,0,0,1-.37.08H91.35a1.16,1.16,0,0,1-1.19-.88l-2.47-7.15H74.05l-2.48,7.15a1.17,1.17,0,0,1-1.19.88H66.25a.76.76,0,0,1-.77-.77h0a.81.81,0,0,1,0-.31L76.87,19.55a1.2,1.2,0,0,1,1.2-.84h5.62a1.21,1.21,0,0,1,1.26.84L96.34,51.21M129,47.77a6.8,6.8,0,0,0,6-3.58l-6.8-7.28c-2.6,1.47-4.28,2.94-4.28,5.87a4.93,4.93,0,0,0,4.93,4.95H129m1.84-24.58A3.14,3.14,0,0,0,127.46,26h0v.4c0,1.43.75,2.68,2.48,4.53,3-1.72,4.23-2.77,4.23-4.62a3,3,0,0,0-2.82-3.16h-.48m18.63,28c.53.58.2,1.19-.47,1.19H143.7a1.75,1.75,0,0,1-1.56-.7L139,48a11.74,11.74,0,0,1-10.06,5c-6.12,0-11-3.69-11-10,0-4.87,2.6-7.47,6.54-9.65a10.32,10.32,0,0,1-2.81-6.63c0-5.2,3.66-8.78,9.16-8.78s9.06,3.33,9.06,8.23c0,4.2-3,6.54-6.21,8.34l4.77,5.08L141.18,35a1.41,1.41,0,0,1,1.38-.76h4.08c.67,0,1,.46.63,1.19l-4.77,8,7.16,7.68m-41.9,1.19a.88.88,0,0,0,.93-.82h0V24.29h9.18a.88.88,0,0,0,.92-.84h0V19.68a.88.88,0,0,0-.82-.92H93.24a.87.87,0,0,0-.93.81v0h0v3.82a.89.89,0,0,0,.85.93h9.27V51.4a.87.87,0,0,0,.82.92h.1Z"/>
    <path id="path9" class="cls-3"
          d="M13.07,55.5a25.42,25.42,0,0,0,32.35-1s0-.08,0,0c-2,1.34-7.73,4.26-16.73,4.26-7.82,0-12.77-1.74-15.56-3.3-.06,0-.07,0,0,0m17.33,1.3c6.26,0,13.14-1.71,17.24-5.06A13.65,13.65,0,0,0,50.87,48a24.89,24.89,0,0,0,1.45-3.2c0-.06,0-.09,0,0-3.81,5.67-14.89,9.15-26.33,9.15-8.09,0-16.79-2.58-20.22-7.52,0,0-.07,0,0,0C8.92,53.15,18.5,56.83,30.39,56.83M23.52,45.64c-13,0-19.15-6.1-20.26-10.2,0-.06-.07,0-.07,0a25.75,25.75,0,0,0,.39,4.38A5.07,5.07,0,0,0,4.86,42c3.19,3.29,11,7.9,24.65,7.9,18.54,0,22.78-6.18,23.65-8.22a18.85,18.85,0,0,0,1-6.28V34.06c0-.07,0-.07,0,0-.93,5-16.79,11.56-30.46,11.56M5.68,24.54a24.67,24.67,0,0,0-1.81,5.29A1.62,1.62,0,0,0,4,31.05c1.56,3.29,9.45,8.63,27.86,8.63,11.23,0,20-2.76,21.36-7.79a5.83,5.83,0,0,0-.06-3.26,23.83,23.83,0,0,0-1.66-4.4h0c.23,6.61-18.2,10.84-27.46,10.84C13.9,35.11,5.5,31.05,5.5,26a6.45,6.45,0,0,1,.23-1.45c0-.05,0-.06-.05,0m39.78-8.12a1.1,1.1,0,0,1,.17.59c0,2.82-8.67,7.82-22.39,7.82-10.11,0-12.06-3.75-12.06-6.11a4.08,4.08,0,0,1,1.08-2.6c0-.05,0-.07,0,0A26,26,0,0,0,8.6,19.85a3.31,3.31,0,0,0-.81,1.52c0,4.93,12.42,8.49,24,8.49,12.36,0,17.87-4,17.87-7.57,0-1.27-.49-2-1.76-3.44a28.83,28.83,0,0,0-2.38-2.44h-.07m-3.82-2.8a25.38,25.38,0,0,0-26.16.09c-1.16.72-1.8,1.26-1.8,2,0,2.17,5,4.45,13.9,4.45s15.67-2.52,15.67-5c0-.58-.51-1-1.53-1.61"/>
</svg>