<?xml version="1.0" encoding="UTF-8"?>
<!--
  - 2023.12.11.18:40:15
  -->

<svg xmlns="http://www.w3.org/2000/svg" viewBox="0 0 20.37 20.37">
    <defs>
        <style>
            .cls-1{fill:#2ba7ed;}.cls-2{fill:#2880b2;}.cls-3{fill:#f1edee;}.cls-4{fill:#d6c8cc;}.cls-5{fill:#baa3ab;}.cls-6{fill:#9f7e89;}.cls-7{fill:#fac54f;}.cls-8{fill:#fef0d3;}
        </style>
    </defs>
    <title>authority-icon</title>
    <g id="Layer_2" data-name="Layer 2">
        <g id="Layer_2-2" data-name="Layer 2">
            <path class="cls-1"
                  d="M10.19,5.4C8.91,5.4.3,8.27.3,12.1a4.44,4.44,0,0,0,1.27,2.55H18.8a4.44,4.44,0,0,0,1.27-2.55C20.07,8.34,11.46,5.4,10.19,5.4Z"></path>
            <path class="cls-2"
                  d="M2.53,12.74c0-3.83,8.61-6.7,9.89-6.7l.26,0a10.56,10.56,0,0,0-2.49-.66C8.91,5.4.3,8.27.3,12.1a4.44,4.44,0,0,0,1.27,2.55H3.28A3.53,3.53,0,0,1,2.53,12.74Z"></path>
            <path class="cls-3" d="M1.57,14.65H18.8v1.92H1.57Z"></path>
            <path class="cls-4" d="M1.57,14.65h1.6v1.92H1.57Z"></path>
            <path class="cls-5" d="M1.57,16.57s4.79,3.5,8.62,3.5,8.61-3.5,8.61-3.5Z"></path>
            <path class="cls-6"
                  d="M3.49,16.57H1.57s4.79,3.5,8.62,3.5a7.69,7.69,0,0,0,1-.06C7.52,19.52,3.49,16.57,3.49,16.57Z"></path>
            <path class="cls-7" d="M10.19,7.66l-2.46.71v2.8l2.46,2.1,2.45-2.1V8.37Z"></path>
            <path class="cls-8" d="M9.23,9.6l.66-.09.3-.6.3.6.66.1-.49.47.11.66-.59-.32-.59.31.12-.66Z"></path>
            <path d="M19,16.74a.27.27,0,0,0,.06-.17v-1.8a4.55,4.55,0,0,0,1.27-2.67c0-2.16-2.51-3.92-4.62-5a18.24,18.24,0,0,0-5.56-2,18,18,0,0,0-5.56,2C2.52,8.14,0,9.9,0,12.1a4.5,4.5,0,0,0,1.28,2.67v1.8a.3.3,0,0,0,.12.24,25.07,25.07,0,0,0,2.91,1.77,13.16,13.16,0,0,0,5.88,1.79,13.23,13.23,0,0,0,5.88-1.79A26.17,26.17,0,0,0,19,16.81ZM4.9,7.58A18.44,18.44,0,0,1,10.19,5.7a18.48,18.48,0,0,1,5.28,1.91c2.78,1.44,4.3,3,4.3,4.49a3.92,3.92,0,0,1-1.1,2.25H16.61a.3.3,0,0,0-.3.3.29.29,0,0,0,.3.3H18.5v1.32H1.87V15H15.11a.3.3,0,0,0,.3-.3.31.31,0,0,0-.3-.3H1.7A3.92,3.92,0,0,1,.6,12.1C.6,10.62,2.13,9,4.9,7.58Zm5.29,12.19c-2.78,0-6.13-1.93-7.64-2.91H17.82C16.32,17.84,13,19.77,10.19,19.77Z"></path>
            <path d="M7.52,11.42,10,13.52a.32.32,0,0,0,.43,0l2.45-2.1a.32.32,0,0,0,.12-.25V8.37a.33.33,0,0,0-.24-.32l-2.45-.7a.28.28,0,0,0-.18,0l-2.46.7a.33.33,0,0,0-.24.32v2.8A.35.35,0,0,0,7.52,11.42Zm.54-2.81L10.19,8l2.12.6V11l-2.12,1.82L8.06,11Z"></path>
            <path d="M10.83,11.4a.33.33,0,0,0,.33-.38l-.1-.55.41-.39a.33.33,0,0,0-.18-.56l-.55-.09-.25-.51a.33.33,0,0,0-.59,0l-.25.5-.56.08a.33.33,0,0,0-.19.56l.4.39L9.2,11a.34.34,0,0,0,.48.35l.5-.26.5.27A.37.37,0,0,0,10.83,11.4Zm-.35-1.29a.35.35,0,0,0-.09.29v.07l-.06,0a.29.29,0,0,0-.16,0,.28.28,0,0,0-.15,0l-.06,0V10.4a.31.31,0,0,0-.09-.29l-.05,0h.07a.34.34,0,0,0,.25-.18l0-.06,0,.06a.31.31,0,0,0,.25.18h.07Z"></path>
            <path class="cls-1"
                  d="M12,2.94a.3.3,0,0,0,.21-.51,2.84,2.84,0,0,0-4,0,.3.3,0,1,0,.42.42,2.26,2.26,0,0,1,3.19,0A.29.29,0,0,0,12,2.94Z"></path>
            <path class="cls-1"
                  d="M7.47,1.72a3.86,3.86,0,0,1,5.44,0,.29.29,0,0,0,.21.09.3.3,0,0,0,.21-.09.29.29,0,0,0,0-.42A4.45,4.45,0,0,0,7,1.3a.31.31,0,0,0,0,.42A.3.3,0,0,0,7.47,1.72Z"></path>
            <path class="cls-1"
                  d="M9.07,3.33a.31.31,0,0,0,0,.42.3.3,0,0,0,.43,0,1,1,0,0,1,.69-.28,1,1,0,0,1,.69.28.3.3,0,0,0,.42-.42,1.55,1.55,0,0,0-1.11-.46A1.57,1.57,0,0,0,9.07,3.33Z"></path>
        </g>
    </g>
</svg>