<svg xmlns="http://www.w3.org/2000/svg" width="17" height="17" fill="none" viewBox="0 0 17 17">
  <path stroke="#fff" stroke-linecap="round" stroke-linejoin="round" stroke-width="1.5" d="M7.674 10.625 8.854 8.5H6.021L7.2 6.375m8.382 2.833V7.792M4.817 12.75h5.241c1.19 0 1.786 0 2.24-.232.4-.203.725-.528.929-.928.231-.455.231-1.05.231-2.24v-1.7c0-1.19 0-1.785-.231-2.24a2.125 2.125 0 0 0-.929-.928c-.454-.232-1.05-.232-2.24-.232H4.817c-1.19 0-1.786 0-2.24.232a2.12 2.12 0 0 0-.929.928c-.231.455-.231 1.05-.231 2.24v1.7c0 1.19 0 1.785.231 2.24.204.4.53.725.929.928.454.232 1.05.232 2.24.232Z"/>
</svg>
