<?xml version="1.0" encoding="iso-8859-1"?>
<!--
  - 2023.12.11.18:40:15
  -->

<!-- Generator: Adobe Illustrator 19.0.0, SVG Export Plug-In . SVG Version: 6.00 Build 0)  -->
<svg xmlns="http://www.w3.org/2000/svg" xmlns:xlink="http://www.w3.org/1999/xlink" version="1.1" id="Layer_1" x="0px"
     y="0px" viewBox="0 0 512.219 512.219" style="enable-background:new 0 0 512.219 512.219;" xml:space="preserve"
     width="512" height="512">
<g>
	<g>
		<g>
			<g>
				<path style="fill:#B9EBFF;"
                      d="M256.109,7.609c-137.306,0-248.614,111.257-248.614,248.5s111.308,248.5,248.614,248.5      s248.614-111.257,248.614-248.5S393.415,7.609,256.109,7.609z M256.109,452.698c-108.623,0-196.679-88.016-196.679-196.589      S147.486,59.52,256.109,59.52s196.679,88.016,196.679,196.589S364.732,452.698,256.109,452.698z"/>
			</g>
		</g>
        <g>
			<g>
				<g>
					<ellipse style="fill:#71D8FD;" cx="256.109" cy="256.109" rx="196.679" ry="196.589"/>
				</g>
			</g>
		</g>
        <g>
			<g>
				<ellipse style="fill:#A0FFAA;" cx="163.799" cy="167.804" rx="22.853" ry="22.842"/>
			</g>
		</g>
        <g>
			<g>
				<ellipse style="fill:#F9A1FF;" cx="394.017" cy="116.544" rx="22.853" ry="22.842"/>
			</g>
		</g>
        <g>
			<g>
				<ellipse style="fill:#FF8D95;" cx="389.504" cy="404.509" rx="22.853" ry="22.842"/>
			</g>
		</g>
        <g>
			<g>
				<ellipse style="fill:#F9A1FF;" cx="115.947" cy="396.895" rx="22.853" ry="22.842"/>
			</g>
		</g>
        <g>
			<g>
				<ellipse style="fill:#FFFFFF;" cx="256.109" cy="256.109" rx="22.853" ry="22.842"/>
			</g>
		</g>
        <g>
			<g>
				<ellipse style="fill:#FFB96A;" cx="359.653" cy="256.109" rx="22.853" ry="22.842"/>
			</g>
		</g>
        <g>
			<g>
				<ellipse style="fill:#87B45F;" cx="256.109" cy="356.89" rx="22.853" ry="22.842"/>
			</g>
		</g>
        <g>
			<g>
				<ellipse style="fill:#FFCD74;" cx="59.43" cy="256.109" rx="22.853" ry="22.842"/>
			</g>
		</g>
	</g>
    <g>
		<path d="M419.251,133.385c3.231-4.822,5.119-10.615,5.119-16.841c0-16.731-13.616-30.343-30.354-30.343    c-6.363,0-12.272,1.971-17.156,5.33C341.682,65.666,300.07,52.02,256.109,52.02c-101.637,0-187.384,74.466-201.996,174.224    c-14.209,2.521-25.037,14.949-25.037,29.866c0,14.913,10.822,27.339,25.026,29.864c2.125,14.465,5.807,28.671,10.969,42.315    c1.135,3.001,3.987,4.849,7.016,4.849c0.882,0,1.779-0.156,2.652-0.487c3.875-1.466,5.827-5.794,4.361-9.668    c-2.251-5.952-4.181-12.024-5.817-18.178c18.314,19.522,47.584,35.762,84.381,46.376c10.896,38.487,27.802,68.582,48.106,87.31    c-22.105-6.058-42.93-16.163-61.76-30.058c1.47-3.559,2.286-7.455,2.286-11.538c0-16.73-13.616-30.342-30.353-30.342    c-4.138,0-8.084,0.835-11.683,2.341c-4.574-6.143-8.794-12.578-12.578-19.203c-2.053-3.596-6.633-4.847-10.232-2.793    c-3.597,2.054-4.848,6.635-2.793,10.232c4.097,7.174,8.669,14.14,13.625,20.791c-4.182,5.2-6.692,11.798-6.692,18.974    c0,16.73,13.616,30.342,30.353,30.342c7.231,0,13.877-2.545,19.097-6.781c35.228,26.019,76.936,39.744,121.066,39.744    c40.351,0,79.082-11.649,112.468-33.744c5.45,5.195,12.819,8.395,20.926,8.395c16.736,0,30.353-13.611,30.353-30.342    c0-6.947-2.353-13.352-6.296-18.472c5.425-6.565,10.462-13.479,15.012-20.638c2.222-3.495,1.188-8.131-2.308-10.353    c-3.496-2.223-8.132-1.189-10.353,2.308c-4.281,6.736-9.03,13.239-14.147,19.408c-3.752-1.663-7.898-2.595-12.261-2.595    c-16.736,0-30.353,13.611-30.353,30.343c0,3.221,0.509,6.325,1.444,9.24c-16.751,11.13-34.961,19.42-54.084,24.683    c20.275-18.732,37.157-48.804,48.042-87.25c37.163-10.718,66.258-27.047,84.439-46.505c-1.976,7.445-4.409,14.778-7.306,21.974    c-1.547,3.843,0.313,8.211,4.156,9.758c0.918,0.37,1.866,0.545,2.798,0.545c2.971,0,5.783-1.776,6.96-4.701    c9.747-24.211,14.689-49.83,14.689-76.144C460.289,211.917,445.751,168.585,419.251,133.385z M115.946,412.236    c-8.466,0-15.353-6.882-15.353-15.342s6.887-15.342,15.353-15.342s15.353,6.882,15.353,15.342S124.412,412.236,115.946,412.236z     M389.504,389.166c8.466,0,15.353,6.883,15.353,15.343s-6.887,15.342-15.353,15.342s-15.353-6.882-15.353-15.342    S381.038,389.166,389.504,389.166z M389.066,248.609c-2.836-11.106-11.817-19.779-23.094-22.176    c-1.299-16.702-3.697-32.907-7.15-48.399c24.517,7.944,45.188,18.622,60.268,31.223c14.51,12.124,23.203,25.596,25.537,39.352    H389.066z M342.272,338.958c-17.984,4.628-37.128,7.747-57.073,9.287c-3.03-10.17-11.255-18.122-21.59-20.758V285.51    c10.718-2.734,19.174-11.186,21.91-21.901h44.722c2.635,10.32,10.578,18.537,20.736,21.572    C349.491,303.9,346.566,321.934,342.272,338.958z M256.129,372.23c-0.007,0-0.013-0.001-0.02-0.001s-0.013,0.001-0.02,0.001    c-8.457-0.011-15.333-6.887-15.333-15.341s6.876-15.33,15.333-15.341c0.007,0,0.013,0.001,0.02,0.001s0.013-0.001,0.02-0.001    c8.457,0.011,15.333,6.887,15.333,15.341S264.585,372.22,256.129,372.23z M169.924,338.953    c-5.972-23.678-9.25-48.969-9.772-75.343H226.7c2.736,10.715,11.191,19.167,21.91,21.901v41.977    c-10.335,2.636-18.561,10.588-21.59,20.758C207.067,346.704,187.916,343.583,169.924,338.953z M88.843,248.609    c-2.026-7.937-7.194-14.626-14.091-18.676c10.978-18.102,32.959-34.252,63.152-46.319c2.938,4.79,7.17,8.701,12.203,11.256    c-2.934,17.36-4.599,35.375-4.954,53.74H88.843z M305.247,94.198c13.18,15.672,24.237,37.103,32.325,62.478    c-23.243-5.281-48.446-8.275-73.962-8.766V67.64C278.213,69.962,292.475,79.01,305.247,94.198z M248.609,67.633v80.283    c-19.904,0.374-39.373,2.241-58.064,5.558c-2.521-4.682-6.236-8.626-10.734-11.43C196.592,98.911,221.667,71.892,248.609,67.633z     M163.799,152.462c8.466,0,15.353,6.882,15.353,15.342s-6.887,15.342-15.353,15.342s-15.353-6.882-15.353-15.342    S155.333,152.462,163.799,152.462z M164.764,198.121c16.205-0.51,29.243-13.77,29.381-30.058    c17.533-3.057,35.792-4.783,54.465-5.148v4.888c0,4.143,3.357,7.5,7.5,7.5s7.5-3.357,7.5-7.5v-4.89    c27.384,0.548,54.341,4.082,78.658,10.325c4.297,17.029,7.224,35.071,8.71,53.799c-10.159,3.035-18.101,11.252-20.736,21.572    h-44.722c-2.736-10.715-11.191-19.167-21.91-21.901v-25.599c0-4.143-3.357-7.5-7.5-7.5s-7.5,3.357-7.5,7.5v25.599    c-10.718,2.734-19.174,11.186-21.91,21.901h-66.547C160.5,231.351,162.047,214.428,164.764,198.121z M256.109,271.449    c-8.464,0-15.35-6.882-15.35-15.34s6.886-15.34,15.35-15.34s15.35,6.882,15.35,15.34S264.573,271.449,256.109,271.449z     M359.653,271.451c-8.466,0-15.353-6.882-15.353-15.342s6.887-15.342,15.353-15.342s15.353,6.882,15.353,15.342    S368.119,271.451,359.653,271.451z M409.37,116.544c0,8.46-6.888,15.342-15.354,15.342s-15.353-6.882-15.353-15.342    s6.887-15.343,15.353-15.343S409.37,108.084,409.37,116.544z M366.94,102.857c-2.09,4.115-3.276,8.764-3.276,13.687    c0,16.73,13.616,30.342,30.353,30.342c5.061,0,9.832-1.251,14.031-3.449c14.529,19.508,24.963,41.168,31.024,64.191    c-18.175-19.496-47.302-35.857-84.52-46.591c-10.896-38.484-27.8-68.575-48.101-87.303    C328.053,79.656,348.443,89.446,366.94,102.857z M205.826,73.786c-15.914,14.682-29.812,36.363-40.35,63.724    c-0.555-0.031-1.114-0.049-1.677-0.049c-16.736,0-30.353,13.611-30.353,30.342c0,0.481,0.014,0.959,0.036,1.435    c-25.647,10.116-46.194,23.202-60.233,38.182C90.544,142.074,141.602,91.428,205.826,73.786z M44.077,256.109    c0-8.46,6.888-15.342,15.354-15.342c8.453,0,15.33,6.861,15.351,15.303c0,0.013-0.002,0.026-0.002,0.039s0.002,0.026,0.002,0.039    c-0.021,8.442-6.898,15.303-15.351,15.303C50.965,271.451,44.077,264.569,44.077,256.109z M74.769,282.276    c6.89-4.051,12.05-10.737,14.075-18.667h56.306c0.467,24.516,3.228,48.166,8.229,70.566    C115.98,322.004,87.646,303.296,74.769,282.276z M174.642,355.53c16.511,3.766,33.853,6.351,51.789,7.711    c2.409,11.258,11.079,20.221,22.179,23.052v58.287c-14.604-2.322-28.865-11.37-41.638-26.559    C193.79,402.345,182.73,380.909,174.642,355.53z M305.247,418.021c-12.772,15.188-27.034,24.236-41.638,26.559v-58.287    c11.1-2.831,19.77-11.794,22.179-23.052c17.937-1.359,35.278-3.945,51.788-7.711C329.489,380.909,318.429,402.345,305.247,418.021    z M419.09,302.961c-15.08,12.601-35.75,23.279-60.268,31.223c3.453-15.493,5.851-31.697,7.15-48.399    c11.277-2.397,20.258-11.069,23.094-22.176h55.561C442.293,277.365,433.6,290.837,419.09,302.961z"/>
        <path d="M437.208,75.09c-48.372-48.352-112.688-74.98-181.099-74.98S123.383,26.738,75.011,75.09    C26.64,123.441,0,187.729,0,256.109s26.64,132.668,75.011,181.02c48.372,48.352,112.688,74.98,181.099,74.98    s132.727-26.629,181.099-74.98c48.371-48.352,75.011-112.639,75.011-181.02S485.579,123.441,437.208,75.09z M426.604,426.521    c-45.539,45.52-106.089,70.589-170.494,70.589S131.154,472.04,85.615,426.521C40.078,381.002,15,320.482,15,256.109    S40.078,131.217,85.615,85.698c45.539-45.52,106.089-70.589,170.494-70.589s124.955,25.069,170.494,70.589    c45.537,45.519,70.615,106.038,70.615,170.411S472.141,381.002,426.604,426.521z"/>
	</g>
</g>















</svg>
