<?xml version="1.0" encoding="UTF-8"?>
<!--
  - 2023.12.11.18:40:15
  -->

<svg xmlns="http://www.w3.org/2000/svg" viewBox="0 0 22 18.61">
    <defs>
        <style>
            .cls-1{fill:#c6271a;}.cls-2{fill:#af221b;}.cls-3{fill:#f74c48;}.cls-4{fill:#d63322;}.cls-5{fill:#f2f2f2;}
        </style>
    </defs>
    <title>blocks-icon</title>
    <g id="Layer_2" data-name="Layer 2">
        <g id="Layer_2-2" data-name="Layer 2">
            <path class="cls-1"
                  d="M20.16,15.07v0L12,2.19a1.23,1.23,0,0,0-2.08,0L1.81,15.11a1.23,1.23,0,0,0,1,1.88h16.3A1.23,1.23,0,0,0,20.16,15.07Z"></path>
            <path class="cls-2"
                  d="M2.75,16.35a1.22,1.22,0,0,1,0-1.24L10.94,2.19a1.25,1.25,0,0,1,.55-.47A1.24,1.24,0,0,0,10,2.19L1.81,15.11a1.23,1.23,0,0,0,1,1.88h1A1.25,1.25,0,0,1,2.75,16.35Z"></path>
            <path class="cls-3"
                  d="M19.15,18.29H2.85A2.53,2.53,0,0,1,.71,14.42L8.86,1.5a2.53,2.53,0,0,1,4.28,0l8.1,12.85A2.53,2.53,0,0,1,19.15,18.29Zm-9.1-16L1.9,15.17a1.12,1.12,0,0,0,1,1.71h16.3a1.12,1.12,0,0,0,.92-1.75v0L11.94,2.25A1.12,1.12,0,0,0,10.05,2.25Z"></path>
            <path class="cls-4"
                  d="M1.57,14.42,9.72,1.5A2.5,2.5,0,0,1,11.43.36,2.53,2.53,0,0,0,8.86,1.5L.71,14.42a2.53,2.53,0,0,0,2.14,3.87h.86A2.53,2.53,0,0,1,1.57,14.42Z"></path>
            <path class="cls-5" d="M11,6.35a.7.7,0,0,0-.7.71v4.08a.7.7,0,1,0,1.4,0V7.06A.7.7,0,0,0,11,6.35Z"></path>
            <circle class="cls-5" cx="11" cy="13.86" r="0.7"></circle>
            <path d="M11,12.84a1,1,0,1,0,1,1A1,1,0,0,0,11,12.84Zm0,1.4a.38.38,0,1,1,.38-.38A.38.38,0,0,1,11,14.24Z"></path>
            <path d="M21.51,14.17,13.41,1.33a2.85,2.85,0,0,0-4.82,0L.44,14.24a2.85,2.85,0,0,0,2.41,4.37H4.44a.32.32,0,1,0,0-.64H2.85A2.2,2.2,0,0,1,1,14.59L9.14,1.67a2.2,2.2,0,0,1,3.72,0L21,14.53A2.21,2.21,0,0,1,19.15,18H5.94a.32.32,0,0,0,0,.64H19.15A2.85,2.85,0,0,0,21.51,14.17Z"></path>
            <path d="M20.33,14.94,12.22,2.08a1.44,1.44,0,0,0-2.44,0L1.63,15a1.46,1.46,0,0,0,0,1.47,1.43,1.43,0,0,0,1.26.74h16.3A1.44,1.44,0,0,0,20.33,14.94Zm-18.15.4L10.33,2.42a.79.79,0,0,1,1.34,0c8.82,14,8.28,13,8.28,13.34a.8.8,0,0,1-.8.8H2.85A.79.79,0,0,1,2.18,15.34Z"></path>
            <path d="M11,6a1,1,0,0,0-1,1v4.08a1,1,0,0,0,2.06,0V9.4a.33.33,0,0,0-.65,0v1.74a.38.38,0,1,1-.76,0V7.06a.38.38,0,1,1,.76,0V7.9a.33.33,0,0,0,.65,0V7.06A1,1,0,0,0,11,6Z"></path>
        </g>
    </g>
</svg>