<!--
  - 2023.12.11.18:40:15
  -->

<svg height="512pt" viewBox="-54 0 512 512.00073" width="512pt" xmlns="http://www.w3.org/2000/svg">
    <path d="m362.84375 179.285156c0 16.265625-7.722656 19.523438-17.253906 19.523438-9.527344 0-17.25-3.257813-17.25-19.523438s7.722656-37.390625 17.25-37.390625c9.53125 0 17.253906 21.125 17.253906 37.390625zm0 0"
          fill="#ffdc13"/>
    <path d="m345.589844 141.894531c-2.089844 0-4.097656 1.019531-5.953125 2.785157 6.589843 6.265624 11.296875 21.914062 11.296875 34.605468s-4.703125 17.460938-11.296875 18.945313c1.855469.417969 3.863281.578125 5.953125.578125 9.53125 0 17.253906-3.257813 17.253906-19.523438s-7.722656-37.390625-17.253906-37.390625zm0 0"
          fill="#fa0"/>
    <path d="m382.40625 346.023438c0 87.554687-70.976562 158.53125-158.53125 158.53125s-158.53125-70.976563-158.53125-158.53125c0-109.941407 89.007812-113.585938 89.007812-217.242188 0-70.855469 39.207032-106.742188 58.734376-120.222656 4.289062-2.957032 10.089843.382812 9.722656 5.574218-2.179688 30.839844-4.128906 110.1875 33.574218 110.1875 74.710938 0-5.464843 123.910157 74.710938 123.910157 42.441406 0 51.3125 69.839843 51.3125 97.792969zm0 0"
          fill="#ffdc13"/>
    <path d="m331.09375 248.230469c-80.175781 0 0-123.910157-74.710938-123.910157-37.703124 0-35.753906-79.347656-33.574218-110.183593.367187-5.195313-5.4375-8.535157-9.722656-5.574219-8.121094 5.605469-19.640626 15.089844-30.335938 29.347656-.84375 36.210938 3.019531 91.375 34.460938 91.375 74.710937 0-5.464844 123.910156 74.710937 123.910156 42.441406 0 51.316406 69.839844 51.316406 97.792969 0 73.910157-50.578125 136.003907-119.007812 153.566407 87.390625-.191407 158.179687-71.09375 158.179687-158.527344-.003906-27.957032-8.875-97.796875-51.316406-97.796875zm0 0"
          fill="#fa0"/>
    <path d="m261.949219 325.835938c-33.394531 0-35.683594-62.230469-34.253907-97.890626.417969-10.460937-11.847656-16.402343-19.769531-9.558593-20.417969 17.640625-48.007812 52.46875-48.007812 111.910156 0 60.355469-30.171875 86.808594-55.382813 120.074219 29.058594 33.207031 71.746094 54.183594 119.339844 54.183594 47.601562 0 90.300781-20.984376 119.359375-54.207032-2.097656-.390625-4.285156-.601562-6.578125-.601562-80.175781 0 .003906-123.910156-74.707031-123.910156zm0 0"
          fill="#fa0"/>
    <path d="m313 444.113281c-21.363281 29.378907-52.5625 51.144531-88.769531 60.4375 47.460937-.105469 90.019531-21.066406 119.007812-54.203125-2.101562-.390625-4.289062-.601562-6.578125-.601562-10.324218 0-17.980468-2.054688-23.660156-5.632813zm0 0"
          fill="#ff8500"/>
    <path d="m223.875 504.554688c21.652344 0 42.289062-4.347657 61.089844-12.203126-11.570313-27.027343 12.675781-81.265624-30.878906-81.265624-18.171876 0-24.480469-23.742188-26.246094-47.476563-1.492188-20.074219-27.964844-26.335937-37.984375-8.875-8.484375 14.785156-14.980469 34.402344-14.980469 59.816406 0 33.28125-11.824219 53.28125-25.683594 71.335938 22.253906 11.90625 47.675782 18.667969 74.683594 18.667969zm0 0"
          fill="#ff8500"/>
    <path d="m224.226562 504.550781c21.523438-.046875 42.039063-4.382812 60.738282-12.199219-1.988282-4.644531-2.917969-10.09375-3.320313-15.929687-16.78125 12.992187-36.242187 22.695313-57.417969 28.128906zm0 0"
          fill="#ff6d00"/>
    <path d="m397.320312 107.878906c0 8.238282-6.675781 14.914063-14.914062 14.914063-8.234375 0-14.910156-6.675781-14.910156-14.914063 0-8.234375 6.675781-21.859375 14.910156-21.859375 8.238281 0 14.914062 13.625 14.914062 21.859375zm0 0"
          fill="#ffdc13"/>
    <path d="m37.273438 289.304688c0 8.234374-6.675782 14.914062-14.914063 14.914062-8.234375 0-14.910156-6.679688-14.910156-14.914062 0-8.234376 6.675781-21.863282 14.910156-21.863282 8.238281 0 14.914063 13.625 14.914063 21.863282zm0 0"
          fill="#ffdc13"/>
    <g fill="#fa0">
        <path d="m382.40625 86.019531c-2.15625 0-4.203125.9375-6.054688 2.464844 5.21875 4.304687 8.859376 13.316406 8.859376 19.394531 0 6.082032-3.644532 11.300782-8.859376 13.621094 1.851563.824219 3.898438 1.292969 6.054688 1.292969 8.238281 0 14.914062-6.675781 14.914062-14.914063 0-8.234375-6.675781-21.859375-14.914062-21.859375zm0 0"/>
        <path d="m22.359375 267.441406c-2.15625 0-4.203125.941406-6.054687 2.46875 5.214843 4.304688 8.855468 13.316406 8.855468 19.394532 0 6.078124-3.640625 11.296874-8.855468 13.621093 1.851562.824219 3.894531 1.292969 6.054687 1.292969 8.234375 0 14.914063-6.675781 14.914063-14.914062 0-8.238282-6.675782-21.863282-14.914063-21.863282zm0 0"/>
        <path d="m330.695312 191.5625c2.992188 5.789062 8.542969 7.246094 14.894532 7.246094 6.355468 0 11.90625-1.457032 14.898437-7.246094-.171875-8.085938-6.769531-14.59375-14.898437-14.59375-8.125 0-14.722656 6.507812-14.894532 14.59375zm0 0"/>
    </g>
    <path d="m350.914062 177.964844c.007813.441406.015626.882812.015626 1.320312 0 12.679688-4.695313 17.457032-11.277344 18.945313 1.851562.414062 3.851562.578125 5.9375.578125 6.355468 0 11.90625-1.457032 14.898437-7.246094-.132812-6.21875-4.070312-11.488281-9.574219-13.597656zm0 0"
          fill="#ff8500"/>
    <path d="m349.449219 454.441406c25.164062-29.105468 40.402343-67.015625 40.402343-108.417968 0-16.214844-2.671874-40.992188-10.179687-61.894532-12.859375-35.824218-33.515625-43.34375-48.578125-43.34375-10.828125 0-18.472656-2.433594-23.375-7.449218-9.425781-9.636719-8.980469-29.410157-8.550781-48.535157.480469-21.484375.980469-43.699219-12.03125-57.011719-7.085938-7.242187-17.429688-10.914062-30.753907-10.914062-16.816406 0-23.199218-24.953125-25.597656-45.882812-.464844-4.085938-4.152344-7.019532-8.242187-6.550782-4.085938.46875-7.019531 4.160156-6.550781 8.246094 5.589843 48.828125 25.050781 59.078125 40.390624 59.078125 9.292969 0 15.871094 2.105469 20.105469 6.433594 8.632813 8.832031 8.207031 27.863281 7.792969 46.269531-.496094 22.203125-1.015625 45.160156 12.792969 59.277344 7.847656 8.027344 18.976562 11.929687 34.019531 11.929687 14.957031 0 26.585938 11.265625 34.566406 33.484375 6.867188 19.125 9.304688 42.585938 9.304688 56.863282 0 36.621093-13.101563 70.242187-34.859375 96.421874-1.144531-.089843-2.296875-.144531-3.445313-.144531-10.828125 0-18.472656-2.4375-23.375-7.449219-9.425781-9.636718-8.980468-29.410156-8.550781-48.535156.480469-21.484375.980469-43.699218-12.03125-57.011718-7.085937-7.242188-17.429687-10.914063-30.753906-10.914063-4.699219 0-8.476563-1.660156-11.898438-5.21875-11.175781-11.632813-16.613281-42.589844-14.917969-84.929687.316407-7.859376-3.890624-14.867188-10.976562-18.28125-7.074219-3.410157-15.15625-2.339844-21.09375 2.789062-8.621094 7.445312-16.351562 15.964844-22.980469 25.324219-2.378906 3.359375-1.582031 8.003906 1.773438 10.378906 3.351562 2.378906 8 1.585937 10.378906-1.769531 5.933594-8.378906 12.851563-16.003906 20.558594-22.664063 2.015625-1.738281 4.09375-1.03125 4.894531-.644531.808594.390625 2.675781 1.585938 2.566406 4.273438-1.332031 33.285156.890625 76.929687 19.058594 95.839843 6.242188 6.5 13.859375 9.792969 22.636719 9.792969 9.292969 0 15.871093 2.105469 20.105469 6.433594 8.632812 8.828125 8.207031 27.863281 7.792968 46.269531-.5 22.203125-1.015625 45.160156 12.792969 59.277344 6.015625 6.15625 13.972656 9.878906 24.136719 11.28125-26.996094 25.152343-63.179688 40.566406-102.902344 40.566406-22.636719 0-44.121094-5.011719-63.414062-13.972656 11.914062-16.984375 21.859374-37.621094 21.859374-68.585938 0-21.050781 4.707032-39.929687 13.992188-56.113281 3.476562-6.054688 9.472656-7.128906 13.933594-6.117188 4.566406 1.039063 9.640625 4.695313 10.171875 11.839844 3.34375 44.9375 20.15625 54.371094 33.671875 54.371094 6.742187 0 11.460937 1.472656 14.417968 4.496094 6.210938 6.355468 5.886719 20.765625 5.578126 34.707031-.09375 4.109375 3.164062 7.515625 7.273437 7.609375.058594 0 .113281.003906.171875.003906 4.035156 0 7.347656-3.226562 7.4375-7.28125.382812-17.015625.777344-34.617187-9.816406-45.449218-5.820313-5.953126-14.253906-8.972657-25.0625-8.972657-13.75 0-17.695313-25.429687-18.824219-40.589843-.933594-12.554688-9.460937-22.46875-21.722656-25.253907-12.121094-2.757812-23.953125 2.4375-30.144531 13.226563-10.59375 18.464844-15.96875 39.839844-15.96875 63.523437 0 29.015625-9.855469 47.21875-20.253907 61.59375-12.152343-7.191406-23.21875-16.03125-32.882812-26.21875 2.625-3.347656 5.289062-6.664062 7.898437-9.898437 22.207032-27.546875 45.171875-56.03125 45.171875-109.730469 0-19.316406 3.070313-37.378906 9.117188-53.6875 1.429687-3.855469-.535157-8.140625-4.390625-9.570313-3.855469-1.429687-8.136719.535157-9.570313 4.390626-6.667969 17.972656-10.046875 37.777343-10.046875 58.867187 0 48.441406-20.339844 73.671875-41.875 100.382813-2.039062 2.53125-4.117187 5.109374-6.1875 7.722656-19.808594-25.558594-31.621094-57.613282-31.621094-92.378906 0-53.152344 21.296876-79.5625 43.839844-107.523438 22.207032-27.542969 45.171875-56.023438 45.171875-109.71875 0-63.742188 32.515625-97.503906 53.410157-112.605469-.449219 7.015625-.722657 14.023438-.804688 20.871094-.050781 4.113281 3.242188 7.488281 7.355469 7.535156h.089843c4.070313 0 7.394532-3.273437 7.445313-7.351562.089844-7.398438.40625-14.988281.941406-22.570313.375-5.292968-2.257812-10.214844-6.867187-12.84375-4.597656-2.625-10.15625-2.390625-14.511719.617188-10.613281 7.324218-25.957031 20.347656-38.765625 40.761718-15.382812 24.519532-23.183594 53.3125-23.183594 85.585938 0 48.4375-20.339844 73.664062-41.875 100.371094-23.171875 28.742187-47.136718 58.464844-47.136718 116.871094 0 41.417968 15.253906 79.34375 40.4375 108.453124.371093.5625.824218 1.074219 1.355468 1.53125 12.878906 14.53125 28.257813 26.792969 45.464844 36.101563.382812.253906.785156.464844 1.195312.632813 23.152344 12.285156 49.539063 19.257812 77.523438 19.257812 49.363281 0 93.753906-21.667969 124.183594-55.984375.53125-.453125 1-.980469 1.390625-1.574219zm0 0"/>
    <path d="m382.40625 130.238281c-12.328125 0-22.359375-10.027343-22.359375-22.355469 0-11.667968 8.917969-29.308593 22.359375-29.308593s22.359375 17.640625 22.359375 29.308593c0 12.328126-10.027344 22.355469-22.359375 22.355469zm0-36.773437c-2.050781 0-7.46875 8.011718-7.46875 14.417968 0 4.117188 3.351562 7.464844 7.46875 7.464844s7.46875-3.347656 7.46875-7.464844c0-6.40625-5.414062-14.417968-7.46875-14.417968zm0 0"/>
    <path d="m22.359375 311.664062c-12.328125 0-22.359375-10.03125-22.359375-22.359374 0-11.667969 8.917969-29.308594 22.359375-29.308594s22.359375 17.640625 22.359375 29.308594c0 12.328124-10.03125 22.359374-22.359375 22.359374zm0-36.777343c-2.054687 0-7.46875 8.011719-7.46875 14.417969 0 4.117187 3.351563 7.46875 7.46875 7.46875s7.46875-3.351563 7.46875-7.46875c0-6.40625-5.414063-14.417969-7.46875-14.417969zm0 0"/>
    <path d="m345.589844 206.253906c-16.15625 0-24.695313-9.328125-24.695313-26.96875 0-18.324218 8.792969-44.835937 24.695313-44.835937s24.699218 26.511719 24.699218 44.835937c0 17.640625-8.539062 26.96875-24.699218 26.96875zm0-56.855468c-3.4375 1.585937-9.804688 15.554687-9.804688 29.886718 0 12.078125 4.328125 12.078125 9.804688 12.078125 5.480468 0 9.808594 0 9.808594-12.078125 0-14.332031-6.367188-28.300781-9.808594-29.886718zm0 0"/>
</svg>