<svg xmlns="http://www.w3.org/2000/svg" width="18" height="17" fill="none" viewBox="0 0 18 17">
  <path fill="#fff" fill-rule="evenodd" d="M8.307.812h-.142c-1.487 0-2.395 0-3.159.215a5.75 5.75 0 00-3.98 3.979C.813 5.77.813 6.678.813 8.166V8.447c0 1.487 0 2.395.215 3.159a5.75 5.75 0 003.979 3.98c.764.214 1.672.214 3.16.214h3.137l.21.001a4.25 4.25 0 012.19.664l.032.019c.132.08.24.145.33.188a2.25 2.25 0 003.226-1.826c.009-.1.009-.226.009-.38V9.027c0-1.138 0-2.031-.05-2.752-.05-.734-.152-1.344-.386-1.91a5.75 5.75 0 00-3.119-3.118C13.18 1.014 12.57.91 11.835.86c-.72-.049-1.613-.049-2.751-.049h-.778zM5.412 2.471c.539-.152 1.221-.159 2.895-.159h.749c1.172 0 2.014 0 2.678.046.658.044 1.086.13 1.438.276a4.25 4.25 0 012.306 2.305c.145.352.231.781.276 1.439.045.664.046 1.506.046 2.678v5.374c0 .21-.001.262-.003.286a.75.75 0 01-1.075.608 5.34 5.34 0 01-.247-.144l-.008-.005c-.09-.054-.146-.088-.202-.12a5.75 5.75 0 00-2.718-.752c-.065-.002-.13-.002-.235-.002H8.307c-1.674 0-2.356-.007-2.895-.159a4.25 4.25 0 01-2.941-2.94c-.152-.54-.159-1.222-.159-2.895 0-1.674.007-2.356.159-2.895a4.25 4.25 0 012.941-2.941zm.646 6.585a.75.75 0 100-1.499.75.75 0 000 1.499zm3.747-.75a.75.75 0 11-1.498 0 .75.75 0 011.498 0zm2.248.75a.75.75 0 100-1.499.75.75 0 000 1.499z" clip-rule="evenodd"/>
</svg>
