<?xml version="1.0" encoding="UTF-8"?>
<!--
  - 2023.12.11.18:40:15
  -->

<svg xmlns="http://www.w3.org/2000/svg" id="Capa_1" height="512" viewBox="0 0 512 512" width="512">
    <circle cx="256.018" cy="255.981" fill="#ffce00" r="248.482"></circle>
    <path d="m431.722 80.278c-16.027-16.027-33.706-29.39-52.479-40.123 9.679 7.192 18.96 15.167 27.741 23.948 97.038 97.038 97.038 254.368 0 351.407-81.011 81.011-204.036 94.374-298.928 40.122 97.284 72.285 235.408 64.31 323.666-23.947 97.038-97.039 97.038-254.369 0-351.407z"
          fill="#ffa617"></path>
    <circle cx="256.018" cy="255.981" fill="#fff" r="211.208"></circle>
    <path d="m125.701 125.664c79.285-79.285 205.913-82.343 288.869-9.204-2.949-3.345-6.007-6.628-9.205-9.825-82.482-82.482-216.211-82.482-298.693 0-82.482 82.482-82.482 216.212 0 298.694 3.197 3.197 6.48 6.255 9.824 9.204-73.138-82.957-70.08-209.585 9.205-288.869z"
          fill="#e4eaf7"></path>
    <path d="m178.964 178.927c-21.238 21.238-31.868 49.146-31.868 77.054 0 19.918 29.988 9.899 29.988 0 0-20.219 7.699-40.447 23.088-55.846 15.399-15.389 35.618-23.088 55.846-23.088 20.218 0 40.447 7.699 55.846 23.088l21.208-21.208c-42.486-42.487-111.621-42.487-154.108 0z"
          fill="#ff708a"></path>
    <path d="m200.307 251.818c1.133-.132 1.95 1.059 1.42 2.068l-15.162 28.868-15.886 30.24c-.463.886-1.672 1.028-2.327.274l-43.803-50.388c-.748-.861-.226-2.207.906-2.339z"
          fill="#ff708a"></path>
    <circle cx="98.683" cy="413.317" fill="#6bd18d" r="91.146"></circle>
    <path d="m98.683 322.17c-4.171 0-8.275.286-12.297.829 44.522 6.005 78.849 44.15 78.849 90.318s-34.327 84.313-78.849 90.318c4.022.543 8.126.829 12.297.829 50.339 0 91.147-40.808 91.147-91.146-.001-50.34-40.808-91.148-91.147-91.148z"
          fill="#57bc76"></path>
    <path d="m437.028 74.97c-2.529-2.529-5.143-5.037-7.771-7.455-3.048-2.805-7.792-2.608-10.597.439-2.804 3.047-2.608 7.791.439 10.596 2.476 2.28 4.94 4.643 7.323 7.026 45.513 45.518 70.579 106.035 70.579 170.405s-25.066 124.887-70.578 170.404c-34.933 34.928-78.994 58.006-127.421 66.737-43.529 7.847-87.811 3.719-128.794-11.893 5.355-5.649 10.055-11.934 13.943-18.653 23.401 8.129 47.614 12.099 71.655 12.098 57.057-.001 113.12-22.295 154.865-64.04 41.31-41.31 64.06-96.233 64.06-154.653s-22.75-113.343-64.06-154.652c-41.31-41.31-96.232-64.06-154.652-64.06s-113.342 22.75-154.652 64.06c-51.864 51.863-74.209 125.817-59.772 197.827.813 4.06 4.763 6.695 8.827 5.878 4.06-.814 6.693-4.766 5.878-8.827-13.448-67.078 7.364-135.964 55.673-184.272 38.476-38.477 89.632-59.667 144.045-59.667s105.57 21.19 144.045 59.667c38.477 38.477 59.668 89.633 59.668 144.046s-21.191 105.57-59.668 144.046c-54.86 54.861-136.264 73.655-209.371 48.95 4.41-11.323 6.64-23.282 6.64-35.658 0-71.477-78.201-119.89-141.941-88.662-.001 0-.002.001-.003.001-.001.001-.003.002-.005.002 0 0 0 0-.001 0 0 0 0 0-.001 0-8.973 4.388-17.321 10.219-24.612 17.129-15.613-40.983-19.741-85.264-11.893-128.794 8.732-48.427 31.809-92.489 66.736-127.42 40.98-40.976 95.341-65.82 153.068-69.958 57.142-4.096 113.909 12.228 159.82 45.966 3.338 2.453 8.032 1.735 10.485-1.602 2.452-3.338 1.735-8.032-1.602-10.484-48.781-35.844-109.068-53.191-169.774-48.839-61.324 4.395-119.07 30.786-162.601 74.313-37.1 37.105-61.614 83.913-70.891 135.365-8.797 48.79-3.433 98.477 15.498 143.999-12.652 16.962-19.578 37.728-19.578 58.984 0 54.393 44.251 98.643 98.643 98.643 21.263 0 42.035-6.93 59-19.589 31.285 13.009 64.529 19.627 98.106 19.626 15.275 0 30.622-1.366 45.878-4.117 51.451-9.278 98.26-33.792 135.365-70.892 48.346-48.35 74.971-112.634 74.971-181.009s-26.625-132.659-74.972-181.011zm-421.992 338.349c0-19.333 6.749-38.188 19.003-53.094 7.58-9.222 17.241-16.861 27.939-22.093.001 0 .002-.001.003-.002.001 0 .001-.001.002-.001 11.461-5.617 23.808-8.464 36.697-8.464 22.093 0 42.93 8.533 58.672 24.027 15.724 15.475 24.59 36.136 24.963 58.174.001.056.003.112.005.168.017.424.015.854.015 1.285 0 12.889-2.847 25.235-8.464 36.697 0 .001 0 .002-.001.002 0 .001-.001.002-.002.003-5.232 10.698-12.871 20.36-22.094 27.94-14.905 12.253-33.76 19.002-53.093 19.002-46.122.001-83.645-37.522-83.645-83.644z"></path>
    <path d="m140.181 147.643c1.919 0 3.839-.732 5.302-2.196 2.929-2.929 2.929-7.677.001-10.606l-7.62-7.62c-2.929-2.928-7.678-2.929-10.606 0-2.929 2.929-2.929 7.677-.001 10.606l7.62 7.62c1.466 1.464 3.384 2.196 5.304 2.196z"></path>
    <path d="m263.518 92.162v-10.776c0-4.142-3.357-7.499-7.499-7.499s-7.499 3.358-7.499 7.499v10.776c0 4.142 3.357 7.499 7.499 7.499s7.499-3.357 7.499-7.499z"></path>
    <path d="m248.519 419.8v10.776c0 4.142 3.357 7.499 7.499 7.499s7.499-3.357 7.499-7.499v-10.776c0-4.142-3.357-7.499-7.499-7.499s-7.499 3.357-7.499 7.499z"></path>
    <path d="m412.338 255.981c0 4.142 3.357 7.499 7.499 7.499h10.776c4.142 0 7.499-3.357 7.499-7.499s-3.357-7.499-7.499-7.499h-10.776c-4.142 0-7.499 3.357-7.499 7.499z"></path>
    <path d="m73.924 255.981c0 4.142 3.357 7.499 7.499 7.499h10.776c4.142 0 7.499-3.357 7.499-7.499s-3.357-7.499-7.499-7.499h-10.775c-4.143 0-7.5 3.357-7.5 7.499z"></path>
    <path d="m194.727 111.563c.934 0 1.884-.176 2.804-.547 3.841-1.55 5.698-5.919 4.148-9.761l-4.032-9.993c-1.55-3.841-5.918-5.701-9.761-4.149-3.841 1.55-5.698 5.919-4.148 9.761l4.032 9.993c1.178 2.922 3.988 4.696 6.957 4.696z"></path>
    <path d="m314.506 400.946c-3.841 1.55-5.698 5.919-4.148 9.76l4.032 9.993c1.179 2.922 3.989 4.696 6.957 4.696.934 0 1.884-.176 2.804-.547 3.841-1.55 5.698-5.919 4.148-9.76l-4.032-9.993c-1.549-3.84-5.916-5.699-9.761-4.149z"></path>
    <path d="m415.126 183.7-9.993 4.032c-3.842 1.55-5.699 5.919-4.149 9.761 1.179 2.922 3.989 4.695 6.958 4.695.934 0 1.884-.176 2.803-.547l9.993-4.032c3.842-1.55 5.699-5.919 4.149-9.761-1.551-3.841-5.919-5.7-9.761-4.148z"></path>
    <path d="m320.097 112.717c2.917 0 5.691-1.713 6.905-4.568l4.216-9.917c1.62-3.812-.156-8.215-3.968-9.836-3.806-1.616-8.213.156-9.835 3.968l-4.216 9.917c-1.62 3.812.156 8.215 3.968 9.836.956.407 1.95.6 2.93.6z"></path>
    <path d="m403.851 326.964 9.917 4.216c.957.407 1.951.6 2.93.6 2.917 0 5.691-1.714 6.905-4.568 1.62-3.811-.156-8.215-3.968-9.835l-9.917-4.216c-3.806-1.618-8.213.156-9.835 3.968-1.621 3.811.155 8.215 3.968 9.835z"></path>
    <path d="m102.32 198.802c.957.407 1.951.6 2.93.6 2.917 0 5.691-1.713 6.905-4.568 1.62-3.812-.156-8.215-3.968-9.836l-9.917-4.216c-3.806-1.618-8.213.155-9.835 3.968-1.62 3.812.156 8.215 3.968 9.836z"></path>
    <path d="m117.303 258.728c-1.198 3.094-.59 6.57 1.586 9.073l43.805 50.392c1.706 1.96 4.162 3.063 6.724 3.063.348 0 .697-.02 1.047-.062 2.929-.345 5.494-2.112 6.853-4.712l31.048-59.109c1.543-2.937 1.334-6.46-.544-9.195-1.878-2.734-5.088-4.195-8.385-3.809h.002l-14.145 1.649c2.12-15.324 9.108-29.498 20.181-40.578 13.481-13.473 31.431-20.893 50.544-20.893 16.582 0 32.285 5.593 44.958 15.871l-50.261 50.261c-2.928 2.929-2.928 7.677 0 10.606l123.461 123.461c1.465 1.464 3.385 2.196 5.303 2.196s3.839-.732 5.303-2.196c2.929-2.929 2.929-7.677 0-10.607l-.004-.004-7.62-7.62-110.534-110.534 110.53-110.531c.001-.001.003-.003.004-.004l7.619-7.62.004-.004c2.929-2.928 2.929-7.677 0-10.606-2.929-2.928-7.677-2.928-10.607 0l-.004.004-41.273 41.273c-21.239-18.707-48.256-28.932-76.881-28.932-31.144 0-60.392 12.096-82.357 34.062-20.869 20.87-32.822 48.313-33.965 77.708l-15.108 1.761c-3.294.383-6.085 2.543-7.284 5.636zm83.872.539h.002c-.005.001-.009.001-.014.002zm-16.907-75.038c19.131-19.132 44.613-29.668 71.751-29.668 24.615 0 47.869 8.669 66.256 24.558l-10.638 10.638c-15.541-13.083-35.024-20.209-55.618-20.209-23.117 0-44.833 8.979-61.15 25.286-14.33 14.339-23.009 32.95-24.874 52.967l-15.194 1.771c1.525-24.72 11.847-47.723 29.467-65.343zm-36.24 81.232c.04-.004.08-.003.12-.007.037-.005.071-.014.108-.019l41.474-4.833-21.554 41.034-30.407-34.979z"></path>
    <path d="m141.4 416.826c-4.009-1.06-8.109 1.332-9.165 5.336-1.62 6.133-4.863 11.761-9.378 16.276-6.821 6.822-15.89 10.578-25.537 10.578-8.073 0-15.737-2.64-22.021-7.496l13.441-1.938c4.099-.591 6.944-4.393 6.352-8.493-.591-4.1-4.408-6.949-8.493-6.352l-27.16 3.917c-1.087.157-2.082.544-2.952 1.098-.028.017-.059.031-.087.049-.105.067-.202.142-.303.213-.028.021-.058.039-.085.06-2.672 1.93-3.722 5.339-2.737 8.377l3.728 25.855c.538 3.737 3.745 6.43 7.413 6.43.356 0 .718-.025 1.08-.078 4.099-.591 6.944-4.393 6.352-8.493l-.78-5.408c8.052 4.818 17.15 7.234 26.252 7.234 13.089 0 26.179-4.983 36.144-14.947 6.387-6.388 10.978-14.36 13.272-23.053 1.057-4.004-1.332-8.108-5.336-9.165z"></path>
    <path d="m142.382 360.996c-4.099-.593-7.902 2.252-8.493 6.352l-1.245 8.632c-19.986-19.133-51.806-18.886-71.469.778-8.121 8.121-13.316 18.866-14.631 30.253-.476 4.115 2.475 7.835 6.589 8.31.293.034.582.051.87.051 3.757 0 6.999-2.818 7.44-6.64.942-8.158 4.517-15.547 10.337-21.368 13.479-13.477 35.038-14.045 49.208-1.728l-9.683-1.396c-4.102-.596-7.902 2.253-8.493 6.352-.592 4.099 2.253 7.902 6.352 8.493l26.691 3.849c1.109.229 2.276.205 3.419-.098.064-.017.128-.032.191-.05.124-.036.247-.078.37-.121.123-.042.244-.087.364-.136.046-.019.093-.032.138-.052.04-.017.077-.04.117-.057.159-.072.315-.149.469-.231.051-.027.102-.053.152-.081 1.954-1.104 3.397-3.065 3.741-5.458l3.917-27.16c.593-4.101-2.252-7.903-6.351-8.494z"></path>
</svg>