<!--
  - 2023.12.11.18:40:15
  -->

<svg id="Capa_1" enable-background="new 0 0 512 512" height="512" viewBox="0 0 512 512" width="512"
     xmlns="http://www.w3.org/2000/svg">
    <g>
        <g>
            <path d="m67.233 348.733c-.001-.131-.01-.26-.01-.391 0-49.327 39.988-89.315 89.315-89.315 11.134 0 21.784 2.054 31.613 5.776 8.269-47.758 49.878-84.089 99.999-84.089 53.993 0 98.123 42.156 101.317 95.347 3.335-.321 6.714-.491 10.134-.491 57.658-.001 104.399 46.74 104.399 104.398s-46.741 104.398-104.398 104.398c-56.482 0-292.855 0-323.487 0-37.619 0-68.115-30.496-68.115-68.114 0-34.606 25.814-63.164 59.233-67.519z"
                  fill="#a8daf9"/>
            <path d="m399.602 466.366c-56.482 0-292.855 0-323.487 0-34.579 0-63.12-25.774-67.509-59.155-.394 2.959-.606 5.974-.606 9.041 0 37.618 30.496 68.114 68.114 68.114h323.487c57.658 0 104.398-46.741 104.398-104.398 0-3.033-.137-6.033-.39-9-4.564 53.443-49.383 95.398-104.007 95.398z"
                  fill="#8ad2f7"/>
            <path d="m389.467 276.048c0 .004.001.008.001.012 3.335-.321 6.714-.491 10.134-.491 15.09 0 29.429 3.207 42.381 8.967v-121.573h20.319l-46.577-49.517-46.577 49.517h20.319z"
                  fill="#27a5fd"/>
            <path d="m282.138 180.91c1.992-.117 3.993-.197 6.014-.197 16.762 0 32.571 4.065 46.502 11.26v-103.035h20.319l-46.577-49.517-46.577 49.517h20.319z"
                  fill="#14d190"/>
            <path d="m174.808 260.931c4.583.957 9.046 2.244 13.344 3.872 4.503-26.006 18.906-48.606 39.172-63.814v-59.2h20.319l-46.577-49.517-46.577 49.517h20.319z"
                  fill="#ffd45d"/>
            <path d="m174.808 260.931c4.583.957 9.046 2.244 13.344 3.872 4.503-26.006 18.906-48.606 39.172-63.814v-59.2h20.319l-46.577-49.517-46.577 49.517h20.319z"
                  fill="#ffd45d"/>
            <path d="m67.479 341.551c2.509-33.38 23.367-61.641 52.516-74.728v-189.672h20.319l-46.577-49.517-46.577 49.517h20.319z"
                  fill="#f4594e"/>
            <path d="m119.995 266.824v-16.185c-21.963 8.242-40.433 23.683-52.516 43.44v47.473c2.509-33.381 23.367-61.641 52.516-74.728z"
                  fill="#e84642"/>
            <path d="m174.808 260.931c4.583.957 9.046 2.244 13.344 3.872 4.503-26.006 18.906-48.606 39.172-63.814v-18.132c-5.104 3.124-9.982 6.652-14.584 10.566-16.499 14.031-31.289 32.351-37.932 52.697z"
                  fill="#ffc41a"/>
            <path d="m334.653 191.973v-16.564c-14.277-6.237-30.013-9.696-46.502-9.696-2.01 0-4.014.058-6.014.162v15.035c1.992-.117 3.993-.197 6.014-.197 16.762.001 32.572 4.066 46.502 11.26z"
                  fill="#00bf76"/>
            <path d="m441.983 268.282c-11.278-4.274-23.23-6.829-35.533-7.521-2.221-.125-4.085-1.715-4.567-3.886-2.546-11.46-6.779-22.268-12.415-32.163v51.336c.005.004.007.007.012.011 3.332-.32 6.707-.49 10.123-.49 15.09 0 29.429 3.207 42.381 8.967v-16.254z"
                  fill="#0098f3"/>
        </g>
        <g>
            <path d="m449.861 279.859v-34.788c0-4.15-3.364-7.515-7.515-7.515-4.15 0-7.515 3.365-7.515 7.515v28.596c-11.004-3.619-22.751-5.585-34.95-5.585-.875 0-1.758.019-2.639.04v-105.351c0-4.15-3.365-7.515-7.515-7.515h-2.974l29.283-31.132 29.283 31.132h-2.974c-4.15 0-7.515 3.365-7.515 7.515v52.241c0 4.15 3.365 7.515 7.515 7.515s7.515-3.365 7.515-7.515v-44.727h12.845c6.387.212 10.003-8.158 5.473-12.663l-46.668-49.614c-2.819-3.127-8.129-3.127-10.947 0l-46.668 49.614c-4.53 4.507-.912 12.876 5.474 12.663h12.844v56.379c-9.677-16.305-23.467-29.851-39.892-39.25v-91.298h12.844c6.387.213 10.003-8.158 5.474-12.663l-46.668-49.614c-2.819-3.127-8.129-3.127-10.947 0l-46.668 49.614c-4.531 4.507-.912 12.876 5.473 12.663h12.845v77.762c-14.297 1.762-27.788 6.287-39.891 13.06v-37.869h12.844c6.387.212 10.003-8.158 5.474-12.663l-46.668-49.614c-2.819-3.127-8.129-3.127-10.947 0l-46.668 49.614c-4.531 4.507-.912 12.876 5.474 12.663h12.844v103.046c-3.569-.397-7.168-.607-10.791-.607-10.135 0-19.91 1.568-29.101 4.465v-171.668h12.844c6.387.213 10.003-8.158 5.474-12.663l-46.669-49.614c-2.819-3.127-8.129-3.127-10.947 0l-46.669 49.614c-4.53 4.507-.912 12.876 5.474 12.663h12.844v45.957c0 4.15 3.364 7.515 7.515 7.515s7.515-3.365 7.515-7.515v-53.471c0-4.15-3.364-7.515-7.515-7.515h-2.974l29.283-31.132 29.283 31.132h-2.974c-4.15 0-7.515 3.365-7.515 7.515v185.354c-15.344 7.872-28.327 19.714-37.59 34.161v-135.985c0-4.15-3.364-7.515-7.515-7.515s-7.515 3.365-7.515 7.515v181.216c-.024.342-.054.682-.075 1.025-34.35 7.509-59.518 38.248-59.518 73.993 0 41.776 33.987 75.762 75.762 75.762h223.718c4.15 0 7.515-3.365 7.515-7.515s-3.365-7.515-7.515-7.515h-223.718c-33.488 0-60.733-27.245-60.733-60.733 0-30.397 22.701-56.277 52.806-60.2 3.754-.489 6.558-3.694 6.544-7.479 0-.136-.004-.27-.01-.433.036-45.171 36.796-81.907 81.975-81.907 9.965 0 19.727 1.783 29.014 5.3 4.244 1.727 9.395-1.212 10.066-5.746 7.828-45.209 46.852-78.022 92.791-78.022 49.74 0 91.035 38.86 94.014 88.469.164 4.135 4.108 7.513 8.222 7.029 3.148-.303 6.322-.457 9.433-.457 53.535 0 97.088 43.553 97.088 97.088s-43.553 97.088-97.088 97.088h-70.344c-4.15 0-7.515 3.365-7.515 7.515s3.364 7.515 7.515 7.515h70.344c61.82.003 112.116-50.292 112.116-112.114 0-43.873-25.334-81.934-62.139-100.341zm-141.363-229.904 29.283 31.132h-2.974c-4.15 0-7.515 3.365-7.515 7.515v91.672c-11.718-4.504-24.388-7.036-37.589-7.214v-84.459c0-4.15-3.365-7.515-7.515-7.515h-2.974zm-126.077 205.114c-.085-.024-.172-.044-.257-.067v-113.448c0-4.15-3.365-7.515-7.515-7.515h-2.974l29.283-31.132 29.283 31.132h-2.974c-4.15 0-7.515 3.364-7.515 7.515v55.526c-17.975 14.44-31.353 34.536-37.331 57.989z"/>
            <path d="m303.134 331.572c8.407 0 16.514 2.475 23.447 7.159 3.44 2.325 8.111 1.42 10.434-2.02 2.324-3.439 1.419-8.11-2.02-10.434-9.427-6.369-20.444-9.735-31.861-9.735-31.416 0-56.976 25.559-56.976 56.975s25.559 56.975 56.976 56.975c29.564 0 50.211-23.429 50.211-56.975 0-4.15-3.365-7.515-7.515-7.515h-29.592c-4.15 0-7.515 3.365-7.515 7.515s3.364 7.515 7.515 7.515h21.675c-2.821 25.246-19.938 34.432-34.779 34.432-23.129 0-41.946-18.817-41.946-41.946-.001-23.13 18.816-41.946 41.946-41.946z"/>
            <path d="m196.429 415.459c-11.287.218-20.974-8.01-22.529-19.159-.143-1.024-.215-2.073-.215-3.118 0-4.15-3.364-7.515-7.515-7.515-4.15 0-7.515 3.365-7.515 7.515 0 1.736.121 3.484.359 5.194 2.573 18.434 18.388 32.117 36.956 32.116.253 0 .508-.003.762-.008 19.455-.392 35.484-15.91 36.493-35.329.537-10.341-3.087-20.163-10.203-27.658-7.016-7.389-16.877-11.627-27.056-11.627-4.278 0-7.756.294-10.824.849l4.167-25.15h30.23c4.15 0 7.515-3.365 7.515-7.515s-3.364-7.515-7.515-7.515h-36.602c-3.676 0-6.813 2.659-7.413 6.286l-7.252 43.765c-.463 2.797.696 5.611 2.982 7.286 2.287 1.675 5.33 1.915 7.857.631.07-.035.394-.197.923-.434 4.129-1.859 7.689-3.175 15.931-3.175 6.166 0 11.904 2.467 16.157 6.946 4.25 4.476 6.414 10.347 6.094 16.53-.602 11.591-10.172 20.851-21.787 21.085z"/>
        </g>
    </g>
</svg>