<!--
  - 2023.12.11.18:40:15
  -->

<svg id="Capa_1" enable-background="new 0 0 512 512" height="512" viewBox="0 0 512 512" width="512"
     xmlns="http://www.w3.org/2000/svg">
    <g>
        <g>
            <g>
                <path d="m376.07 105.914h-240.14c-16.577 0-30.015 13.438-30.015 30.015v240.141c0 16.577 13.438 30.015 30.015 30.015h240.14c16.577 0 30.015-13.438 30.015-30.015v-240.14c.001-16.577-13.438-30.016-30.015-30.016z"
                      fill="#ffd45d"/>
                <path d="m376.07 388.086h-240.14c-16.577 0-30.015-13.439-30.015-30.015v18c0 16.577 13.438 30.015 30.015 30.015h240.14c16.577 0 30.015-13.439 30.015-30.015v-18c.001 16.576-13.438 30.015-30.015 30.015z"
                      fill="#ffc41a"/>
                <path d="m347.538 149.462h-183.076c-8.284 0-15 6.716-15 15v183.076c0 8.284 6.716 15 15 15h183.076c8.284 0 15-6.716 15-15v-183.076c0-8.284-6.716-15-15-15z"
                      fill="#14d190"/>
                <path d="m347.538 344.538h-183.076c-8.284 0-15-6.716-15-15v18c0 8.284 6.716 15 15 15h183.076c8.284 0 15-6.716 15-15v-18c0 8.284-6.716 15-15 15z"
                      fill="#00bf76"/>
                <path d="m202.029 105.914h-34.061v-80.884c0-9.406 7.625-17.03 17.03-17.03 9.406 0 17.03 7.625 17.03 17.03v80.884z"
                      fill="#a3afc5"/>
                <path d="m273.03 105.914h-34.06v-80.884c0-9.405 7.624-17.03 17.03-17.03 9.406 0 17.03 7.625 17.03 17.03z"
                      fill="#a3afc5"/>
                <path d="m344.032 105.914h-34.061v-80.884c0-9.406 7.625-17.03 17.03-17.03 9.406 0 17.03 7.625 17.03 17.03v80.884z"
                      fill="#a3afc5"/>
                <path d="m167.968 87.914h34.061v18h-34.061z" fill="#929db1"/>
                <path d="m238.97 87.914h34.061v18h-34.061z" fill="#929db1"/>
                <path d="m309.971 87.914h34.061v18h-34.061z" fill="#929db1"/>
                <path d="m202.029 406.086h-34.061v80.884c0 9.406 7.625 17.03 17.03 17.03 9.406 0 17.03-7.625 17.03-17.03v-80.884z"
                      fill="#a3afc5"/>
                <path d="m273.03 406.086h-34.06v80.884c0 9.406 7.625 17.03 17.03 17.03 9.406 0 17.03-7.625 17.03-17.03z"
                      fill="#a3afc5"/>
                <path d="m344.032 406.086h-34.061v80.884c0 9.406 7.625 17.03 17.03 17.03 9.406 0 17.03-7.625 17.03-17.03v-80.884z"
                      fill="#a3afc5"/>
                <path d="m167.968 406.086h34.061v18h-34.061z" fill="#929db1"/>
                <path d="m238.97 406.086h34.061v18h-34.061z" fill="#929db1"/>
                <path d="m309.971 406.086h34.061v18h-34.061z" fill="#929db1"/>
                <g fill="#a3afc5">
                    <path d="m406.086 202.029v-34.061h80.884c9.406 0 17.031 7.625 17.031 17.03 0 9.406-7.625 17.03-17.031 17.03h-80.884z"/>
                    <path d="m406.086 273.03v-34.06h80.884c9.406 0 17.031 7.625 17.031 17.03 0 9.406-7.625 17.03-17.031 17.03z"/>
                    <path d="m406.086 344.032v-34.061h80.884c9.406 0 17.031 7.625 17.031 17.03 0 9.406-7.625 17.03-17.031 17.03h-80.884z"/>
                    <path d="m105.914 202.029v-34.061h-80.884c-9.406 0-17.03 7.625-17.03 17.03 0 9.406 7.625 17.03 17.03 17.03h80.884z"/>
                    <path d="m105.914 273.03v-34.06h-80.884c-9.405 0-17.03 7.624-17.03 17.03 0 9.406 7.625 17.03 17.03 17.03z"/>
                    <path d="m105.914 344.032v-34.061h-80.884c-9.406 0-17.03 7.625-17.03 17.03 0 9.406 7.625 17.03 17.03 17.03h80.884z"/>
                </g>
                <path d="m486.969 184.029h-80.884v18h80.884c9.406 0 17.031-7.625 17.031-17.031 0-3.309-.959-6.386-2.592-9-3.008 4.817-8.342 8.031-14.439 8.031z"
                      fill="#929db1"/>
                <path d="m486.969 255.03h-80.884v18h80.884c9.406 0 17.031-7.625 17.031-17.03 0-3.309-.959-6.387-2.592-9-3.008 4.816-8.342 8.03-14.439 8.03z"
                      fill="#929db1"/>
                <path d="m486.969 326.032h-80.884v18h80.884c9.406 0 17.031-7.625 17.031-17.03 0-3.309-.959-6.387-2.592-9-3.008 4.815-8.342 8.03-14.439 8.03z"
                      fill="#929db1"/>
                <path d="m10.591 175.999c-1.633 2.614-2.591 5.691-2.591 9 0 9.406 7.625 17.031 17.03 17.031h80.884v-18h-80.884c-6.097-.001-11.43-3.215-14.439-8.031z"
                      fill="#929db1"/>
                <path d="m10.592 247c-1.633 2.613-2.592 5.691-2.592 9 0 9.405 7.625 17.03 17.03 17.03h80.884v-18h-80.884c-6.097 0-11.43-3.214-14.438-8.03z"
                      fill="#929db1"/>
                <path d="m10.591 318.001c-1.633 2.614-2.591 5.691-2.591 9 0 9.406 7.625 17.03 17.03 17.03h80.884v-18h-80.884c-6.097.001-11.43-3.214-14.439-8.03z"
                      fill="#929db1"/>
            </g>
        </g>
        <g>
            <path d="m293.726 224.823c5.947 0 11.682 1.75 16.585 5.064 3.438 2.321 8.11 1.419 10.433-2.021 2.323-3.438 1.419-8.11-2.02-10.433-7.397-4.997-16.042-7.639-24.999-7.639-24.649 0-44.702 20.053-44.702 44.702s20.053 44.703 44.702 44.703c23.325 0 39.616-18.383 39.616-44.703 0-4.151-3.365-7.515-7.515-7.515h-22.249c-4.15 0-7.515 3.364-7.515 7.515s3.365 7.515 7.515 7.515h14.076c-2.043 11.414-9.051 22.159-23.93 22.159-16.362 0-29.673-13.311-29.673-29.673.003-16.363 13.315-29.674 29.676-29.674z"/>
            <path d="m208.885 284.165c-7.541.129-14.015-5.351-15.054-12.798-.096-.687-.144-1.389-.144-2.087 0-4.151-3.365-7.515-7.515-7.515s-7.515 3.364-7.515 7.515c0 1.389.097 2.79.288 4.162 2.063 14.783 14.743 25.755 29.632 25.754.202 0 .408-.002.611-.007 15.6-.314 28.453-12.757 29.261-28.329.431-8.291-2.475-16.166-8.18-22.175-5.625-5.925-13.533-9.323-21.695-9.323-2.201 0-4.133.1-5.882.292l2.457-14.833h21.148c4.15 0 7.515-3.364 7.515-7.515s-3.365-7.515-7.515-7.515h-27.52c-3.676 0-6.813 2.66-7.413 6.287l-5.452 32.905c-.463 2.794.7 5.605 2.984 7.28s5.33 1.916 7.858.635c.062-.031.27-.133.607-.285 2.981-1.343 5.372-2.222 11.212-2.222 4.119 0 7.954 1.649 10.795 4.642 2.84 2.99 4.286 6.914 4.071 11.048-.4 7.742-6.794 13.928-14.554 14.084z"/>
            <path d="m347.717 141.739h-183.434c-12.431 0-22.544 10.114-22.544 22.544v183.434c0 12.431 10.113 22.544 22.544 22.544h115.869c4.15 0 7.515-3.364 7.515-7.515s-3.364-7.515-7.515-7.515h-115.869c-4.144 0-7.515-3.371-7.515-7.515v-183.433c0-4.144 3.371-7.515 7.515-7.515h183.434c4.144 0 7.515 3.371 7.515 7.515v183.434c0 4.144-3.371 7.515-7.515 7.515h-37.507c-4.15 0-7.515 3.364-7.515 7.515s3.365 7.515 7.515 7.515h37.507c12.431 0 22.544-10.114 22.544-22.544v-183.435c0-12.431-10.113-22.544-22.544-22.544z"/>
            <path d="m487.422 280.578c13.552 0 24.578-11.025 24.578-24.578s-11.026-24.578-24.578-24.578h-73.528v-21.983h73.528c13.552 0 24.578-11.027 24.578-24.579s-11.026-24.578-24.578-24.578h-73.528v-24.586c0-20.727-16.862-37.589-37.589-37.589h-24.587v-26.51c0-4.151-3.365-7.515-7.515-7.515s-7.515 3.364-7.515 7.515v26.509h-19.098v-73.528c0-5.265 4.284-9.549 9.549-9.549s9.549 4.284 9.549 9.549v16.96c0 4.151 3.364 7.515 7.515 7.515 4.15 0 7.515-3.364 7.515-7.515v-16.96c.001-13.553-11.025-24.578-24.578-24.578-13.552 0-24.578 11.025-24.578 24.578v73.527h-21.984v-73.527c0-13.553-11.026-24.578-24.578-24.578s-24.578 11.025-24.578 24.578v73.527h-21.984v-73.527c0-13.553-11.026-24.578-24.578-24.578s-24.578 11.025-24.578 24.578v73.527h-24.587c-20.726 0-37.589 16.862-37.589 37.589v24.586h-26.509c-4.15 0-7.515 3.364-7.515 7.515s3.365 7.515 7.515 7.515h26.509v19.099h-73.528c-5.265 0-9.549-4.284-9.549-9.55 0-5.265 4.284-9.549 9.549-9.549h16.96c4.15 0 7.515-3.364 7.515-7.515s-3.364-7.515-7.515-7.515h-16.96c-13.552.001-24.578 11.027-24.578 24.58s11.026 24.578 24.578 24.578h73.527v21.983h-73.527c-13.552.001-24.578 11.026-24.578 24.579s11.026 24.578 24.578 24.578h73.527v21.983h-73.527c-13.552.001-24.578 11.027-24.578 24.58s11.026 24.578 24.578 24.578h73.527v24.586c0 20.727 16.863 37.589 37.589 37.589h24.587v73.527c0 13.553 11.026 24.578 24.578 24.578s24.578-11.025 24.578-24.578v-73.527h21.984v73.527c.001 13.554 11.027 24.579 24.579 24.579s24.578-11.025 24.578-24.578v-73.527h21.984v73.527c0 13.553 11.026 24.578 24.578 24.578s24.578-11.025 24.578-24.578v-73.527h24.587c20.727 0 37.589-16.862 37.589-37.589v-24.586h73.528c13.552 0 24.578-11.026 24.578-24.579s-11.026-24.578-24.578-24.578h-73.528v-21.983h73.528zm0-34.127c5.265 0 9.549 4.284 9.549 9.549s-4.284 9.549-9.549 9.549h-73.528v-19.098zm0-71.141c5.265 0 9.549 4.284 9.549 9.55 0 5.265-4.284 9.549-9.549 9.549h-73.528v-19.099zm-240.971-150.732c0-5.265 4.284-9.549 9.549-9.549s9.549 4.284 9.549 9.549v73.527h-19.098zm-71.14 0c0-5.265 4.284-9.549 9.549-9.549s9.549 4.284 9.549 9.549v73.527h-19.098zm-150.733 240.971c-5.265 0-9.549-4.284-9.549-9.549s4.284-9.549 9.549-9.549h73.527v19.098zm0 71.141c-5.265 0-9.549-4.284-9.549-9.55 0-5.265 4.284-9.549 9.549-9.549h73.527v19.099zm169.83 150.732c0 5.265-4.284 9.549-9.549 9.549s-9.549-4.284-9.549-9.549v-73.527h19.098zm71.141 0c0 5.265-4.284 9.549-9.549 9.549s-9.549-4.284-9.549-9.549v-73.527h19.098zm71.14 0c0 5.265-4.284 9.549-9.549 9.549s-9.549-4.284-9.549-9.549v-73.527h19.098zm62.175-111.117c0 12.439-10.12 22.56-22.559 22.56h-240.61c-12.439 0-22.56-10.12-22.56-22.56v-240.61c0-12.439 10.12-22.56 22.56-22.56h240.611c12.439 0 22.559 10.12 22.559 22.56v240.61zm88.558-58.714c5.265 0 9.549 4.284 9.549 9.55 0 5.265-4.284 9.549-9.549 9.549h-73.528v-19.099z"/>
        </g>
    </g>
</svg>