<svg xmlns="http://www.w3.org/2000/svg" width="14" height="14" fill="none" viewBox="0 0 14 14">
  <path fill="url(#a)" d="M12.25 5.25v-.7c0-.98 0-1.47-.19-1.844a1.75 1.75 0 0 0-.766-.765c-.374-.191-.864-.191-1.844-.191h-4.9c-.98 0-1.47 0-1.844.19a1.75 1.75 0 0 0-.765.766c-.191.374-.191.864-.191 1.844v.7h10.5Z" opacity=".12"/>
  <path stroke="#fff" stroke-linecap="round" stroke-linejoin="round" d="M1.75 5.25h10.5m-7 0v7m-.7-10.5h4.9c.98 0 1.47 0 1.845.19.329.169.597.436.764.766.191.374.191.864.191 1.844v4.9c0 .98 0 1.47-.19 1.845a1.75 1.75 0 0 1-.766.764c-.374.191-.864.191-1.844.191h-4.9c-.98 0-1.47 0-1.844-.19a1.75 1.75 0 0 1-.765-.766c-.191-.374-.191-.864-.191-1.844v-4.9c0-.98 0-1.47.19-1.844a1.75 1.75 0 0 1 .766-.765c.374-.191.864-.191 1.844-.191Z"/>
  <defs>
    <linearGradient id="a" x1="1.488" x2="12.513" y1="3.5" y2="3.5" gradientUnits="userSpaceOnUse">
      <stop stop-color="#E7E7E7"/>
      <stop offset=".823" stop-color="#E7E7E7" stop-opacity="0"/>
      <stop offset="1" stop-color="#E7E7E7" stop-opacity="0"/>
    </linearGradient>
  </defs>
</svg>
