<?xml version="1.0" encoding="UTF-8"?>
<!--
  - 2023.12.11.18:40:15
  -->

<svg xmlns="http://www.w3.org/2000/svg" viewBox="0 0 46.9 43.95">
    <defs>
        <style>
            .cls-1{fill:#f4f4f4;}.cls-2{fill:#e8e8e8;}.cls-3{fill:#5994ce;}.cls-4{fill:#4c7eb0;}.cls-5{fill:#fa5d72;}.cls-6{fill:#f6d867;}.cls-7{fill:#2cab72;}.cls-8{fill:#a7c3de;}.cls-9{fill:#93acc4;}.cls-10{fill:#e35567;}.cls-11{fill:#fba826;}.cls-12{fill:#e09721;}
        </style>
    </defs>
    <title>dash</title>
    <g id="Layer_2" data-name="Layer 2">
        <g id="Layer_1-2" data-name="Layer 1">
            <path class="cls-1"
                  d="M44,43.27H2.87A2.18,2.18,0,0,1,.69,41.09V2.87A2.17,2.17,0,0,1,2.87.69H44a2.18,2.18,0,0,1,2.18,2.18V41.09A2.19,2.19,0,0,1,44,43.27Z"></path>
            <path class="cls-2"
                  d="M44,.69H40.82A2.17,2.17,0,0,1,43,2.87V41.09a2.18,2.18,0,0,1-2.18,2.18H44a2.19,2.19,0,0,0,2.18-2.18V2.87A2.18,2.18,0,0,0,44,.69Z"></path>
            <path class="cls-3" d="M.69,8.88H46.21v-6A2.18,2.18,0,0,0,44,.69H2.87A2.17,2.17,0,0,0,.69,2.87Z"></path>
            <path class="cls-4" d="M44,.69H40.82A2.17,2.17,0,0,1,43,2.87v6h3.21v-6A2.18,2.18,0,0,0,44,.69Z"></path>
            <path class="cls-5" d="M7.77,4.78A1.62,1.62,0,1,1,6.15,3.17,1.62,1.62,0,0,1,7.77,4.78Z"></path>
            <path class="cls-6" d="M13.24,4.78a1.62,1.62,0,1,1-1.62-1.61A1.61,1.61,0,0,1,13.24,4.78Z"></path>
            <path class="cls-7" d="M18.72,4.78A1.62,1.62,0,1,1,17.1,3.17,1.62,1.62,0,0,1,18.72,4.78Z"></path>
            <path class="cls-8" d="M.69,8.88V41.09a2.18,2.18,0,0,0,2.18,2.18H15.48V8.88Z"></path>
            <path class="cls-9" d="M13.24,8.88h2.24V43.27H13.24Z"></path>
            <path class="cls-5"
                  d="M28.58,20.83H19a.72.72,0,0,1-.72-.72V13a.73.73,0,0,1,.72-.73h9.54a.73.73,0,0,1,.73.73v7.14A.73.73,0,0,1,28.58,20.83Z"></path>
            <path class="cls-10"
                  d="M28.58,12.24H26.39a.73.73,0,0,1,.72.73v7.14a.72.72,0,0,1-.72.72h2.19a.73.73,0,0,0,.73-.72V13A.73.73,0,0,0,28.58,12.24Z"></path>
            <path class="cls-5"
                  d="M42.65,20.83H33.37a.85.85,0,0,1-.85-.85V13.09a.85.85,0,0,1,.85-.85h9.28a.86.86,0,0,1,.86.85V20A.86.86,0,0,1,42.65,20.83Z"></path>
            <path class="cls-10"
                  d="M43.51,20V13.09a.86.86,0,0,0-.86-.85H40.52a.85.85,0,0,1,.85.85V20a.85.85,0,0,1-.85.85h2.13A.86.86,0,0,0,43.51,20Z"></path>
            <path class="cls-5"
                  d="M42.78,33.1H19a.72.72,0,0,1-.72-.72V24.49a.73.73,0,0,1,.72-.73H42.78a.73.73,0,0,1,.73.73v7.89A.73.73,0,0,1,42.78,33.1Z"></path>
            <path class="cls-10"
                  d="M42.78,23.76H40.63a.73.73,0,0,1,.72.73v7.89a.72.72,0,0,1-.72.72h2.15a.73.73,0,0,0,.73-.72V24.49A.73.73,0,0,0,42.78,23.76Z"></path>
            <path class="cls-11"
                  d="M42.83,39.39H19a.73.73,0,0,1-.72-.73V37.11a.73.73,0,0,1,.72-.73H42.83a.73.73,0,0,1,.72.73v1.55A.73.73,0,0,1,42.83,39.39Z"></path>
            <path class="cls-12"
                  d="M42.83,36.38H40.72a.73.73,0,0,1,.73.73v1.55a.73.73,0,0,1-.73.73h2.11a.73.73,0,0,0,.72-.73V37.11A.73.73,0,0,0,42.83,36.38Z"></path>
            <path d="M6.15,2.48a2.31,2.31,0,1,0,2.3,2.3A2.3,2.3,0,0,0,6.15,2.48Zm0,3.23a.93.93,0,1,1,.93-.93A.93.93,0,0,1,6.15,5.71Z"></path>
            <path d="M11.62,2.48a2.31,2.31,0,1,0,2.31,2.3A2.3,2.3,0,0,0,11.62,2.48Zm0,3.23a.93.93,0,1,1,.93-.93A.93.93,0,0,1,11.62,5.71Z"></path>
            <path d="M17.1,2.48a2.31,2.31,0,1,0,2.3,2.3A2.31,2.31,0,0,0,17.1,2.48Zm0,3.23A.93.93,0,1,1,18,4.78.93.93,0,0,1,17.1,5.71Z"></path>
            <path d="M42.12,4.78a.68.68,0,0,0-.69-.68H24.7a.68.68,0,0,0-.69.68.69.69,0,0,0,.69.69H41.43A.69.69,0,0,0,42.12,4.78Z"></path>
            <path d="M44,0H2.87A2.87,2.87,0,0,0,0,2.87V41.09a4,4,0,0,0,0,.5l0,.07s0,.07,0,.11a.64.64,0,0,1,0,.07s0,0,0,.06A2.86,2.86,0,0,0,2.87,44H44a2.87,2.87,0,0,0,2.87-2.86V2.87A2.88,2.88,0,0,0,44,0ZM14.79,42.58H2.87a1.5,1.5,0,0,1-1.44-1.09v-.07a1.86,1.86,0,0,1,0-.33V9.57H14.79Zm29.24,0H16.17v-33H31.78a.69.69,0,1,0,0-1.38H1.37V2.87a1.5,1.5,0,0,1,1.5-1.5H44a1.5,1.5,0,0,1,1.49,1.5V8.19H34.35a.69.69,0,0,0,0,1.38H45.52V41.09A1.49,1.49,0,0,1,44,42.58Z"></path>
            <path d="M3.55,13.41h9.07a.67.67,0,0,0,.68-.68.68.68,0,0,0-.68-.69H3.55a.69.69,0,0,0-.69.69A.68.68,0,0,0,3.55,13.41Z"></path>
            <path d="M3.55,17.71h9.07A.68.68,0,0,0,13.3,17a.67.67,0,0,0-.68-.68H3.55a.68.68,0,0,0-.69.68A.69.69,0,0,0,3.55,17.71Z"></path>
            <path d="M3.55,22h9.07a.69.69,0,0,0,0-1.38H3.55a.69.69,0,0,0,0,1.38Z"></path>
            <path d="M3.55,26.3h9.07a.67.67,0,0,0,.68-.68.68.68,0,0,0-.68-.69H3.55a.69.69,0,0,0-.69.69A.68.68,0,0,0,3.55,26.3Z"></path>
            <path d="M19,21.52h9.54A1.42,1.42,0,0,0,30,20.11V13a1.43,1.43,0,0,0-1.42-1.42H19A1.42,1.42,0,0,0,17.63,13v7.14A1.41,1.41,0,0,0,19,21.52ZM19,13s0,0,0,0h9.54a0,0,0,0,1,0,0v7.14a0,0,0,0,1,0,0H19s0,0,0,0Z"></path>
            <path d="M33.24,21.52h9.54a1.41,1.41,0,0,0,1.41-1.41V13a1.42,1.42,0,0,0-1.41-1.42H33.24A1.42,1.42,0,0,0,31.83,13v7.14A1.41,1.41,0,0,0,33.24,21.52Zm9.41-8.59a.16.16,0,0,1,.17.16V20a.17.17,0,0,1-.17.17H33.37A.18.18,0,0,1,33.2,20V13.09a.17.17,0,0,1,.17-.16Z"></path>
            <path d="M42.83,35.69H19a1.42,1.42,0,0,0-1.41,1.42v1.55A1.41,1.41,0,0,0,19,40.07H42.83a1.41,1.41,0,0,0,1.41-1.41V37.11A1.42,1.42,0,0,0,42.83,35.69Zm0,3a0,0,0,0,1,0,0H19s0,0,0,0V37.11s0,0,0,0H42.83a0,0,0,0,1,0,0Z"></path>
            <path d="M19,33.79h3.49a.69.69,0,1,0,0-1.37H19s0,0,0,0V24.49s0,0,0,0H42.78a0,0,0,0,1,0,0v7.89a0,0,0,0,1,0,0H25.1a.69.69,0,1,0,0,1.37H42.78a1.41,1.41,0,0,0,1.41-1.41V24.49a1.41,1.41,0,0,0-1.41-1.41H19a1.41,1.41,0,0,0-1.41,1.41v7.89A1.41,1.41,0,0,0,19,33.79Z"></path>
        </g>
    </g>
</svg>