<?xml version="1.0" encoding="UTF-8"?>
<!--
  - 2023.12.11.18:40:15
  -->

<svg xmlns="http://www.w3.org/2000/svg" height="512pt" viewBox="-13 0 512 512" width="512pt">
    <path d="m445.136719 24.035156 31.109375 48.386719c1.148437 1.789063-.136719 4.140625-2.261719 4.140625h-12.089844v75.125c0 24.738281-20.054687 44.789062-44.789062 44.789062h-79.40625v-38.03125h79.40625c3.714843 0 6.753906-3.042968 6.753906-6.757812v-75.121094h-12.089844c-2.125 0-3.410156-2.355468-2.261719-4.144531l31.109376-48.386719c1.054687-1.644531 3.460937-1.644531 4.519531 0zm0 0"
          fill="#fe6c56"></path>
    <path d="m337.695312 158.445312h18.292969v38.03125h-18.292969zm0 0" fill="#e24333"></path>
    <path d="m411.769531 76.566406h12.089844v75.121094c0 3.714844-3.039063 6.757812-6.753906 6.757812h18.292969c3.714843 0 6.753906-3.042968 6.753906-6.757812v-75.121094h-12.089844c-2.128906 0-3.410156-2.355468-2.261719-4.144531l24.222657-37.675781-6.886719-10.710938c-1.058594-1.644531-3.460938-1.644531-4.523438 0l-31.105469 48.386719c-1.148437 1.789063.136719 4.144531 2.261719 4.144531zm0 0"
          fill="#ea3c2f"></path>
    <path d="m458.339844 475.542969v4.363281h-40.035156v-185.636719c0-9.117187-7.414063-16.535156-16.535157-16.535156h-26.78125l-45.757812.503906v-40.535156h72.539062c31.1875 0 56.570313 25.371094 56.570313 56.566406zm0 0"
          fill="#75dbad"></path>
    <path d="m458.339844 464.894531c-14.710938 0-26.632813-11.921875-26.632813-26.632812v-159.003907c0-9.132812-7.402343-16.535156-16.535156-16.535156h-26.78125l-45.761719.5v-25.519531h-13.398437v40.535156l45.757812-.503906h26.78125c9.132813 0 16.535157 7.402344 16.535157 16.535156v185.636719h40.035156zm0 0"
          fill="#15ce71"></path>
    <path d="m158.503906 237.703125v38.03125l-40.835937 2h-32.574219c-31.242188 0-56.570312-25.324219-56.570312-56.566406v-160.617188h-17.136719c-1.59375 0-2.503907-1.824219-1.542969-3.097656l36.152344-47.902344c.773437-1.023437 2.3125-1.023437 3.085937 0l36.152344 47.902344c.960937 1.273437.054687 3.097656-1.542969 3.097656h-15.132812v160.617188c0 9.132812 7.402344 16.535156 16.535156 16.535156zm0 0"
          fill="#75dbad"></path>
    <path d="m26.90625 57.453125 29.164062-38.640625-6.988281-9.261719c-.773437-1.023437-2.3125-1.023437-3.085937 0l-36.152344 47.902344c-.960938 1.273437-.050781 3.097656 1.542969 3.097656h17.066406c-1.597656 0-2.507813-1.824219-1.546875-3.097656zm0 0"
          fill="#15ce71"></path>
    <path d="m45.585938 221.167969v-160.617188h-17.0625v160.617188c0 31.242187 25.328124 56.566406 56.570312 56.566406h17.0625c-31.242188 0-56.570312-25.324219-56.570312-56.566406zm0 0"
          fill="#15ce71"></path>
    <path d="m364.277344 299.613281h-235.898438c-5.914062 0-10.710937 4.796875-10.710937 10.710938v62.613281c0 5.90625 4.796875 10.699219 10.710937 10.699219h235.898438c5.917968 0 10.710937-4.792969 10.710937-10.699219v-62.613281c0-5.914063-4.792969-10.710938-10.710937-10.710938zm0 0"
          fill="#305e6b"></path>
    <path d="m247.585938 346.214844h-80.585938c-5.917969 0-10.710938-4.792969-10.710938-10.699219v-35.902344h-27.910156c-5.914062 0-10.707031 4.796875-10.707031 10.710938v62.613281c0 5.90625 4.792969 10.699219 10.707031 10.699219h235.902344c5.914062 0 10.707031-4.792969 10.707031-10.699219v-26.722656zm0 0"
          fill="#1e4e59"></path>
    <path d="m208.96875 383.636719h-80.589844c-5.914062 0-10.710937 4.792969-10.710937 10.699219v62.621093c0 5.90625 4.796875 10.699219 10.710937 10.699219h135.578125v-84.019531zm0 0"
          fill="#254f5d"></path>
    <path d="m208.96875 383.636719h155.308594c2.070312 0 3.996094-.597657 5.632812-1.613281-6.769531-2.980469-14.25-4.648438-22.125-4.648438-8.167968 0-15.914062 1.792969-22.878906 4.996094-.679688-3.984375-1.683594-7.847656-2.984375-11.582032-9.945313-28.664062-37.171875-49.242187-69.21875-49.242187-32.054687 0-59.300781 20.578125-69.238281 49.242187-1.4375 4.125-2.5 8.421876-3.175782 12.847657zm0 0"
          fill="#1e4e59"></path>
    <path d="m345.792969 333.917969v15.414062c0 2.933594-2.371094 5.304688-5.304688 5.304688h-114.496093c-2.933594 0-5.304688-2.371094-5.304688-5.304688v-15.414062c0-2.933594 2.371094-5.304688 5.304688-5.304688h114.496093c2.933594 0 5.304688 2.371094 5.304688 5.304688zm0 0"
          fill="#e6e6e6"></path>
    <path d="m247.585938 346.214844h-26.898438v3.117187c0 2.933594 2.371094 5.304688 5.304688 5.304688h114.496093c2.933594 0 5.304688-2.371094 5.304688-5.304688v-3.117187zm0 0"
          fill="#9daeb2"></path>
    <path d="m374.988281 226.300781v62.613281c0 5.90625-4.792969 10.699219-10.710937 10.699219h-235.898438c-5.914062 0-10.710937-4.792969-10.710937-10.699219v-62.613281c0-5.914062 4.796875-10.707031 10.710937-10.707031h235.898438c5.917968 0 10.710937 4.792969 10.710937 10.707031zm0 0"
          fill="#254f5d"></path>
    <path d="m374.988281 142.28125v62.613281c0 5.914063-4.792969 10.699219-10.710937 10.699219h-235.898438c-5.914062 0-10.710937-4.785156-10.710937-10.699219v-62.613281c0-5.914062 4.796875-10.710938 10.710937-10.710938h235.898438c5.917968 0 10.710937 4.796876 10.710937 10.710938zm0 0"
          fill="#305e6b"></path>
    <path d="m374.988281 58.257812v62.613282c0 5.917968-4.792969 10.699218-10.710937 10.699218h-235.898438c-5.914062 0-10.710937-4.78125-10.710937-10.699218v-62.613282c0-5.914062 4.796875-10.699218 10.710937-10.699218h235.898438c5.917968 0 10.710937 4.785156 10.710937 10.699218zm0 0"
          fill="#254f5d"></path>
    <path d="m208.96875 383.636719h-80.589844c-5.914062 0-10.710937 4.792969-10.710937 10.699219v62.621093c0 5.90625 4.796875 10.699219 10.710937 10.699219h135.578125v-84.019531zm0 0"
          fill="#254f5d"></path>
    <path d="m128.378906 467.65625h135.578125v-84.019531h-83.671875c-.558594 3.648437-.863281 7.378906-.863281 11.183593 0 9.859376 1.960937 19.246094 5.492187 27.832032-11.507812 6.136718-19.363281 18.21875-19.445312 32.160156v.199219h-47.800781v1.945312c0 5.90625 4.796875 10.699219 10.710937 10.699219zm0 0"
          fill="#143c47"></path>
    <path d="m167 262.191406c-5.917969 0-10.710938-4.792968-10.710938-10.699218v-35.898438h-27.910156c-5.914062 0-10.707031 4.792969-10.707031 10.707031v62.613281c0 5.90625 4.792969 10.699219 10.707031 10.699219h235.902344c5.914062 0 10.707031-4.792969 10.707031-10.699219v-26.722656zm0 0"
          fill="#173c42"></path>
    <path d="m167 178.171875c-5.917969 0-10.710938-4.785156-10.710938-10.699219v-35.902344h-27.910156c-5.914062 0-10.707031 4.796876-10.707031 10.710938v62.613281c0 5.914063 4.792969 10.699219 10.707031 10.699219h235.902344c5.914062 0 10.707031-4.785156 10.707031-10.699219v-26.722656zm0 0"
          fill="#1e4e59"></path>
    <path d="m167 94.148438c-5.917969 0-10.710938-4.78125-10.710938-10.699219v-35.890625h-27.910156c-5.914062 0-10.707031 4.785156-10.707031 10.699218v62.613282c0 5.917968 4.792969 10.699218 10.707031 10.699218h235.902344c5.914062 0 10.707031-4.78125 10.707031-10.699218v-26.722656zm0 0"
          fill="#143c47"></path>
    <path d="m229.589844 430.234375h-62.589844c-5.917969 0-10.710938-4.792969-10.710938-10.699219v-35.898437h-27.910156c-5.914062 0-10.707031 4.792969-10.707031 10.699219v62.621093c0 5.90625 4.792969 10.699219 10.707031 10.699219h135.578125v-37.421875zm0 0"
          fill="#173c42"></path>
    <path d="m456.027344 473.222656c3.3125 3.3125 5.363281 7.886719 5.363281 12.949219 0 10.121094-8.195313 18.316406-18.316406 18.316406h-336.683594c-5.066406 0-9.640625-2.050781-12.953125-5.363281s-5.363281-7.886719-5.363281-12.953125c0-10.117187 8.195312-18.3125 18.316406-18.3125h84.582031c0-.070313 0-.132813 0-.203125.078125-13.941406 7.9375-26.019531 19.445313-32.15625-3.53125-8.585938-5.496094-17.976562-5.496094-27.832031 0-8.417969 1.421875-16.503907 4.046875-24.03125 9.9375-28.664063 37.179688-49.242188 69.238281-49.242188 32.046875 0 59.269531 20.578125 69.21875 49.242188 1.300781 3.730469 2.300781 7.59375 2.980469 11.578125 6.96875-3.203125 14.714844-4.992188 22.878906-4.992188 30.355469 0 54.957032 24.601563 54.957032 54.957032 0 8.085937-1.761719 15.761718-4.902344 22.679687h19.734375c5.066406 0 9.640625 2.050781 12.953125 5.363281zm0 0"
          fill="#76b1cb"></path>
    <path d="m147.625 486.171875c0-10.117187 8.195312-18.3125 18.316406-18.3125h-59.550781c-10.121094 0-18.316406 8.195313-18.316406 18.3125 0 5.066406 2.050781 9.640625 5.363281 12.953125s7.886719 5.363281 12.953125 5.363281h59.550781c-5.066406 0-9.640625-2.050781-12.953125-5.363281s-5.363281-7.886719-5.363281-12.953125zm0 0"
          fill="#5ba1ba"></path>
    <path d="m345.792969 250.011719v15.414062c0 2.933594-2.371094 5.304688-5.304688 5.304688h-114.496093c-2.933594 0-5.304688-2.371094-5.304688-5.304688v-15.414062c0-2.933594 2.371094-5.304688 5.304688-5.304688h114.496093c2.933594 0 5.304688 2.371094 5.304688 5.304688zm0 0"
          fill="#e6e6e6"></path>
    <path d="m220.6875 262.191406v3.234375c0 2.933594 2.371094 5.304688 5.304688 5.304688h114.496093c2.933594 0 5.304688-2.371094 5.304688-5.304688v-3.234375zm0 0"
          fill="#9daeb2"></path>
    <path d="m345.792969 165.941406v15.414063c0 2.929687-2.371094 5.304687-5.304688 5.304687h-114.496093c-2.933594 0-5.304688-2.375-5.304688-5.304687v-15.414063c0-2.933594 2.371094-5.304687 5.304688-5.304687h114.496093c2.933594 0 5.304688 2.371093 5.304688 5.304687zm0 0"
          fill="#e6e6e6"></path>
    <path d="m220.6875 178.171875v3.183594c0 2.929687 2.371094 5.304687 5.304688 5.304687h114.496093c2.933594 0 5.304688-2.375 5.304688-5.304687v-3.183594zm0 0"
          fill="#9daeb2"></path>
    <path d="m345.792969 81.871094v15.410156c0 2.933594-2.371094 5.304688-5.304688 5.304688h-114.496093c-2.933594 0-5.304688-2.371094-5.304688-5.304688v-15.410156c0-2.933594 2.371094-5.304688 5.304688-5.304688h114.496093c2.933594 0 5.304688 2.371094 5.304688 5.304688zm0 0"
          fill="#e6e6e6"></path>
    <path d="m220.6875 94.148438v3.132812c0 2.933594 2.371094 5.304688 5.304688 5.304688h114.496093c2.933594 0 5.304688-2.371094 5.304688-5.304688v-3.132812zm0 0"
          fill="#9daeb2"></path>
    <path d="m327.421875 416.59375h-62.335937c-.027344 0-.050782-.019531-.054688-.046875-.351562-2.914063-.558594-5.871094-.558594-8.878906 0-8.417969 1.421875-16.503907 4.046875-24.03125 6.636719-19.144531 20.996094-34.667969 39.347657-42.875.042968-.019531.042968-.078125 0-.097657-9.066407-4.023437-19.097657-6.269531-29.660157-6.269531-32.058593 0-59.300781 20.578125-69.238281 49.242188-2.625 7.527343-4.046875 15.613281-4.046875 24.03125 0 9.839843 1.957031 19.214843 5.480469 27.789062.007812.023438 0 .054688-.023438.066407-11.527344 6.160156-19.382812 18.292968-19.40625 32.28125.019532.019531.03125.03125.054688.054687h59.496094c0-.070313 0-.132813 0-.199219.074218-13.316406 7.253906-24.917968 17.921874-31.28125.007813-.003906.019532-.007812.027344-.007812h59.335938c5.664062 0 10.214844-4.761719 9.871094-10.5-.320313-5.285156-4.964844-9.277344-10.257813-9.277344zm0 0"
          fill="#5ba1ba"></path>
    <path d="m485.222656 72.503906-36.03125-56.046875c-1.382812-2.148437-3.761718-3.445312-6.316406-3.445312-2.550781 0-4.929688 1.296875-6.3125 3.445312l-36.03125 56.046875c-1.484375 2.3125-1.589844 5.25-.273438 7.65625 1.316407 2.410156 3.84375 3.910156 6.589844 3.910156h9.507813v66.867188h-33.863281v-8.660156c0-4-1.3125-7.691406-3.511719-10.699219 2.199219-3.011719 3.511719-6.703125 3.511719-10.703125v-62.617188c0-10.039062-8.167969-18.207031-18.210938-18.207031h-235.90625c-10.039062 0-18.207031 8.167969-18.207031 18.207031v62.617188c0 4 1.3125 7.695312 3.507812 10.703125-2.195312 3.007813-3.507812 6.699219-3.507812 10.699219v62.617187c0 4 1.3125 7.695313 3.507812 10.703125-2.195312 3.007813-3.507812 6.699219-3.507812 10.703125v3.894531h-25.078125c-4.976563 0-9.023438-4.046874-9.023438-9.023437v-78.300781c0-4.144532-3.363281-7.507813-7.507812-7.507813-4.144532 0-7.507813 3.363281-7.507813 7.507813v78.300781c0 13.253906 10.785157 24.035156 24.039063 24.035156h25.078125v25.023438h-25.078125c-27.050782 0-49.058594-22.007813-49.058594-49.058594v-160.621094c0-4.144531-3.359375-7.503906-7.507812-7.503906h-5.945313l24.960937-33.078125 24.964844 33.078125h-3.945312c-4.144532 0-7.507813 3.359375-7.507813 7.503906v52.296875c0 4.144532 3.363281 7.503906 7.507813 7.503906 4.144531 0 7.507812-3.359374 7.507812-7.503906v-44.789062h11.507813c2.847656 0 5.449219-1.609375 6.71875-4.160156 1.269531-2.550782.988281-5.597657-.726563-7.867188l-40.035156-53.046875c-1.417969-1.878906-3.636719-2.984375-5.992188-2.984375-2.355468 0-4.570312 1.105469-5.988281 2.984375l-40.035156 53.046875c-1.714844 2.269531-1.996094 5.316406-.726563 7.867188 1.269532 2.550781 3.871094 4.160156 6.71875 4.160156h13.507813v153.113281c0 35.328125 28.746094 64.070313 64.074219 64.070313h25.078125v3.671874c0 4 1.3125 7.695313 3.507812 10.703126-2.195312 3.007812-3.507812 6.699218-3.507812 10.703124v62.613282c0 4.003906 1.3125 7.695312 3.507812 10.703125-2.195312 3.007812-3.507812 6.699219-3.507812 10.703125v62.617187c0 1.160157.121093 2.292969.328125 3.390625h-4.101563c-14.238281 0-25.824219 11.585938-25.824219 25.828125 0 14.238281 11.585938 25.824219 25.824219 25.824219h336.679688c14.242187 0 25.824219-11.585938 25.824219-25.824219 0-4.398437-1.105469-8.542969-3.054688-12.171875v-179.738281c0-35.328125-28.738281-64.070313-64.070312-64.070313h-19.28125v-3.894531c0-4.003906-1.3125-7.695312-3.507813-10.703125 2.195313-3.007812 3.507813-6.703125 3.507813-10.703125v-.914062h34.617187c28.832031 0 52.292969-23.457031 52.292969-52.289063v-67.621094h9.507812c2.746094 0 5.269532-1.5 6.585938-3.910156 1.316406-2.40625 1.210937-5.34375-.273438-7.65625zm-283.929687 359.90625c-9.074219 6.726563-15.195313 16.65625-17.152344 27.742188h-55.765625c-1.761719 0-3.195312-1.433594-3.195312-3.195313v-62.617187c0-1.761719 1.433593-3.195313 3.195312-3.195313h70.75c-1.113281 5.335938-1.703125 10.859375-1.703125 16.519531 0 8.46875 1.300781 16.765626 3.871094 24.746094zm2.539062-56.277344h-75.457031c-1.761719 0-3.195312-1.433593-3.195312-3.195312v-62.617188c0-1.761718 1.433593-3.195312 3.195312-3.195312h235.90625c1.761719 0 3.195312 1.433594 3.195312 3.195312v62.617188c0 1.761719-1.433593 3.195312-3.195312 3.195312h-11.679688c-2.167968-5.152343-4.839843-10.015624-7.960937-14.527343 5.027344-1.730469 8.660156-6.496094 8.660156-12.105469v-15.417969c0-7.0625-5.746093-12.808593-12.808593-12.808593h-114.503907c-7.0625 0-12.808593 5.746093-12.808593 12.808593v15.417969c0 2.71875.859374 5.242188 2.3125 7.316406-4.734376 5.828125-8.679688 12.316406-11.660157 19.316406zm24.363281-31.839843v-8.007813h12.238282c-4.332032 2.300782-8.421875 4.988282-12.238282 8.007813zm110.089844-8.007813v11.011719h-6.304687c-4.804688-4.28125-10.117188-7.980469-15.828125-11.011719zm-21.515625-128.195312c-4.144531 0-7.507812 3.363281-7.507812 7.507812 0 4.144532 3.363281 7.507813 7.507812 7.507813h47.511719c1.761719 0 3.195312 1.433593 3.195312 3.195312v62.613281c0 1.765626-1.433593 3.195313-3.195312 3.195313h-235.90625c-1.761719 0-3.195312-1.433594-3.195312-3.195313v-62.613281c0-1.765625 1.433593-3.195312 3.195312-3.195312h158.371094c4.144531 0 7.503906-3.363281 7.503906-7.507813 0-4.144531-3.359375-7.507812-7.503906-7.507812h-158.371094c-1.761719 0-3.195312-1.433594-3.195312-3.195313v-62.617187c0-1.761719 1.433593-3.195313 3.195312-3.195313h235.90625c1.765625 0 3.199219 1.433594 3.199219 3.195313v62.617187c0 1.761719-1.433594 3.195313-3.199219 3.195313zm-191.589843-149.832032c0-1.761718 1.433593-3.195312 3.195312-3.195312h235.90625c1.761719 0 3.195312 1.433594 3.195312 3.195312v62.617188c0 1.761719-1.433593 3.195312-3.195312 3.195312h-235.90625c-1.761719 0-3.195312-1.433593-3.195312-3.195312zm317.894531 438.730469h-336.679688c-5.960937 0-10.8125-4.851562-10.8125-10.8125 0-5.960937 4.851563-10.8125 10.8125-10.8125h84.574219c4.148438 0 7.507812-3.363281 7.507812-7.507812 0-.066407.003907-.128907.007813-.195313 0 0 0 0 0-.003906.070313-10.710938 5.976563-20.480469 15.460937-25.53125 3.402344-1.8125 4.878907-5.910156 3.414063-9.480469-3.269531-7.945312-4.925781-16.351562-4.925781-24.980469 0-36.265624 29.503906-65.769531 65.769531-65.769531 17.21875 0 33.035156 6.601563 44.84375 17.589844.40625.507813.878906.957031 1.402344 1.347656 6.949219 6.859375 12.382812 15.296875 15.738281 24.828125.078125.277344.167969.550782.273438.8125 1.085937 3.222656 1.953124 6.558594 2.542968 10.003906.394532 2.300782 1.832032 4.285157 3.894532 5.371094 2.066406 1.089844 4.515624 1.15625 6.632812.1875 6.234375-2.859375 12.878906-4.3125 19.753906-4.3125 26.164063 0 47.449219 21.289063 47.449219 47.453125 0 6.804688-1.421875 13.390625-4.230469 19.578125-1.054687 2.320313-.855468 5.023438.527344 7.167969s3.757812 3.441406 6.308594 3.441406h19.730468c5.964844 0 10.8125 4.851563 10.8125 10.8125 0 5.960938-4.847656 10.8125-10.808593 10.8125zm-41.300781-251.78125c27.050781 0 49.058593 22.007813 49.058593 49.058594v167.277344c-2.453125-.777344-5.058593-1.195313-7.757812-1.195313h-9.1875c1.238281-4.929687 1.863281-10.003906 1.863281-15.171875 0-12.425781-3.660156-24.003906-9.941406-33.742187v-41.371094c0-4.144531-3.359375-7.503906-7.503906-7.503906-4.148438 0-7.507813 3.359375-7.507813 7.503906v25.203125c-8.910156-6.714844-19.667969-11.101563-31.363281-12.25 1.925781-2.886719 3.058594-6.355469 3.058594-10.082031v-62.613282c0-4.003906-1.316407-7.695312-3.511719-10.703124 2.195312-3.007813 3.511719-6.703126 3.511719-10.703126v-3.671874h19.28125c4.976562 0 9.023437 4.046874 9.023437 9.023437v45.773437c0 4.144532 3.359375 7.507813 7.507813 7.507813 4.144531 0 7.503906-3.363281 7.503906-7.507813v-45.773437c0-13.253906-10.78125-24.035156-24.035156-24.035156h-19.28125v-25.023438zm60.117187-176.148437c-4.144531 0-7.503906 3.359375-7.503906 7.507812v75.125c0 20.554688-16.722657 37.277344-37.28125 37.277344h-34.613281v-23.019531h34.613281c7.863281 0 14.261719-6.394531 14.261719-14.257813v-75.125c0-4.148437-3.363282-7.507812-7.507813-7.507812h-3.265625l22.28125-34.660156 22.28125 34.660156zm0 0"></path>
    <path d="m225.988281 110.09375h114.503907c7.0625 0 12.808593-5.746094 12.808593-12.808594v-15.417968c0-7.0625-5.746093-12.808594-12.808593-12.808594h-114.503907c-7.0625 0-12.808593 5.746094-12.808593 12.808594v15.417968c0 7.0625 5.746093 12.808594 12.808593 12.808594zm2.207031-26.023438h110.089844v11.011719h-110.089844zm0 0"></path>
    <path d="m340.492188 153.128906h-114.503907c-7.0625 0-12.808593 5.746094-12.808593 12.808594v15.417969c0 7.0625 5.746093 12.808593 12.808593 12.808593h114.503907c7.0625 0 12.808593-5.746093 12.808593-12.808593v-15.417969c0-7.0625-5.746093-12.808594-12.808593-12.808594zm-2.207032 26.023438h-110.089844v-11.007813h110.089844zm0 0"></path>
    <path d="m213.179688 250.007812v15.421876c0 7.0625 5.746093 12.808593 12.808593 12.808593h114.503907c7.0625 0 12.808593-5.746093 12.808593-12.808593v-15.421876c0-7.058593-5.746093-12.804687-12.808593-12.804687h-114.503907c-7.0625 0-12.808593 5.746094-12.808593 12.804687zm15.015624 2.207032h110.089844v11.007812h-110.089844zm0 0"></path>
    <path d="m166.140625 71.5625c0 5.25-4.257813 9.507812-9.507813 9.507812s-9.507812-4.257812-9.507812-9.507812c0-5.253906 4.257812-9.511719 9.507812-9.511719s9.507813 4.257813 9.507813 9.511719zm0 0"></path>
    <path d="m166.140625 105.589844c0 5.25-4.257813 9.507812-9.507813 9.507812s-9.507812-4.257812-9.507812-9.507812 4.257812-9.507813 9.507812-9.507813 9.507813 4.257813 9.507813 9.507813zm0 0"></path>
    <path d="m186.15625 115.597656c4.148438 0 7.507812-3.359375 7.507812-7.503906v-39.035156c0-4.144532-3.359374-7.507813-7.507812-7.507813-4.144531 0-7.503906 3.363281-7.503906 7.507813v39.035156c0 4.144531 3.359375 7.503906 7.503906 7.503906zm0 0"></path>
    <path d="m166.140625 156.632812c0 5.25-4.257813 9.507813-9.507813 9.507813s-9.507812-4.257813-9.507812-9.507813 4.257812-9.507812 9.507812-9.507812 9.507813 4.257812 9.507813 9.507812zm0 0"></path>
    <path d="m166.140625 190.660156c0 5.253906-4.257813 9.511719-9.507813 9.511719s-9.507812-4.257813-9.507812-9.511719c0-5.25 4.257812-9.507812 9.507812-9.507812s9.507813 4.257812 9.507813 9.507812zm0 0"></path>
    <path d="m186.15625 146.625c-4.144531 0-7.503906 3.359375-7.503906 7.507812v39.03125c0 4.144532 3.359375 7.507813 7.503906 7.507813 4.148438 0 7.507812-3.363281 7.507812-7.507813v-39.03125c0-4.148437-3.359374-7.507812-7.507812-7.507812zm0 0"></path>
    <path d="m166.140625 241.707031c0 5.25-4.257813 9.507813-9.507813 9.507813s-9.507812-4.257813-9.507812-9.507813c0-5.253906 4.257812-9.507812 9.507812-9.507812s9.507813 4.253906 9.507813 9.507812zm0 0"></path>
    <path d="m166.140625 275.734375c0 5.25-4.257813 9.507813-9.507813 9.507813s-9.507812-4.257813-9.507812-9.507813 4.257812-9.507813 9.507812-9.507813 9.507813 4.257813 9.507813 9.507813zm0 0"></path>
    <path d="m186.15625 231.695312c-4.144531 0-7.503906 3.363282-7.503906 7.507813v39.035156c0 4.144531 3.359375 7.503907 7.503906 7.503907 4.148438 0 7.507812-3.359376 7.507812-7.503907v-39.035156c0-4.144531-3.359374-7.507813-7.507812-7.507813zm0 0"></path>
    <path d="m166.140625 326.777344c0 5.25-4.257813 9.507812-9.507813 9.507812s-9.507812-4.257812-9.507812-9.507812 4.257812-9.507813 9.507812-9.507813 9.507813 4.257813 9.507813 9.507813zm0 0"></path>
    <path d="m166.140625 360.804688c0 5.253906-4.257813 9.511718-9.507813 9.511718s-9.507812-4.257812-9.507812-9.511718c0-5.25 4.257812-9.507813 9.507812-9.507813s9.507813 4.257813 9.507813 9.507813zm0 0"></path>
    <path d="m186.15625 316.769531c-4.144531 0-7.503906 3.359375-7.503906 7.507813v39.03125c0 4.144531 3.359375 7.507812 7.503906 7.507812 4.148438 0 7.507812-3.363281 7.507812-7.507812v-39.03125c0-4.148438-3.359374-7.507813-7.507812-7.507813zm0 0"></path>
    <path d="m166.140625 411.851562c0 5.25-4.257813 9.507813-9.507813 9.507813s-9.507812-4.257813-9.507812-9.507813c0-5.253906 4.257812-9.507812 9.507812-9.507812s9.507813 4.253906 9.507813 9.507812zm0 0"></path>
    <path d="m166.140625 445.878906c0 5.25-4.257813 9.507813-9.507813 9.507813s-9.507812-4.257813-9.507812-9.507813 4.257812-9.507812 9.507812-9.507812 9.507813 4.257812 9.507813 9.507812zm0 0"></path>
</svg>