<?xml version="1.0" encoding="UTF-8"?>
<!--
  - 2023.12.11.18:40:15
  -->

<svg xmlns="http://www.w3.org/2000/svg" viewBox="0 0 19.51 19.51">
    <defs>
        <style>
            .cls-1{fill:#e2dfe2;}.cls-2{fill:#cbcbcb;}.cls-3{fill:#665e66;}.cls-4{fill:#0363ef;}.cls-5{fill:#efefef;}.cls-6{fill:#ff394c;}.cls-7{fill:#ffbd52;}.cls-8{fill:#818181;}
        </style>
    </defs>
    <title>fast-icon</title>
    <g id="Layer_2" data-name="Layer 2">
        <g id="Layer_2-2" data-name="Layer 2">
            <circle class="cls-1" cx="9.76" cy="9.76" r="9.47"></circle>
            <path class="cls-2" d="M10.37,19.21l-.61,0A9.47,9.47,0,0,1,9.76.29h.61a9.47,9.47,0,0,0,0,18.91Z"></path>
            <circle class="cls-3" cx="9.76" cy="9.76" r="7.77"></circle>
            <path class="cls-4"
                  d="M9.76,13.78c2.57,0,4.88.79,4.88,1.77s-2.31,1.78-4.88,1.78-4.87-.8-4.87-1.78S7.19,13.78,9.76,13.78Z"></path>
            <path class="cls-5"
                  d="M9.71,3.36A6.41,6.41,0,0,0,3.36,9.79a6.3,6.3,0,0,0,1,3.38,1.16,1.16,0,0,0,1.8.2l0,0a1.15,1.15,0,0,0,.16-1.44,4,4,0,1,1,6.83,0,1.15,1.15,0,0,0,.16,1.43l0,0a1.16,1.16,0,0,0,1.8-.2A6.39,6.39,0,0,0,9.71,3.36Z"></path>
            <path class="cls-6"
                  d="M14.28,5.23,12.6,6.91a4,4,0,0,1,.57,5,1.15,1.15,0,0,0,.16,1.43l0,0a1.16,1.16,0,0,0,1.8-.2,6.39,6.39,0,0,0-.89-7.94Z"></path>
            <path class="cls-7" d="M11.14,4.76,8.35,8.82A1.7,1.7,0,1,0,11.44,9.9L11.8,5a.36.36,0,0,0-.66-.23Z"></path>
            <circle class="cls-8" cx="9.76" cy="9.76" r="0.74"></circle>
            <path d="M16.92,3.13a.29.29,0,1,0-.42.39,9.18,9.18,0,0,1,2.44,6.24,9.18,9.18,0,0,1-9.18,9.18A9.19,9.19,0,0,1,3.26,3.26,9.19,9.19,0,0,1,15.7,2.75a.28.28,0,1,0,.37-.43,9.75,9.75,0,0,0-13.21.54,9.75,9.75,0,0,0,0,13.8A9.76,9.76,0,0,0,16.92,3.13Z"></path>
            <path d="M9.76,1.7a8.06,8.06,0,1,0,8,8.06A8.07,8.07,0,0,0,9.76,1.7ZM5,15.55a7.46,7.46,0,0,1,9.46,0,7.46,7.46,0,0,1-9.46,0Zm9.89-.38a8,8,0,0,0-10.33,0,7.49,7.49,0,1,1,10.33,0Z"></path>
            <path d="M9.76,3.07h0A6.7,6.7,0,0,0,3.07,9.79a6.62,6.62,0,0,0,.2,1.6.29.29,0,0,0,.56-.14,6.42,6.42,0,0,1-.19-1.46A6.11,6.11,0,0,1,13.87,5.24L12.6,6.51A4.94,4.94,0,0,0,12,6.08L12.09,5a.66.66,0,0,0-1.19-.42h0l-.61.89-.49,0h0A4.34,4.34,0,0,0,5.44,9.72,4.34,4.34,0,0,0,6.1,12,.88.88,0,0,1,6,13.13l0,0a.86.86,0,0,1-.71.25A.89.89,0,0,1,4.58,13a5.12,5.12,0,0,1-.39-.73.29.29,0,0,0-.38-.14.28.28,0,0,0-.14.38,6.89,6.89,0,0,0,.43.8A1.46,1.46,0,0,0,5.16,14h.17a1.39,1.39,0,0,0,1-.43l0,0a1.45,1.45,0,0,0,.2-1.8,3.72,3.72,0,0,1-.56-2A3.66,3.66,0,0,1,7.14,7.09,3.73,3.73,0,0,1,9.79,6h.13L8.11,8.66a2,2,0,0,0-.15,2,2,2,0,0,0,1.79,1.12,1.9,1.9,0,0,0,.86-.2,2,2,0,0,0,1.12-1.64L12,6.73a3.75,3.75,0,0,1,1.54,3,3.8,3.8,0,0,1-.57,2,1.42,1.42,0,0,0,.2,1.78l0,0a1.41,1.41,0,0,0,1,.43h.16a1.43,1.43,0,0,0,1.06-.66A6.69,6.69,0,0,0,9.76,3.07Zm.6,8A1.41,1.41,0,0,1,8.59,9l2.78-4.06s.06,0,.09,0a.06.06,0,0,1,0,.08l-.35,4.91a1.42,1.42,0,0,1-.8,1.17Zm4.57,2a.89.89,0,0,1-.64.4.87.87,0,0,1-.72-.25l0,0a.86.86,0,0,1-.12-1.08A4.3,4.3,0,0,0,13,6.92l1.28-1.28a6.07,6.07,0,0,1,1.59,4.12A6.15,6.15,0,0,1,14.93,13Z"></path>
            <path d="M10.1,8.79A1,1,0,0,0,8.83,10.2h0a1,1,0,0,0,.59.52,1,1,0,0,0,.78,0,1,1,0,0,0,.48-1.37,1.06,1.06,0,0,0-.58-.52ZM10,10.17a.45.45,0,0,1-.34,0A.42.42,0,0,1,9.35,10a.44.44,0,0,1,.21-.6.47.47,0,0,1,.35,0,.49.49,0,0,1,.26.23.47.47,0,0,1-.22.61Z"></path>
            <path d="M8.59,14.79a.28.28,0,0,0-.29.28v1.27a.29.29,0,0,0,.58,0V15.07A.28.28,0,0,0,8.59,14.79Z"></path>
            <path d="M9.76,14.79a.28.28,0,0,0-.29.28v1.27a.29.29,0,1,0,.57,0V15.07A.28.28,0,0,0,9.76,14.79Z"></path>
            <path d="M10.92,14.79a.27.27,0,0,0-.28.28v1.27a.28.28,0,0,0,.28.29.29.29,0,0,0,.29-.29V15.07A.28.28,0,0,0,10.92,14.79Z"></path>
        </g>
    </g>
</svg>