<svg xmlns="http://www.w3.org/2000/svg" width="13" height="13" fill="none" viewBox="0 0 13 13">
  <path stroke="#fff" stroke-linecap="round" stroke-linejoin="round" d="M1.083 2.492c0-.304 0-.455.06-.571a.542.542 0 0 1 .236-.237c.116-.059.267-.059.57-.059h9.1c.304 0 .456 0 .572.059a.542.542 0 0 1 .236.237c.06.116.06.267.06.57v.363c0 .146 0 .219-.018.286a.54.54 0 0 1-.077.168c-.04.058-.095.106-.205.201L8.153 6.512c-.11.095-.165.143-.205.2a.542.542 0 0 0-.076.168c-.018.068-.018.141-.018.287v2.831c0 .106 0 .16-.017.205a.27.27 0 0 1-.072.106.612.612 0 0 1-.184.092l-1.841.736c-.2.08-.299.12-.379.103a.27.27 0 0 1-.17-.115c-.045-.068-.045-.176-.045-.39V7.167c0-.146 0-.219-.018-.287a.542.542 0 0 0-.077-.168 1.215 1.215 0 0 0-.205-.2L1.382 3.509a1.168 1.168 0 0 1-.204-.2.542.542 0 0 1-.077-.169c-.018-.067-.018-.14-.018-.286v-.362Z"/>
</svg>
