<!--
  - 2023.12.11.18:40:15
  -->

<svg id="Capa_1" enable-background="new 0 0 512 512" height="512" viewBox="0 0 512 512" width="512"
     xmlns="http://www.w3.org/2000/svg">
    <g>
        <g fill="#c9ebfa">
            <g>
                <path d="m97.5 7.5h-50-40v40 50h40v-50h50z"/>
                <path d="m414.5 7.5h50 40v40 50h-40v-50h-50z"/>
            </g>
            <g>
                <path d="m97.5 504.5h-50-40v-40-50h40v50h50z"/>
                <path d="m414.5 504.5h50 40v-40-50h-40v50h-50z"/>
            </g>
        </g>
        <path d="m256.005 456c-88.363 0-159.995-71.632-159.995-159.995v-80.01c0-88.363 71.632-159.995 159.995-159.995 88.363 0 159.995 71.632 159.995 159.995v80.01c0 88.363-71.632 159.995-159.995 159.995z"
              fill="#ffdec7"/>
        <path d="m276.01 454.76c-6.55.82-13.23 1.24-20 1.24h-.01c-88.36 0-159.99-71.63-159.99-159.99v-80.02c0-88.36 71.63-159.99 159.99-159.99h.01c6.77 0 13.45.42 20 1.24-78.92 9.83-140 77.16-140 158.75v80.02c0 81.59 61.08 148.92 140 158.75z"
              fill="#fec5a5"/>
        <g>
            <g>
                <path d="m256 463.5c-92.36 0-167.5-75.14-167.5-167.5v-9.79c0-4.142 3.358-7.5 7.5-7.5s7.5 3.358 7.5 7.5v9.79c0 84.089 68.411 152.5 152.5 152.5 19.076 0 37.675-3.475 55.279-10.329 3.86-1.505 8.208.408 9.71 4.268 1.503 3.86-.408 8.208-4.268 9.71-19.346 7.532-39.776 11.351-60.721 11.351z"/>
            </g>
            <g>
                <path d="m371.038 407.454c-3.123-2.722-3.402-7.48-.662-10.586 24.584-27.864 38.124-63.686 38.124-100.868v-23.66c0-4.142 3.358-7.5 7.5-7.5s7.5 3.358 7.5 7.5v23.66c0 40.839-14.872 80.186-41.876 110.792-1.482 1.68-6.374 4.333-10.586.662z"/>
            </g>
            <g>
                <path d="m416 247.16c-4.142 0-7.5-3.358-7.5-7.5v-23.66c0-24.47-5.931-48.792-17.152-70.335-1.914-3.673-.486-8.203 3.188-10.116s8.203-.486 10.116 3.188c12.33 23.673 18.848 50.39 18.848 77.263v23.66c0 4.142-3.358 7.5-7.5 7.5z"/>
            </g>
            <g>
                <path d="m96.011 221.83c-.026 0-.052 0-.078 0-4.142-.042-7.465-3.434-7.423-7.576.451-44.375 18.074-86.022 49.622-117.268 31.57-31.267 73.43-48.486 117.868-48.486 29.457 0 58.419 7.752 83.757 22.419 3.585 2.075 4.809 6.664 2.734 10.249s-6.664 4.809-10.249 2.734c-23.056-13.347-49.421-20.402-76.242-20.402-83.238 0-151.645 67.696-152.491 150.906-.041 4.116-3.391 7.424-7.498 7.424z"/>
            </g>
            <g>
                <path d="m376 230.71c-4.142 0-7.5-3.358-7.5-7.5v-7.21c0-62.033-50.467-112.5-112.5-112.5-6.322 0-12.626.529-18.737 1.573-4.084.693-7.958-2.047-8.656-6.13s2.047-7.958 6.13-8.656c6.943-1.185 14.096-1.787 21.263-1.787 70.304 0 127.5 57.196 127.5 127.5v7.21c0 4.142-3.358 7.5-7.5 7.5z"/>
            </g>
            <g>
                <path d="m136 247.16c-4.142 0-7.5-3.358-7.5-7.5v-23.66c0-35.065 14.715-68.96 40.373-92.994 3.023-2.833 7.77-2.677 10.601.346 2.832 3.023 2.677 7.77-.346 10.601-22.642 21.209-35.628 51.114-35.628 82.047v23.66c0 4.142-3.358 7.5-7.5 7.5z"/>
            </g>
            <g>
                <path d="m143.297 355.549c-9.68-18.216-14.797-38.808-14.797-59.549v-23.66c0-4.142 3.358-7.5 7.5-7.5s7.5 3.358 7.5 7.5v23.66c0 18.295 4.51 36.453 13.043 52.51 1.944 3.658.614 8.316-3.104 10.143-4.439 2.18-8.794-.567-10.142-3.104z"/>
            </g>
            <g>
                <path d="m256 423.5c-27.302 0-53.349-8.541-75.323-24.698-3.337-2.454-4.053-7.148-1.6-10.485 2.454-3.338 7.148-4.054 10.485-1.6 19.38 14.25 42.354 21.783 66.437 21.783 62.292 0 111.87-52.039 112.5-113.41 0-4.142 3.358-7.5 7.5-7.5s7.5 3.358 7.5 7.5c-.747 69.625-56.9 128.41-127.499 128.41z"/>
            </g>
            <g>
                <path d="m280.09 372.667c-1.593-3.823.177-8.215 3.993-9.826 26.982-11.39 44.417-37.626 44.417-66.84v-23.66c0-4.142 3.358-7.5 7.5-7.5s7.5 3.358 7.5 7.5v23.659c0 35.258-21.033 66.919-53.583 80.66-.953.402-7.5 1.59-9.827-3.993z"/>
            </g>
            <g>
                <path d="m336 247.16c-4.142 0-7.5-3.358-7.5-7.5v-23.66c0-39.977-32.523-72.5-72.5-72.5s-72.5 32.523-72.5 72.5v4.06c0 4.142-3.358 7.5-7.5 7.5s-7.5-3.358-7.5-7.5v-4.06c0-48.248 39.252-87.5 87.5-87.5s87.5 39.252 87.5 87.5v23.66c0 4.142-3.358 7.5-7.5 7.5z"/>
            </g>
            <g>
                <path d="m222.083 376.66c-32.55-13.741-53.583-45.402-53.583-80.66v-4.06c0-4.142 3.358-7.5 7.5-7.5s7.5 3.358 7.5 7.5v4.06c0 29.214 17.435 55.451 44.417 66.84 3.816 1.611 5.756 6.078 3.993 9.826-2.743 5.834-8.874 4.396-9.827 3.994z"/>
            </g>
            <g>
                <path d="m256 343.5c-26.191 0-47.5-21.309-47.5-47.5v-80c0-1.633.084-3.264.251-4.846.434-4.119 4.132-7.107 8.244-6.673 4.12.434 7.107 4.125 6.673 8.244-.111 1.063-.168 83.275-.168 83.275 0 17.92 14.58 32.5 32.5 32.5s32.5-14.58 32.5-32.5v-7.19c0-4.142 3.358-7.5 7.5-7.5s7.5 3.358 7.5 7.5v7.19c0 26.191-21.309 47.5-47.5 47.5z"/>
            </g>
            <g>
                <path d="m296 224.44c-4.142 0-7.5-3.358-7.5-7.5-.141-18.086-13.871-33.44-32.5-33.44-4.142 0-7.5-3.358-7.5-7.5s3.358-7.5 7.5-7.5c27.231 0 47.5 20.833 47.5 48.44 0 4.142-3.358 7.5-7.5 7.5z"/>
            </g>
            <g>
                <path d="m256 293.708c-4.142 0-7.5-3.358-7.5-7.5v-62.997c0-4.142 3.358-7.5 7.5-7.5s7.5 3.358 7.5 7.5v62.997c0 4.143-3.358 7.5-7.5 7.5z"/>
            </g>
            <g>
                <g>
                    <g>
                        <path d="m47.5 105h-40c-4.142 0-7.5-3.358-7.5-7.5v-90c0-4.142 3.358-7.5 7.5-7.5h90c4.142 0 7.5 3.358 7.5 7.5v40c0 4.142-3.358 7.5-7.5 7.5h-42.5v42.5c0 4.142-3.358 7.5-7.5 7.5zm-32.5-15h25v-42.5c0-4.142 3.358-7.5 7.5-7.5h42.5v-25h-75z"/>
                    </g>
                    <g>
                        <path d="m504.5 105h-40c-4.142 0-7.5-3.358-7.5-7.5v-42.5h-42.5c-4.142 0-7.5-3.358-7.5-7.5v-40c0-4.142 3.358-7.5 7.5-7.5h90c4.142 0 7.5 3.358 7.5 7.5v90c0 4.142-3.358 7.5-7.5 7.5zm-32.5-15h25v-75h-75v25h42.5c4.142 0 7.5 3.358 7.5 7.5z"/>
                    </g>
                </g>
                <g>
                    <g>
                        <path d="m97.5 512h-90c-4.142 0-7.5-3.358-7.5-7.5v-90c0-4.142 3.358-7.5 7.5-7.5h40c4.142 0 7.5 3.358 7.5 7.5v42.5h42.5c4.142 0 7.5 3.358 7.5 7.5v40c0 4.142-3.358 7.5-7.5 7.5zm-82.5-15h75v-25h-42.5c-4.142 0-7.5-3.358-7.5-7.5v-42.5h-25z"/>
                    </g>
                    <g>
                        <path d="m504.5 512h-90c-4.142 0-7.5-3.358-7.5-7.5v-40c0-4.142 3.358-7.5 7.5-7.5h42.5v-42.5c0-4.142 3.358-7.5 7.5-7.5h40c4.142 0 7.5 3.358 7.5 7.5v90c0 4.142-3.358 7.5-7.5 7.5zm-82.5-15h75v-75h-25v42.5c0 4.142-3.358 7.5-7.5 7.5h-42.5z"/>
                    </g>
                </g>
            </g>
        </g>
    </g>
</svg>