<!--
  - 2023.12.11.18:40:15
  -->

<svg xmlns="http://www.w3.org/2000/svg" viewBox="0 0 210.2 58.39">
    <defs>
        <style>.cls-1{fill:#fff;}.cls-2{fill:#0b57ff;}</style>
    </defs>
    <g id="Layer_3" data-name="Layer 3">
        <path class="cls-1"
              d="M5.32,10.59A5.14,5.14,0,0,1,1.55,9,5.08,5.08,0,0,1,0,5.32,5.12,5.12,0,0,1,1.58,1.58,5.12,5.12,0,0,1,5.32,0,5.24,5.24,0,0,1,9.1,1.58a5.07,5.07,0,0,1,1.61,3.74A5.08,5.08,0,0,1,9.16,9,5.25,5.25,0,0,1,5.32,10.59Zm4.74,4.68V45.46H.58V15.27Z"/>
        <path class="cls-1" d="M26.91,2.16v43.3H17.43V3.63Z"/>
        <path class="cls-1" d="M43.76,2.16v43.3H34.28V3.63Z"/>
        <path class="cls-1"
              d="M60.37,15.27V32.88a5.86,5.86,0,0,0,1.38,4.06,4.61,4.61,0,0,0,3.66,1.55,6.22,6.22,0,0,0,2.77-.61A6.48,6.48,0,0,0,70.44,36V15.27h9.47V45.46H70.44V40.54a12.37,12.37,0,0,1-4.19,4,10.63,10.63,0,0,1-5.35,1.37A9.61,9.61,0,0,1,53.7,43a10.2,10.2,0,0,1-2.8-7.4V15.27Z"/>
        <path class="cls-1"
              d="M84.83,42.36,89,36a33.87,33.87,0,0,0,5.38,2.37,14.52,14.52,0,0,0,4.33.67,6.31,6.31,0,0,0,3.16-.67A2,2,0,0,0,103,36.62a1.68,1.68,0,0,0-.67-1.4,4.67,4.67,0,0,0-2.14-.76L94.42,33.4a12.39,12.39,0,0,1-6.64-3,7.7,7.7,0,0,1-2.25-5.73,8.69,8.69,0,0,1,3.36-7.25q3.38-2.64,9.28-2.64a23.13,23.13,0,0,1,6.26.88,26.55,26.55,0,0,1,6,2.57l-4.33,6a21.86,21.86,0,0,0-4.41-1.93,14.66,14.66,0,0,0-4.25-.64,5.38,5.38,0,0,0-2.66.55,1.72,1.72,0,0,0-1,1.55,1.6,1.6,0,0,0,.67,1.41,6.57,6.57,0,0,0,2.43.76l5.67,1A13,13,0,0,1,109.4,30a7.33,7.33,0,0,1,2.28,5.65,9,9,0,0,1-1,4.12A9.82,9.82,0,0,1,108,43.09a13.54,13.54,0,0,1-4.16,2.16,16.25,16.25,0,0,1-5.15.79A30.28,30.28,0,0,1,91,45.11,19.64,19.64,0,0,1,84.83,42.36Z"/>
        <path class="cls-1"
              d="M153.68,45.46V15.27h9.48v6.84a14.86,14.86,0,0,1,3.48-5.58,6.78,6.78,0,0,1,4.71-1.85,10.18,10.18,0,0,1,1.64.21,8,8,0,0,1,1.52.55v8.14a9.85,9.85,0,0,0-2-.68,11.24,11.24,0,0,0-2.4-.26,8,8,0,0,0-3.94,1,8.34,8.34,0,0,0-3,2.72V45.46Z"/>
        <path class="cls-1"
              d="M187.21,47.15l.46-1.11L176.56,15.27H187l6,19.48L200,15.27H210.2L196.62,49q-2.1,5.14-5.06,7.28c-2,1.42-4.69,2.14-8.16,2.14a17.56,17.56,0,0,1-1.9-.12,16.61,16.61,0,0,1-2-.35V50c1,.12,1.62.19,1.93.21l.88,0a5.73,5.73,0,0,0,3.13-.77A4.52,4.52,0,0,0,187.21,47.15Z"/>
        <circle cx="131.96" cy="30.16" r="5.93"/>
        <path class="cls-1"
              d="M132.07,14.35a15.82,15.82,0,1,0,15.82,15.81h0A15.81,15.81,0,0,0,132.07,14.35Zm0,26.17a10.36,10.36,0,0,1,0-20.71,10.19,10.19,0,0,1,6.49,2.34.55.55,0,0,1-.69.84,9.28,9.28,0,0,0-2.37-1.39,4.44,4.44,0,0,0-3.39,3.64.55.55,0,0,1,.56.53.55.55,0,0,1-.52.57h0A4.39,4.39,0,0,0,135.75,30a.56.56,0,0,1,.57-.53.55.55,0,0,1,.52.53,4.44,4.44,0,0,0,3.65-3.39,9.54,9.54,0,0,0-1.38-2.37.54.54,0,1,1,.76-.78h0l.07.09A10.1,10.1,0,0,1,142.2,30a10.35,10.35,0,0,1-10.13,10.35Z"/>
        <path class="cls-2"
              d="M122.54,30.39c0,5.64,5.38,9.74,10.29,9.26,4.57-.44,7.3-4.39,7.57-4.86a9.86,9.86,0,0,0,1-4.63,8.89,8.89,0,0,0-.85-3.74A4.74,4.74,0,0,1,136.84,30v.18a4.71,4.71,0,0,1-4.7,4.89,4.92,4.92,0,0,1,0-9.84h0a4.45,4.45,0,0,1,3.35-3.69,9,9,0,0,0-3.42-.73A9.8,9.8,0,0,0,122.54,30.39Z"/>
        <path d="M140.16,23.68a.55.55,0,1,0-.91.6l.07.09a9.21,9.21,0,0,1,2.05,5.79,9.3,9.3,0,1,1-9.3-9.29,9.21,9.21,0,0,1,5.79,2.05.55.55,0,0,0,.72-.29.57.57,0,0,0,0-.48,10.21,10.21,0,0,0-6.49-2.26,10.35,10.35,0,1,0,10.35,10.35v-.08A10.05,10.05,0,0,0,140.16,23.68Z"/>
    </g>
</svg>