<svg xmlns="http://www.w3.org/2000/svg" width="83" height="18" fill="none" viewBox="0 0 83 18">
  <rect width="15.39" height="15.39" y=".575" fill="url(#a)" rx="7.695"/>
  <path fill="#010101" d="M7.687 12.275c2.183 0 3.953-1.783 3.953-3.982 0-2.2-1.77-3.983-3.953-3.983S3.734 6.093 3.734 8.293s1.77 3.982 3.953 3.982Z"/>
  <path fill="#0A0A0A" fill-rule="evenodd" d="M7.688 10.784c1.348 0 2.464-1.104 2.464-2.494a2.477 2.477 0 0 0-2.464-2.493c-1.35 0-2.464 1.103-2.464 2.493s1.114 2.494 2.464 2.494Zm0 1.624c2.257 0 4.088-1.845 4.088-4.118 0-2.273-1.831-4.117-4.088-4.117C5.432 4.173 3.6 6.017 3.6 8.29c0 2.273 1.832 4.118 4.088 4.118Z" clip-rule="evenodd"/>
  <path fill="url(#b)" fill-rule="evenodd" d="M7.688 10.803c1.357 0 2.48-1.113 2.48-2.51 0-1.397-1.123-2.51-2.48-2.51s-2.48 1.113-2.48 2.51c0 1.397 1.123 2.51 2.48 2.51Zm0 1.637c2.273 0 4.118-1.857 4.118-4.147S9.96 4.146 7.688 4.146c-2.273 0-4.118 1.858-4.118 4.147 0 2.29 1.845 4.148 4.118 4.148Z" clip-rule="evenodd"/>
  <path fill="#fff" d="M9.588 6.696a1.186 1.186 0 1 0 0-2.372 1.186 1.186 0 0 0 0 2.372Z"/>
  <path fill="url(#c)" d="M21.647 2.938c-.414 0-.752-.117-1.014-.351a1.23 1.23 0 0 1-.393-.932c0-.386.124-.696.372-.93.262-.25.607-.373 1.035-.373.4 0 .724.124.972.372.248.235.373.545.373.931 0 .373-.131.683-.393.932-.249.234-.566.351-.952.351Zm-1.18 1.532h2.297v10.14h-2.297V4.47Z"/>
  <path fill="url(#d)" d="M24.913 0h2.297v14.61h-2.297V0Z"/>
  <path fill="url(#e)" d="M29.359 0h2.296v14.61H29.36V0Z"/>
  <path fill="url(#f)" d="M43.075 4.47v10.14h-.644l-1.438-1.378c-.704.952-1.953 1.646-3.36 1.646-1.242 0-2.208-.352-2.898-1.055-.675-.704-1.013-1.731-1.013-3.083V4.47h2.276v5.814c0 .91.186 1.58.559 2.008.386.427.958.641 1.717.641.814 0 1.435-.234 1.862-.704.442-.468.663-1.151.663-2.048V4.47h2.276Z"/>
  <path fill="url(#g)" d="M49.05 14.92c-1.02 0-1.876-.166-2.566-.497a3.026 3.026 0 0 1-1.47-1.49c-.22-.483-.33-1.048-.33-1.697h2.235c0 .386.069.71.207.973.303.662.958.993 1.965.993 1.008 0 1.628-.262 1.863-.786a1.385 1.385 0 0 0 0-1.055 1.1 1.1 0 0 0-.476-.497 3.013 3.013 0 0 0-.787-.31c-.303-.097-.738-.2-1.303-.311-.773-.18-1.428-.414-1.966-.704-.538-.303-.924-.717-1.159-1.241-.138-.317-.207-.69-.207-1.118 0-.455.083-.855.249-1.2.262-.565.717-1 1.365-1.303.649-.318 1.428-.476 2.339-.476.924 0 1.703.151 2.338.455.648.303 1.117.752 1.407 1.345.18.414.27.91.27 1.49H50.85c0-.304-.055-.586-.165-.849a1.324 1.324 0 0 0-.662-.62c-.29-.152-.642-.228-1.056-.228-.841 0-1.372.228-1.593.683a1.178 1.178 0 0 0-.083.476c0 .18.028.317.083.414.096.22.269.4.517.538.249.138.51.248.787.33.29.07.71.166 1.262.29.855.221 1.552.483 2.09.787.552.29.952.697 1.2 1.22.138.318.207.697.207 1.139 0 .483-.083.931-.248 1.345-.29.62-.807 1.097-1.552 1.428-.731.317-1.594.476-2.587.476Z"/>
  <path fill="url(#h)" d="M59.782 14.857c-1.16 0-2.139-.24-2.939-.724a4.413 4.413 0 0 1-1.78-2.007c-.344-.731-.517-1.593-.517-2.587 0-.993.173-1.862.518-2.607a4.413 4.413 0 0 1 1.78-2.007c.8-.483 1.779-.724 2.938-.724 1.158 0 2.138.241 2.938.724a4.38 4.38 0 0 1 1.8 2.007c.345.773.518 1.642.518 2.607 0 .938-.173 1.808-.518 2.608a4.38 4.38 0 0 1-1.8 2.007c-.8.469-1.78.704-2.938.704Zm0-1.924c.62 0 1.138-.124 1.552-.372a2.4 2.4 0 0 0 .951-1.076c.207-.47.31-1.118.31-1.946 0-.841-.103-1.49-.31-1.945a2.266 2.266 0 0 0-.951-1.076c-.414-.248-.932-.372-1.552-.372-.621 0-1.138.124-1.552.372a2.3 2.3 0 0 0-.932 1.076c-.22.483-.33 1.132-.33 1.945 0 .8.11 1.449.33 1.946.207.455.518.814.932 1.076.414.248.93.372 1.552.372Z"/>
  <path fill="url(#i)" d="M71.67 4.325c.4 0 .744.041 1.034.124v2.028a4.688 4.688 0 0 0-1.035-.104c-.883 0-1.552.27-2.007.807C69.22 7.705 69 8.47 69 9.477v5.132h-2.297V4.47h2.276v1.18c.593-.883 1.49-1.324 2.69-1.324Z"/>
  <path fill="url(#j)" d="m83 4.47-5.467 13.08h-.575v-4.534L73.206 4.47h2.545l2.645 6.083L80.41 4.47H83Z"/>
  <defs>
    <linearGradient id="a" x1="9.856" x2="15.39" y1="10.246" y2="15.965" gradientUnits="userSpaceOnUse">
      <stop/>
      <stop offset=".5" stop-color="#33353B"/>
      <stop offset="1" stop-color="#626570"/>
    </linearGradient>
    <linearGradient id="b" x1="6.242" x2="8.999" y1="10.695" y2="6.116" gradientUnits="userSpaceOnUse">
      <stop stop-color="#00C2FF"/>
      <stop offset="1" stop-color="#112141" stop-opacity=".23"/>
    </linearGradient>
    <linearGradient id="c" x1="43.295" x2="43.5" y1="8.632" y2="13.573" gradientUnits="userSpaceOnUse">
      <stop stop-color="#fff"/>
      <stop offset="1" stop-color="#C1C1C1"/>
    </linearGradient>
    <linearGradient id="d" x1="43.295" x2="43.5" y1="8.632" y2="13.573" gradientUnits="userSpaceOnUse">
      <stop stop-color="#fff"/>
      <stop offset="1" stop-color="#C1C1C1"/>
    </linearGradient>
    <linearGradient id="e" x1="43.295" x2="43.5" y1="8.632" y2="13.573" gradientUnits="userSpaceOnUse">
      <stop stop-color="#fff"/>
      <stop offset="1" stop-color="#C1C1C1"/>
    </linearGradient>
    <linearGradient id="f" x1="43.295" x2="43.5" y1="8.632" y2="13.573" gradientUnits="userSpaceOnUse">
      <stop stop-color="#fff"/>
      <stop offset="1" stop-color="#C1C1C1"/>
    </linearGradient>
    <linearGradient id="g" x1="43.295" x2="43.5" y1="8.632" y2="13.573" gradientUnits="userSpaceOnUse">
      <stop stop-color="#fff"/>
      <stop offset="1" stop-color="#C1C1C1"/>
    </linearGradient>
    <linearGradient id="h" x1="43.295" x2="43.5" y1="8.632" y2="13.573" gradientUnits="userSpaceOnUse">
      <stop stop-color="#fff"/>
      <stop offset="1" stop-color="#C1C1C1"/>
    </linearGradient>
    <linearGradient id="i" x1="43.295" x2="43.5" y1="8.632" y2="13.573" gradientUnits="userSpaceOnUse">
      <stop stop-color="#fff"/>
      <stop offset="1" stop-color="#C1C1C1"/>
    </linearGradient>
    <linearGradient id="j" x1="43.295" x2="43.5" y1="8.632" y2="13.573" gradientUnits="userSpaceOnUse">
      <stop stop-color="#fff"/>
      <stop offset="1" stop-color="#C1C1C1"/>
    </linearGradient>
  </defs>
</svg>
