<?xml version="1.0" encoding="utf-8"?>
<!--
  - 2023.12.11.18:40:15
  -->

<!-- Generator: Adobe Illustrator 24.3.0, SVG Export Plug-In . SVG Version: 6.00 Build 0)  -->
<svg version="1.1" id="Layer_1" xmlns="http://www.w3.org/2000/svg" xmlns:xlink="http://www.w3.org/1999/xlink" x="0px"
     y="0px"
     viewBox="0 0 57.3 15.9" style="enable-background:new 0 0 57.3 15.9;" xml:space="preserve">
<style type="text/css">
	.st0{fill:#FFFFFF;}
	.st1{fill:#0B57FF;}
</style>
    <g id="Layer_2_1_">
	<g id="Layer_2-2">
		<path class="st0" d="M1.5,2.9c-0.4,0-0.7-0.2-1-0.4C0.2,2.2,0,1.8,0,1.5c0-0.4,0.2-0.7,0.4-1C0.7,0.2,1.1,0,1.5,0
			c0.4,0,0.7,0.2,1,0.4c0.3,0.3,0.4,0.6,0.4,1c0,0.4-0.1,0.7-0.4,1C2.2,2.7,1.8,2.9,1.5,2.9z M2.7,4.2v8.2H0.2V4.2H2.7z"/>
        <path class="st0" d="M7.3,0.6v11.8H4.8V1L7.3,0.6z"/>
        <path class="st0" d="M11.9,0.6v11.8H9.3V1L11.9,0.6z"/>
        <path class="st0" d="M16.5,4.2V9c0,0.4,0.1,0.8,0.4,1.1c0.3,0.3,0.6,0.4,1,0.4c0.3,0,0.5-0.1,0.8-0.2c0.2-0.1,0.5-0.3,0.6-0.5V4.2
			h2.6v8.2h-2.6v-1.3c-0.3,0.4-0.7,0.8-1.1,1.1c-0.4,0.3-0.9,0.4-1.5,0.4c-0.7,0-1.5-0.3-2-0.8c-0.5-0.5-0.8-1.3-0.8-2V4.2H16.5z"/>
        <path class="st0" d="M23.1,11.5l1.1-1.7c0.5,0.3,1,0.5,1.5,0.6c0.4,0.1,0.8,0.2,1.2,0.2c0.3,0,0.6,0,0.9-0.2
			c0.2-0.1,0.3-0.3,0.3-0.5c0-0.2-0.1-0.3-0.2-0.4c-0.2-0.1-0.4-0.2-0.6-0.2l-1.6-0.3c-0.7-0.1-1.3-0.4-1.8-0.8
			c-0.4-0.4-0.6-1-0.6-1.6c0-0.8,0.3-1.5,0.9-2C25,4.2,25.9,3.9,26.8,4c0.6,0,1.2,0.1,1.7,0.2C29,4.4,29.6,4.7,30.1,5l-1.2,1.6
			c-0.4-0.2-0.8-0.4-1.2-0.5C27.3,6,27,5.9,26.6,5.9c-0.2,0-0.5,0-0.7,0.2c-0.2,0.1-0.3,0.4-0.2,0.6c0,0.1,0.1,0.1,0.1,0.2
			C26,7,26.2,7,26.4,7.1L28,7.3c0.7,0.1,1.3,0.4,1.9,0.8c0.4,0.4,0.6,1,0.6,1.5c0,0.4-0.1,0.8-0.3,1.1c-0.2,0.4-0.4,0.7-0.7,0.9
			c-0.3,0.3-0.7,0.5-1.1,0.6c-0.5,0.2-0.9,0.2-1.4,0.2c-0.7,0-1.4-0.1-2.1-0.3C24.2,12.1,23.6,11.9,23.1,11.5z"/>
        <path class="st0" d="M41.9,12.4V4.2h2.6V6c0.2-0.6,0.6-1.1,1-1.5C45.8,4.2,46.2,4,46.7,4c0.2,0,0.3,0,0.5,0.1
			c0.1,0,0.3,0.1,0.4,0.2v2.2c-0.2-0.1-0.4-0.1-0.6-0.2c-0.2,0-0.4-0.1-0.7-0.1c-0.4,0-0.8,0.1-1.1,0.3c-0.3,0.2-0.6,0.4-0.8,0.7
			v5.2L41.9,12.4z"/>
        <path class="st0" d="M51,12.9l0.1-0.3l-3-8.4H51l1.7,5.3l1.8-5.3h2.8l-3.7,9.2c-0.3,0.8-0.7,1.5-1.4,2c-0.7,0.4-1.4,0.6-2.2,0.6
			h-0.5c-0.2,0-0.4,0-0.5-0.1v-2.2l0.5,0.1h0.2c0.3,0,0.6-0.1,0.9-0.2C50.8,13.3,50.9,13.1,51,12.9z"/>
        <path class="st0" d="M35.9,3.9c-2.4,0-4.3,1.9-4.3,4.3s1.9,4.3,4.3,4.3s4.3-1.9,4.3-4.3l0,0C40.2,5.8,38.3,3.9,35.9,3.9z M35.9,11
			C34.3,11,33,9.8,33,8.2s1.3-2.8,2.8-2.8c0.6,0,1.3,0.2,1.8,0.6c0.1,0.1,0.1,0.2,0,0.2c-0.1,0-0.1,0.1-0.2,0
			c-0.2-0.2-0.4-0.3-0.7-0.4c-0.5,0.1-0.9,0.5-0.9,1C36,6.8,36,6.9,36,7S36,7.2,35.9,7.2c0.1,0.5,0.5,0.9,1,1C36.9,8.1,37,8,37,8
			c0.1,0,0.1,0.1,0.1,0.1c0.5-0.1,0.9-0.4,1-0.9C38.1,7,38,6.8,37.8,6.6c-0.1-0.1-0.1-0.2,0-0.2c0.1-0.1,0.2-0.1,0.2,0c0,0,0,0,0,0
			c0.4,0.5,0.6,1.1,0.6,1.8C38.7,9.7,37.4,11,35.9,11L35.9,11z"/>
        <path class="st1" d="M33.2,8.2c0.1,1.5,1.3,2.6,2.8,2.5c1.3-0.1,2.4-1.2,2.5-2.5c0-0.3-0.1-0.7-0.2-1c-0.1,0.5-0.5,0.9-1,1l0,0
			c0,0.8-0.6,1.4-1.4,1.4c-0.8,0-1.4-0.6-1.4-1.4c0-0.8,0.6-1.4,1.4-1.4l0,0l0,0c0.1-0.5,0.5-0.9,1-1c-0.3-0.1-0.6-0.2-1-0.2
			C34.4,5.6,33.2,6.8,33.2,8.2z"/>
        <path d="M34.6,8.3c0,0.7,0.6,1.3,1.3,1.3c0.7,0,1.3-0.6,1.3-1.3l0,0c-0.6-0.1-1.1-0.6-1.2-1.2l0,0c-0.7-0.1-1.3,0.4-1.3,1.1
			C34.6,8.3,34.6,8.3,34.6,8.3z"/>
        <path d="M38.1,6.4c0-0.1-0.1-0.1-0.2,0c-0.1,0-0.1,0.1,0,0.2c0,0,0,0,0,0C38,6.8,38.2,7,38.3,7.3c0.1,0.3,0.2,0.6,0.2,0.9
			c0,1.4-1.1,2.6-2.5,2.5c-1.4,0-2.5-1.1-2.5-2.6s1.1-2.5,2.5-2.5l0,0c0.3,0,0.6,0.1,0.9,0.2c0.2,0.1,0.5,0.2,0.7,0.4
			c0.1,0,0.2,0,0.2-0.1c0,0,0-0.1,0-0.1c-0.5-0.4-1.1-0.6-1.8-0.6c-1.6,0-2.8,1.3-2.8,2.8c0,1.6,1.3,2.8,2.8,2.8
			c1.6,0,2.8-1.3,2.8-2.8c0,0,0,0,0,0C38.7,7.6,38.5,6.9,38.1,6.4z"/>
        <path d="M34.4,8.3c0.1,0.9,0.8,1.5,1.6,1.4c0.7-0.1,1.3-0.7,1.3-1.4l0,0c0-0.1-0.1-0.2-0.2-0.2c-0.1,0-0.2,0.1-0.2,0.2l0,0
			c0,0.6-0.5,1.2-1.1,1.2c-0.6,0-1.1-0.5-1.1-1.2c0-0.6,0.5-1.2,1.1-1.2l0,0c0.1,0,0.2-0.1,0.2-0.2c0-0.1-0.1-0.2-0.2-0.2l0,0
			C35.1,6.7,34.5,7.4,34.4,8.3C34.4,8.3,34.4,8.3,34.4,8.3z"/>
	</g>
</g>
</svg>
