<!--
  - 2023.12.11.18:40:15
  -->

<svg height="512" viewBox="0 0 128 128" width="512" xmlns="http://www.w3.org/2000/svg">
    <g>
        <path d="m64.854 55.324 13.643-49.018-51.206 66.37h35.855l-13.642 49.018 51.205-66.37z" fill="#f7b634"/>
        <g fill="#090e3f">
            <path d="m68.337 99.031a1.75 1.75 0 0 1 -1.384-2.819l30.2-39.139h-32.299a1.75 1.75 0 0 1 -1.687-2.219l11.241-40.382-9.431 12.228a1.75 1.75 0 1 1 -2.772-2.138l14.906-19.325a1.751 1.751 0 0 1 3.072 1.539l-13.026 46.8h33.552a1.751 1.751 0 0 1 1.386 2.82l-32.371 41.955a1.749 1.749 0 0 1 -1.387.68z"/>
            <path d="m49.5 123.443a1.75 1.75 0 0 1 -1.685-2.219l13.026-46.8h-33.55a1.751 1.751 0 0 1 -1.386-2.82l23.25-30.135a1.75 1.75 0 0 1 2.772 2.138l-21.076 27.32h32.3a1.75 1.75 0 0 1 1.687 2.219l-11.246 40.382 9.022-11.693a1.751 1.751 0 0 1 2.772 2.139l-14.5 18.789a1.751 1.751 0 0 1 -1.386.68z"/>
            <path d="m55.565 37.777a1.75 1.75 0 0 1 -1.384-2.819l2.743-3.558a1.751 1.751 0 0 1 2.776 2.14l-2.748 3.56a1.749 1.749 0 0 1 -1.387.677z"/>
            <path d="m38.042 39.793a1.741 1.741 0 0 1 -1.237-.513l-2.42-2.421a1.75 1.75 0 0 1 2.475-2.474l2.42 2.421a1.75 1.75 0 0 1 -1.238 2.987z"/>
            <path d="m30.789 32.539a1.745 1.745 0 0 1 -1.238-.513l-7.583-7.584a1.749 1.749 0 1 1 2.474-2.474l7.584 7.584a1.75 1.75 0 0 1 -1.237 2.987z"/>
            <path d="m92.378 94.128a1.741 1.741 0 0 1 -1.237-.513l-2.42-2.42a1.749 1.749 0 0 1 2.479-2.474l2.42 2.42a1.75 1.75 0 0 1 -1.237 2.987z"/>
            <path d="m104.8 106.546a1.745 1.745 0 0 1 -1.237-.513l-7.583-7.584a1.749 1.749 0 1 1 2.474-2.474l7.584 7.584a1.75 1.75 0 0 1 -1.238 2.987z"/>
            <path d="m89.958 39.793a1.751 1.751 0 0 1 -1.238-2.987l2.42-2.421a1.75 1.75 0 0 1 2.476 2.474l-2.416 2.421a1.745 1.745 0 0 1 -1.242.513z"/>
            <path d="m97.212 32.539a1.75 1.75 0 0 1 -1.237-2.987l7.583-7.584a1.75 1.75 0 1 1 2.475 2.474l-7.584 7.584a1.741 1.741 0 0 1 -1.237.513z"/>
            <path d="m35.623 94.128a1.75 1.75 0 0 1 -1.238-2.987l2.42-2.42a1.75 1.75 0 1 1 2.475 2.479l-2.42 2.42a1.745 1.745 0 0 1 -1.237.508z"/>
            <path d="m23.205 106.546a1.75 1.75 0 0 1 -1.237-2.987l7.583-7.584a1.75 1.75 0 1 1 2.475 2.474l-7.584 7.584a1.741 1.741 0 0 1 -1.237.513z"/>
            <path d="m107.864 90.386a1.745 1.745 0 0 1 -.856-.225l-11.858-6.661a1.75 1.75 0 1 1 1.714-3.051l11.858 6.659a1.75 1.75 0 0 1 -.858 3.276z"/>
            <path d="m31.992 47.774a1.744 1.744 0 0 1 -.856-.224l-11.858-6.66a1.75 1.75 0 1 1 1.714-3.051l11.858 6.661a1.749 1.749 0 0 1 -.858 3.275z"/>
            <path d="m39.363 109.616a1.75 1.75 0 0 1 -1.525-2.606l6.662-11.86a1.749 1.749 0 0 1 3.051 1.713l-6.66 11.86a1.748 1.748 0 0 1 -1.528.893z"/>
            <path d="m81.975 33.743a1.75 1.75 0 0 1 -1.524-2.606l6.659-11.859a1.75 1.75 0 0 1 3.052 1.713l-6.662 11.859a1.748 1.748 0 0 1 -1.525.893z"/>
            <path d="m20.136 90.386a1.75 1.75 0 0 1 -.858-3.276l11.858-6.659a1.75 1.75 0 1 1 1.714 3.049l-11.858 6.661a1.748 1.748 0 0 1 -.856.225z"/>
            <path d="m96.008 47.774a1.749 1.749 0 0 1 -.858-3.274l11.858-6.66a1.75 1.75 0 1 1 1.714 3.051l-11.858 6.659a1.744 1.744 0 0 1 -.856.224z"/>
            <path d="m88.637 109.616a1.748 1.748 0 0 1 -1.527-.893l-6.66-11.86a1.749 1.749 0 1 1 3.05-1.713l6.661 11.86a1.75 1.75 0 0 1 -1.525 2.606z"/>
            <path d="m46.025 33.743a1.748 1.748 0 0 1 -1.525-.893l-6.66-11.859a1.75 1.75 0 0 1 3.052-1.713l6.659 11.859a1.75 1.75 0 0 1 -1.524 2.606z"/>
        </g>
    </g>
</svg>