<!--
  - 2023.12.11.18:40:15
  -->

<svg height="512pt" viewBox="0 -92 512 512" width="512pt" xmlns="http://www.w3.org/2000/svg">
    <path d="m493.699219 172.414062h-475.398438c-5.964843 0-10.800781-4.835937-10.800781-10.800781v-143.3125c0-5.964843 4.835938-10.800781 10.800781-10.800781h475.398438c5.964843 0 10.800781 4.835938 10.800781 10.800781v143.3125c0 5.964844-4.835938 10.800781-10.800781 10.800781zm0 0"
          fill="#24d3b5"/>
    <path d="m493.699219 7.5h-29.199219v92.195312c0 29.117188-23.605469 52.71875-52.722656 52.71875h-404.277344v9.199219c0 5.964844 4.835938 10.800781 10.800781 10.800781h475.398438c5.964843 0 10.800781-4.835937 10.800781-10.800781v-143.3125c0-5.964843-4.835938-10.800781-10.800781-10.800781zm0 0"
          fill="#20b7a1"/>
    <path d="m92.199219 68.886719h13.558593c1.726563 0 3.128907 1.398437 3.128907 3.128906v57.371094c0 1.726562-1.402344 3.128906-3.128907 3.128906h-57.371093c-1.730469 0-3.128907-1.402344-3.128907-3.128906v-57.371094c0-1.730469 1.398438-3.128906 3.128907-3.128906h13.554687c1.019532 0 1.84375-.828125 1.84375-1.84375v-16.515625c0-1.726563 1.402344-3.128906 3.132813-3.128906h20.308593c1.726563 0 3.128907 1.402343 3.128907 3.128906v16.515625c0 1.015625.824219 1.84375 1.84375 1.84375zm95.210937-1.84375v-16.515625c0-1.726563-1.402344-3.128906-3.132812-3.128906h-20.304688c-1.730468 0-3.132812 1.402343-3.132812 3.128906v16.515625c0 1.019531-.824219 1.84375-1.84375 1.84375h-13.554688c-1.730468 0-3.132812 1.398437-3.132812 3.128906v57.371094c0 1.726562 1.402344 3.128906 3.132812 3.128906h57.367188c1.730468 0 3.132812-1.402344 3.132812-3.128906v-57.371094c0-1.730469-1.402344-3.128906-3.132812-3.128906h-13.554688c-1.019531 0-1.84375-.828125-1.84375-1.84375zm97.054688 0v-16.515625c0-1.726563-1.402344-3.128906-3.128906-3.128906h-20.308594c-1.730469 0-3.132813 1.402343-3.132813 3.128906v16.515625c0 1.019531-.824219 1.84375-1.84375 1.84375h-13.554687c-1.730469 0-3.132813 1.398437-3.132813 3.128906v57.371094c0 1.726562 1.402344 3.128906 3.132813 3.128906h57.367187c1.730469 0 3.132813-1.402344 3.132813-3.128906v-57.371094c0-1.730469-1.402344-3.128906-3.132813-3.128906h-13.554687c-1.019532 0-1.84375-.828125-1.84375-1.84375zm97.054687 0v-16.515625c0-1.726563-1.402343-3.128906-3.128906-3.128906h-20.308594c-1.730469 0-3.132812 1.402343-3.132812 3.128906v16.515625c0 1.019531-.824219 1.84375-1.84375 1.84375h-13.554688c-1.730469 0-3.128906 1.398437-3.128906 3.128906v57.371094c0 1.726562 1.398437 3.128906 3.128906 3.128906h57.371094c1.726563 0 3.128906-1.402344 3.128906-3.128906v-57.371094c0-1.730469-1.402343-3.128906-3.128906-3.128906h-13.558594c-1.019531 0-1.84375-.828125-1.84375-1.84375zm0 0"
          fill="#def4f8"/>
    <g fill="#bce8f1">
        <path d="m202.8125 68.886719h-13.558594c-1.019531 0-1.84375-.828125-1.84375-1.84375v-16.515625c0-1.726563-1.402344-3.128906-3.128906-3.128906h-20.308594c-1.125 0-2.101562.597656-2.65625 1.488281h11.492188c1.730468 0 3.132812 1.398437 3.132812 3.128906v57.371094c0 1.726562-1.402344 3.128906-3.132812 3.128906h-30.5v16.871094c0 1.726562 1.402344 3.128906 3.132812 3.128906h57.367188c1.730468 0 3.132812-1.402344 3.132812-3.128906v-57.371094c0-1.730469-1.402344-3.128906-3.128906-3.128906zm0 0"/>
        <path d="m105.757812 68.886719h-13.558593c-1.019531 0-1.84375-.828125-1.84375-1.84375v-16.515625c0-1.726563-1.402344-3.128906-3.128907-3.128906h-20.308593c-1.125 0-2.101563.597656-2.65625 1.488281h11.492187c1.730469 0 3.132813 1.398437 3.132813 3.128906v57.371094c0 1.726562-1.402344 3.128906-3.132813 3.128906h-30.5v16.871094c0 1.726562 1.402344 3.128906 3.132813 3.128906h57.367187c1.730469 0 3.132813-1.402344 3.132813-3.128906v-57.371094c0-1.730469-1.402344-3.128906-3.128907-3.128906zm0 0"/>
        <path d="m299.867188 68.886719h-13.558594c-1.019532 0-1.84375-.828125-1.84375-1.84375v-16.515625c0-1.726563-1.402344-3.128906-3.128906-3.128906h-20.308594c-1.125 0-2.101563.597656-2.652344 1.488281h11.492188c1.726562 0 3.128906 1.398437 3.128906 3.128906v57.371094c0 1.726562-1.402344 3.128906-3.128906 3.128906h-30.5v16.871094c0 1.726562 1.398437 3.128906 3.128906 3.128906h57.371094c1.726562 0 3.128906-1.402344 3.128906-3.128906v-57.371094c0-1.730469-1.402344-3.128906-3.128906-3.128906zm0 0"/>
        <path d="m396.921875 68.886719h-13.558594c-1.019531 0-1.84375-.828125-1.84375-1.84375v-16.515625c0-1.726563-1.402343-3.128906-3.128906-3.128906h-20.308594c-1.125 0-2.101562.597656-2.652343 1.488281h11.492187c1.726563 0 3.128906 1.398437 3.128906 3.128906v57.371094c0 1.726562-1.402343 3.128906-3.128906 3.128906h-30.5v16.871094c0 1.726562 1.398437 3.128906 3.128906 3.128906h57.371094c1.726563 0 3.128906-1.402344 3.128906-3.128906v-57.371094c0-1.730469-1.402343-3.128906-3.128906-3.128906zm0 0"/>
    </g>
    <path d="m466.746094 60.988281c0 9.71875-7.882813 17.601563-17.601563 17.601563-9.722656 0-17.601562-7.882813-17.601562-17.601563 0-9.722656 7.878906-17.601562 17.601562-17.601562 9.71875 0 17.601563 7.878906 17.601563 17.601562zm0 0"
          fill="#ffe565"/>
    <path d="m466.746094 118.929688c0 9.71875-7.882813 17.597656-17.601563 17.597656-9.722656 0-17.601562-7.878906-17.601562-17.597656 0-9.722657 7.878906-17.601563 17.601562-17.601563 9.71875 0 17.601563 7.878906 17.601563 17.601563zm0 0"
          fill="#eb5793"/>
    <path d="m449.5 136.511719c9.554688-.191407 17.242188-7.984375 17.242188-17.582031 0-3.691407-1.136719-7.109376-3.078126-9.9375-1.886718 10.609374-6.941406 20.121093-14.164062 27.519531zm0 0"
          fill="#e7387f"/>
    <path d="m243.15625 199.316406h25.6875v41.125h-25.6875zm0 0" fill="#6990d7"/>
    <path d="m312.589844 311.195312v-25.6875h190.125c.984375 0 1.785156.800782 1.785156 1.785157v22.113281c0 .988281-.800781 1.785156-1.785156 1.785156h-190.125zm0 0"
          fill="#6990d7"/>
    <path d="m199.410156 311.195312v-25.6875h-190.125c-.984375 0-1.785156.800782-1.785156 1.785157v22.113281c0 .988281.800781 1.785156 1.785156 1.785156h190.125zm0 0"
          fill="#6990d7"/>
    <path d="m277.132812 172.414062h-42.265624v22.308594c0 2.539063 2.054687 4.59375 4.59375 4.59375h33.078124c2.539063 0 4.59375-2.054687 4.59375-4.59375zm0 0"
          fill="#def4f8"/>
    <path d="m307.996094 277.839844h-25.8125c-2.789063 0-5.050782-2.261719-5.050782-5.050782v-27.757812c0-2.535156-2.054687-4.589844-4.59375-4.589844h-33.078124c-2.539063 0-4.59375 2.054688-4.59375 4.589844v27.757812c0 2.789063-2.261719 5.050782-5.050782 5.050782h-25.8125c-2.539062 0-4.59375 2.054687-4.59375 4.589844v33.082031c0 2.539062 2.054688 4.59375 4.59375 4.59375h103.992188c2.539062 0 4.59375-2.054688 4.59375-4.59375v-33.082031c0-2.535157-2.058594-4.589844-4.59375-4.589844zm0 0"
          fill="#def4f8"/>
    <path d="m307.996094 277.839844h-25.40625v17.671875c0 2.539062-2.054688 4.59375-4.59375 4.59375h-78.585938v15.40625c0 2.539062 2.054688 4.59375 4.59375 4.59375h103.992188c2.539062 0 4.59375-2.054688 4.59375-4.59375v-33.082031c0-2.535157-2.058594-4.589844-4.59375-4.589844zm0 0"
          fill="#bce8f1"/>
    <path d="m87.226562 39.898438h-20.308593c-5.863281 0-10.632813 4.769531-10.632813 10.628906v10.859375h-7.898437c-5.863281 0-10.628907 4.769531-10.628907 10.628906v57.371094c0 5.859375 4.765626 10.628906 10.628907 10.628906h57.371093c5.859376 0 10.628907-4.769531 10.628907-10.628906v-57.371094c0-5.859375-4.769531-10.628906-10.628907-10.628906h-7.902343v-10.859375c0-5.859375-4.769531-10.628906-10.628907-10.628906zm14.160157 36.488281v48.628906h-6.132813v-14.851563c0-4.140624-3.359375-7.5-7.5-7.5-4.144531 0-7.5 3.359376-7.5 7.5v14.851563h-6.363281v-14.851563c0-4.140624-3.359375-7.5-7.5-7.5-4.144531 0-7.5 3.359376-7.5 7.5v14.851563h-6.136719v-48.628906h9.1875c5.152344 0 9.34375-4.191407 9.34375-9.34375v-12.144531h11.570313v12.144531c0 5.152343 4.191406 9.34375 9.34375 9.34375zm0 0"/>
    <path d="m184.277344 39.898438h-20.304688c-5.863281 0-10.632812 4.769531-10.632812 10.628906v10.859375h-7.898438c-5.863281 0-10.632812 4.769531-10.632812 10.628906v57.371094c0 5.859375 4.769531 10.628906 10.632812 10.628906h57.367188c5.863281 0 10.632812-4.769531 10.632812-10.628906v-57.371094c0-5.859375-4.769531-10.628906-10.632812-10.628906h-7.898438v-10.859375c0-5.859375-4.769531-10.628906-10.632812-10.628906zm14.164062 36.488281v48.628906h-6.132812v-14.851563c0-4.140624-3.359375-7.5-7.5-7.5-4.144532 0-7.5 3.359376-7.5 7.5v14.851563h-6.363282v-14.851563c0-4.140624-3.359374-7.5-7.5-7.5-4.144531 0-7.5 3.359376-7.5 7.5v14.851563h-6.136718v-48.628906h9.1875c5.152344 0 9.34375-4.191407 9.34375-9.34375v-12.144531h11.566406v12.144531c0 5.152343 4.195312 9.34375 9.347656 9.34375zm0 0"/>
    <path d="m281.335938 39.898438h-20.308594c-5.863282 0-10.632813 4.769531-10.632813 10.628906v10.859375h-7.898437c-5.863282 0-10.632813 4.769531-10.632813 10.628906v57.371094c0 5.859375 4.769531 10.628906 10.632813 10.628906h57.367187c5.863281 0 10.632813-4.769531 10.632813-10.628906v-14.429688c0-4.140625-3.359375-7.5-7.5-7.5-4.144532 0-7.5 3.359375-7.5 7.5v10.058594h-6.136719v-14.851563c0-4.140624-3.355469-7.5-7.5-7.5-4.140625 0-7.5 3.359376-7.5 7.5v14.851563h-6.363281v-14.851563c0-4.140624-3.355469-7.5-7.5-7.5-4.140625 0-7.5 3.359376-7.5 7.5v14.851563h-6.132813v-48.628906h9.1875c5.152344 0 9.34375-4.191407 9.34375-9.34375v-12.144531h11.570313v12.144531c0 5.152343 4.191406 9.34375 9.34375 9.34375h9.183594v3.574219c0 4.140624 3.359374 7.5 7.5 7.5 4.144531 0 7.5-3.359376 7.5-7.5v-7.945313c0-5.859375-4.765626-10.628906-10.628907-10.628906h-7.898437v-10.855469c0-5.863281-4.769532-10.632812-10.628906-10.632812zm0 0"/>
    <path d="m378.390625 39.898438h-20.308594c-5.863281 0-10.632812 4.769531-10.632812 10.628906v10.859375h-7.898438c-5.863281 0-10.628906 4.769531-10.628906 10.628906v57.371094c0 5.859375 4.765625 10.628906 10.628906 10.628906h57.371094c5.859375 0 10.628906-4.769531 10.628906-10.628906v-57.371094c0-5.859375-4.769531-10.628906-10.628906-10.628906h-7.902344v-10.859375c0-5.859375-4.769531-10.628906-10.628906-10.628906zm14.160156 36.488281v48.628906h-6.132812v-14.851563c0-4.140624-3.359375-7.5-7.5-7.5-4.144531 0-7.5 3.359376-7.5 7.5v14.851563h-6.363281v-14.851563c0-4.140624-3.359376-7.5-7.5-7.5-4.144532 0-7.5 3.359376-7.5 7.5v14.851563h-6.132813v-48.628906h9.183594c5.152343 0 9.34375-4.191407 9.34375-9.34375v-12.144531h11.570312v12.144531c0 5.152343 4.191407 9.34375 9.34375 9.34375zm0 0"/>
    <path d="m449.144531 86.089844c13.839844 0 25.101563-11.261719 25.101563-25.101563 0-13.84375-11.261719-25.101562-25.101563-25.101562-13.839843 0-25.101562 11.257812-25.101562 25.101562 0 13.839844 11.261719 25.101563 25.101562 25.101563zm0-35.203125c5.570313 0 10.101563 4.53125 10.101563 10.101562 0 5.570313-4.53125 10.101563-10.101563 10.101563-5.570312 0-10.101562-4.53125-10.101562-10.101563 0-5.570312 4.53125-10.101562 10.101562-10.101562zm0 0"/>
    <path d="m449.144531 144.027344c13.839844 0 25.101563-11.257813 25.101563-25.097656 0-13.84375-11.261719-25.101563-25.101563-25.101563-13.839843 0-25.101562 11.257813-25.101562 25.101563 0 13.839843 11.261719 25.097656 25.101562 25.097656zm0-35.199219c5.570313 0 10.101563 4.53125 10.101563 10.101563 0 5.570312-4.53125 10.101562-10.101563 10.101562-5.570312 0-10.101562-4.53125-10.101562-10.101562 0-5.570313 4.53125-10.101563 10.101562-10.101563zm0 0"/>
    <path d="m284.632812 194.722656v-14.808594h209.066407c10.089843 0 18.300781-8.207031 18.300781-18.300781v-143.3125c0-10.089843-8.210938-18.300781-18.300781-18.300781h-475.398438c-10.089843 0-18.300781 8.210938-18.300781 18.300781v143.3125c0 10.089844 8.210938 18.300781 18.300781 18.300781h40.804688c4.140625 0 7.5-3.359374 7.5-7.5 0-4.140624-3.359375-7.5-7.5-7.5h-40.804688c-1.820312 0-3.300781-1.480468-3.300781-3.300781v-143.3125c0-1.820312 1.480469-3.300781 3.300781-3.300781h475.398438c1.820312 0 3.300781 1.480469 3.300781 3.300781v143.3125c0 1.820313-1.480469 3.300781-3.300781 3.300781h-399.59375c-4.140625 0-7.5 3.359376-7.5 7.5 0 4.140626 3.359375 7.5 7.5 7.5h133.261719v14.808594c0 5.339844 3.480468 9.871094 8.289062 11.472656v27.367188c-4.808594 1.597656-8.289062 6.132812-8.289062 11.46875v25.308594h-23.363282c-5.105468 0-9.472656 3.183594-11.246094 7.667968h-183.472656c-5.121094 0-9.285156 4.164063-9.285156 9.285157v22.113281c0 5.121094 4.164062 9.289062 9.285156 9.289062h183.0625c1.402344 5.125 6.089844 8.910157 11.65625 8.910157h103.992188c5.566406 0 10.253906-3.785157 11.65625-8.910157h38.042968c4.140626 0 7.5-3.359374 7.5-7.5 0-4.144531-3.359374-7.5-7.5-7.5h-37.605468v-10.6875h176.910156v10.6875h-104.304688c-4.144531 0-7.5 3.355469-7.5 7.5 0 4.140626 3.355469 7.5 7.5 7.5h110.019532c5.121094 0 9.285156-4.167968 9.285156-9.289062v-22.113281c0-5.121094-4.164062-9.285157-9.285156-9.285157h-183.476563c-1.769531-4.484374-6.136719-7.667968-11.242187-7.667968h-23.363282v-25.308594c0-5.335938-3.480468-9.871094-8.289062-11.46875v-27.367188c4.808594-1.597656 8.289062-6.132812 8.289062-11.472656zm-15-14.808594v11.902344h-27.265624v-11.902344zm-8.289062 53.027344h-10.6875v-26.125h10.6875zm-246.34375 60.066406h176.910156v10.6875h-176.910156zm267.183594-7.667968h22.90625v27.265625h-98.179688v-27.265625h22.90625c6.917969 0 12.550782-5.632813 12.550782-12.550782v-24.847656h27.265624v24.847656c0 6.917969 5.632813 12.550782 12.550782 12.550782zm0 0"/>
</svg>