<svg xmlns="http://www.w3.org/2000/svg" viewBox="0 0 9 10.64"><defs><style>.cls-1{fill:#fff;}</style></defs><g id="Layer_2" data-name="Layer 2"><g id="Layer_2-2" data-name="Layer 2"><path class="cls-1" d="M2.87,8.54l0-.41-.49-.05,0,.49Zm3.26,0,.41,0,0-.49-.49.05Zm0,.31.4.1ZM6,9l-.4-.09h0ZM4.88,10.18l.1.4H5Zm-.76,0-.1.4H4ZM3,9l-.39.1Zm0-.18.4-.1ZM1.24,3.48l.4.11ZM3.5,1.12l.12.39h0ZM.92,4.67.53,4.56h0ZM.67,5.82l.4.09Zm.71,2.47.09-.4Zm.2.05.09-.41h0Zm5.84,0-.09-.41Zm.2-.05.08.41Zm.71-2.47-.4.09h0ZM8.08,4.67l.4-.09h0ZM7.76,3.46l-.39.1ZM5.57,1.12,5.7.73Zm3,5.79L8.17,7Zm-8.16,0L0,6.84ZM4.91.41a.41.41,0,0,0-.82,0ZM4.09,1a.41.41,0,0,0,.82,0Zm-1.27,8a14.52,14.52,0,0,0,3.36,0l-.09-.81a14.09,14.09,0,0,1-3.18,0ZM6.48,9a2.5,2.5,0,0,0,.06-.38l-.82-.06a1,1,0,0,1,0,.24Zm-.05.18L6.48,9l-.8-.2,0,.19ZM5,10.58A2,2,0,0,0,6.43,9.13l-.79-.19a1.14,1.14,0,0,1-.85.84Zm-1,0a2,2,0,0,0,1,0l-.19-.8a1.14,1.14,0,0,1-.58,0ZM2.57,9.13A2,2,0,0,0,4,10.58l.19-.8a1.14,1.14,0,0,1-.85-.84Zm0-.18,0,.18.79-.19,0-.19Zm-.06-.38A2.5,2.5,0,0,0,2.52,9l.8-.2a1,1,0,0,1,0-.24Zm-.82-5a3,3,0,0,1,2-2.08L3.37.73A3.84,3.84,0,0,0,.85,3.37ZM1.32,4.78l.32-1.19L.85,3.37.53,4.56ZM1.07,5.91l.25-1.15-.8-.18L.27,5.74ZM.82,7.1A.53.53,0,0,1,.83,7L0,6.84A2.28,2.28,0,0,0,0,7.1Zm.65.79A.8.8,0,0,1,.82,7.1H0A1.64,1.64,0,0,0,1.3,8.7Zm.2,0-.2,0L1.3,8.7l.2,0Zm5.66,0a13.84,13.84,0,0,1-5.66,0l-.17.81a15.15,15.15,0,0,0,6,0Zm.2,0-.2,0,.17.81.2,0Zm.65-.79a.8.8,0,0,1-.65.79l.17.81A1.64,1.64,0,0,0,9,7.1Zm0-.13a.53.53,0,0,1,0,.13H9a2.28,2.28,0,0,0,0-.26ZM7.68,4.76l.25,1.15.8-.17L8.48,4.58Zm-.31-1.2.31,1.21.8-.2L8.16,3.35Zm-1.93-2A3,3,0,0,1,7.37,3.56l.79-.21A3.79,3.79,0,0,0,5.7.73Zm-1.82,0a3,3,0,0,1,1.82,0L5.7.73a3.79,3.79,0,0,0-2.33,0ZM9,6.84c-.06-.37-.18-.79-.25-1.1l-.8.17c.09.4.19.71.24,1.06ZM.27,5.74C.2,6.05.08,6.47,0,6.84L.83,7c.05-.35.15-.66.24-1.06ZM4.09.41V1h.82V.41Z"/></g></g></svg>