<!--
  - 2023.12.11.18:40:15
  -->

<svg id="Capa_1" enable-background="new 0 0 511.983 511.983" height="512" viewBox="0 0 511.983 511.983" width="512"
     xmlns="http://www.w3.org/2000/svg">
    <g>
        <g>
            <path d="m487.775 234.297-16.378-163.21c-1.597-15.917-14.186-28.505-30.102-30.103l-163.21-16.378c-10.039-1.007-20.001 2.547-27.136 9.681l-234.429 234.43c-12.024 12.024-12.024 31.519 0 43.543l183.602 183.602c12.024 12.024 31.519 12.024 43.543 0l234.428-234.429c7.135-7.135 10.689-17.096 9.682-27.136zm-73.98-89.215c-12.839 12.839-33.656 12.839-46.495 0s-12.839-33.656 0-46.495 33.656-12.839 46.495 0 12.839 33.656 0 46.495z"
                  fill="#dfebfa"/>
            <g>
                <g>
                    <path d="m41.886 326.27 234.428-234.428c7.135-7.135 17.097-10.688 27.136-9.681l78.686 7.896c7.616-2.008 15.806-1.239 22.978 2.306l61.547 6.176c2.66.267 5.223.847 7.661 1.692l-2.924-29.143c-1.597-15.917-14.186-28.505-30.102-30.103l-163.21-16.378c-10.039-1.007-20.001 2.547-27.136 9.681l-234.43 234.429c-12.024 12.024-12.024 31.519 0 43.543l20.44 20.44c1.324-2.298 2.961-4.465 4.926-6.43z"
                          fill="#b1dbfc"/>
                </g>
            </g>
            <circle cx="234.363" cy="278.019" fill="#fee55a" r="112.466"/>
            <path d="m189.837 357.545c-43.921-43.921-43.921-115.13 0-159.051 17.495-17.495 39.321-28.013 62.026-31.57-34.296-5.374-70.6 5.145-97.026 31.57-43.921 43.921-43.921 115.13 0 159.051 26.426 26.426 62.73 36.944 97.026 31.57-22.705-3.557-44.531-14.075-62.026-31.57z"
                  fill="#ffd301"/>
            <circle cx="234.363" cy="278.019" fill="#ffd301" r="79.803"/>
            <path d="m212.933 334.448c-31.165-31.165-31.165-81.693 0-112.858 11.102-11.102 24.664-18.227 38.929-21.419-25.781-5.769-53.865 1.356-73.929 21.419-31.165 31.165-31.165 81.693 0 112.858 20.063 20.063 48.148 27.188 73.929 21.419-14.265-3.192-27.827-10.317-38.929-21.419z"
                  fill="#ffc20c"/>
        </g>
        <g>
            <path d="m499.179 2.197-37.999 37.999c-5.559-3.834-12.097-6.344-19.156-7.053l-163.21-16.377c-12.333-1.24-24.427 3.078-33.188 11.84l-234.429 234.428c-14.929 14.93-14.929 39.221 0 54.15l183.602 183.602c14.93 14.928 39.22 14.928 54.15 0l234.429-234.429c8.761-8.762 13.077-20.858 11.841-33.188l-6.808-67.839c-.415-4.121-4.08-7.127-8.212-6.713-4.121.414-7.127 4.09-6.714 8.211l6.808 67.838c.786 7.833-1.956 15.519-7.522 21.084l-234.43 234.429c-9.1 9.102-23.834 9.104-32.936 0l-183.601-183.602c-9.101-9.099-9.104-23.834 0-32.936l234.429-234.428c5.565-5.566 13.245-8.308 21.083-7.522l163.21 16.377c3.505.352 6.797 1.42 9.759 3.024l-37.012 37.012c-15.711-10.722-37.365-9.128-51.297 4.802-15.742 15.743-15.742 41.358.001 57.102 15.739 15.739 41.354 15.745 57.102 0 13.93-13.931 15.523-35.586 4.801-51.297l37.011-37.011c1.603 2.962 2.671 6.254 3.023 9.758l6.075 60.545c.414 4.121 4.075 7.134 8.212 6.713 4.121-.414 7.127-4.09 6.714-8.211l-6.075-60.545c-.709-7.06-3.219-13.597-7.053-19.156l37.999-37.999c2.929-2.929 2.929-7.678 0-10.606s-7.676-2.931-10.607-.002zm-90.708 137.203c-9.894 9.895-25.994 9.893-35.888 0-9.895-9.895-9.895-25.994-.001-35.888 4.948-4.948 11.446-7.421 17.945-7.421 6.498 0 12.997 2.474 17.943 7.42 9.895 9.895 9.895 25.994.001 35.889z"/>
            <path d="m321.646 277.64c0-23.319-9.081-45.242-25.57-61.732-34.042-34.04-89.426-34.036-123.466 0-34.12 34.122-34.122 89.342 0 123.466 16.49 16.489 38.413 25.57 61.733 25.57 23.319 0 45.242-9.081 61.732-25.57 16.49-16.491 25.571-38.414 25.571-61.734zm-87.303 72.303c-19.313 0-37.47-7.521-51.126-21.178-28.191-28.19-28.191-74.061 0-102.251 14.097-14.098 32.608-21.144 51.126-21.144 18.513 0 37.031 7.05 51.125 21.144 28.191 28.19 28.191 74.061 0 102.251-13.656 13.657-31.812 21.178-51.125 21.178z"/>
            <path d="m268.712 241.619-5.891 5.891-5.11-5.11 5.891-5.891c2.929-2.93 2.929-7.678 0-10.607-2.93-2.928-7.678-2.928-10.607 0l-5.891 5.891-5.219-5.219c-2.93-2.928-7.678-2.928-10.607 0-2.929 2.93-2.929 7.678 0 10.607l1.323 1.323-37.395 37.395-1.323-1.323c-2.929-2.929-7.677-2.93-10.607-.001-2.929 2.93-2.929 7.678 0 10.607l5.219 5.219-5.891 5.891c-2.929 2.93-2.929 7.678 0 10.607 2.931 2.929 7.678 2.928 10.607 0l5.891-5.891 5.11 5.11-5.891 5.891c-2.929 2.93-2.929 7.678 0 10.607 2.931 2.929 7.678 2.928 10.607 0l5.892-5.892c9.544 9.523 25.052 9.515 34.587-.019 5.852-5.853 8.098-13.955 6.771-21.548 4.74-.854 9.276-3.097 12.932-6.753 8.047-8.048 9.278-20.341 3.75-29.721l6.458-6.458c2.929-2.93 2.929-7.678 0-10.607-2.928-2.926-7.676-2.926-10.606.001zm-29.912 64.481c-3.692 3.694-9.703 3.691-13.394.001-4.537-4.537-14.801-14.802-19.594-19.594l13.394-13.394 19.593 19.593c3.694 3.692 3.694 9.701.001 13.394zm19.704-28.3c-3.693 3.692-9.703 3.693-13.395 0l-15.295-15.295 13.394-13.394 15.295 15.295c3.694 3.693 3.693 9.702.001 13.394z"/>
            <path d="m251.834 396.237c.386 0 .776-.029 1.17-.092 25.205-3.949 48.086-15.594 66.168-33.676 46.774-46.775 46.774-122.884 0-169.659-46.775-46.774-122.884-46.773-169.659 0-46.774 46.775-46.774 122.884 0 169.659 18.082 18.081 40.963 29.727 66.169 33.676 4.1.648 7.929-2.157 8.57-6.248.642-4.093-2.156-7.93-6.248-8.57-22.047-3.455-42.063-13.644-57.884-29.465-40.927-40.926-40.927-107.519 0-148.444 40.924-40.926 107.519-40.928 148.444 0 40.927 40.926 40.927 107.519 0 148.444-15.82 15.821-35.836 26.01-57.883 29.465-4.092.641-6.89 4.478-6.248 8.57.58 3.7 3.77 6.34 7.401 6.34z"/>
        </g>
    </g>
</svg>