<?xml version="1.0" encoding="UTF-8"?>
<!--
  - 2023.12.11.18:40:15
  -->

<svg xmlns="http://www.w3.org/2000/svg" viewBox="0 0 20.26 20.24">
    <defs>
        <style>
            .cls-1{fill:#3567c3;}.cls-2{fill:#2d56a1;}.cls-3{fill:#72d1fb;}.cls-4{fill:#40c1fa;}.cls-5{fill:#e6e6e6;}
        </style>
    </defs>
    <title>reliable-icon</title>
    <g id="Layer_2" data-name="Layer 2">
        <g id="Layer_2-2" data-name="Layer 2">
            <path class="cls-1"
                  d="M19.93,2.94,10.13.3.32,2.94c-.37,8.13,3.29,13.53,9.81,17C16.64,16.47,20.31,11.07,19.93,2.94Z"></path>
            <path class="cls-2"
                  d="M19.93,2.94l-1.29-.35c.34,8-3.22,13.3-9.55,16.77.34.2.68.39,1,.58,6.51-3.47,10.18-8.87,9.8-17Z"></path>
            <path class="cls-3" d="M8.33,7.49h3.6V11.1H8.33Z"></path>
            <path class="cls-4" d="M10.89,7.49h1V11.1h-1Z"></path>
            <circle class="cls-5" cx="4.53" cy="5.16" r="0.73"></circle>
            <circle class="cls-5" cx="7.16" cy="14.49" r="0.73"></circle>
            <circle class="cls-5" cx="15.73" cy="5.16" r="0.73"></circle>
            <circle class="cls-5" cx="13.1" cy="14.49" r="0.73"></circle>
            <path d="M13.77,8.86a.3.3,0,0,0,0-.59H12.23V7.49a.31.31,0,0,0-.3-.3h-.77V5.66a.3.3,0,1,0-.6,0V7.19H9.69V5.66a.3.3,0,1,0-.59,0V7.19H8.33a.3.3,0,0,0-.3.3v.78H6.49a.3.3,0,1,0,0,.59H8v.87H6.49a.3.3,0,1,0,0,.59H8v.78a.29.29,0,0,0,.3.29H9.1v1.54a.3.3,0,1,0,.59,0V11.39h.87v1.54a.3.3,0,1,0,.6,0V11.39h.77a.3.3,0,0,0,.3-.29v-.78h1.54a.3.3,0,0,0,0-.59H12.23V8.86ZM11.63,10.8h-3v-3h3Z"></path>
            <path d="M20.23,2.93A.29.29,0,0,0,20,2.66L17.46,2a.3.3,0,1,0-.16.57l2.35.63a22,22,0,0,1-.16,3.58H16V6.14a1,1,0,1,0-.59,0v.91a.29.29,0,0,0,.3.29h3.68c-.07.39-.14.76-.22,1.13A15.74,15.74,0,0,1,17.36,13l-.11.18H14.16a.29.29,0,0,0-.21.09l-.32.32a1,1,0,0,0-.53-.16,1,1,0,1,0,.93.6l.25-.26h2.58a15.94,15.94,0,0,1-2.6,2.94,21.07,21.07,0,0,1-4.13,2.86A20.7,20.7,0,0,1,5.5,16.28,14.92,14.92,0,0,1,3.4,13.8H6l.26.26a.91.91,0,0,0-.1.43,1,1,0,1,0,1-1,1,1,0,0,0-.54.16L6.3,13.3a.27.27,0,0,0-.21-.09H3a13.26,13.26,0,0,1-.74-1.33.3.3,0,0,0-.53.26,13.72,13.72,0,0,0,.84,1.5s0,0,0,0a16.81,16.81,0,0,0,2.48,3A21.49,21.49,0,0,0,10,20.2a.28.28,0,0,0,.28,0,22.2,22.2,0,0,0,4.39-3,16.61,16.61,0,0,0,3.21-3.84A16.28,16.28,0,0,0,19.76,8.6a20.77,20.77,0,0,0,.47-5.67ZM15.29,5.16a.44.44,0,0,1,.87,0,.39.39,0,0,1-.05.24.44.44,0,0,1-.38.22h0a.43.43,0,0,1-.43-.42ZM13.1,14.93a.44.44,0,0,1-.44-.44.44.44,0,0,1,.44-.43.43.43,0,0,1,.43.43A.44.44,0,0,1,13.1,14.93Zm-5.51-.44a.44.44,0,0,1-.43.44.44.44,0,0,1-.44-.44.44.44,0,0,1,.44-.43A.43.43,0,0,1,7.59,14.49Z"></path>
            <path d="M1.82,10.86a16.43,16.43,0,0,1-1-3.52H4.53a.29.29,0,0,0,.29-.29V6.14a1,1,0,1,0-.59,0v.61H.76A22,22,0,0,1,.61,3.17L10.13.6l6,1.63a.3.3,0,0,0,.16-.58L10.2,0h-.15L.24,2.66A.28.28,0,0,0,0,2.93,21.4,21.4,0,0,0,.21,7.05a.22.22,0,0,0,0,.08,16.75,16.75,0,0,0,1.05,4,.28.28,0,0,0,.27.19l.11,0a.31.31,0,0,0,.17-.39Zm2.27-5.7a.44.44,0,0,1,.87,0,.39.39,0,0,1,0,.24.44.44,0,0,1-.38.22h0a.43.43,0,0,1-.36-.18A.41.41,0,0,1,4.09,5.16Z"></path>
        </g>
    </g>
</svg>