<?xml version="1.0" encoding="UTF-8"?>
<!--
  - 2023.12.11.18:40:15
  -->

<svg xmlns="http://www.w3.org/2000/svg" viewBox="0 0 20.81 17">
    <defs>
        <style>
            .cls-1{fill:#00b27c;}.cls-2{fill:#557983;}.cls-3{fill:#ffc26d;}.cls-4{fill:#ff9a1b;}.cls-5{fill:#3f5959;}.cls-6{fill:#00f2a9;}
        </style>
    </defs>
    <title>rotate-icon</title>
    <g id="Layer_2" data-name="Layer 2">
        <g id="Layer_2-2" data-name="Layer 2">
            <path class="cls-1"
                  d="M13.28,8.5c0,3.89-1.47,7.16-3.14,8.2h2.58a1.25,1.25,0,0,0,.81-.3C15,15.12,16,12.07,16,8.5S15,1.88,13.53.6a1.25,1.25,0,0,0-.81-.3H10.14C11.81,1.34,13.28,4.61,13.28,8.5Z"></path>
            <path class="cls-2"
                  d="M.3,13.33V3.67a.82.82,0,0,1,.82-.81H19.69a.81.81,0,0,1,.81.81v9.66a.81.81,0,0,1-.81.81H1.12A.82.82,0,0,1,.3,13.33Z"></path>
            <path class="cls-3"
                  d="M18.29,14.14H2.52a.81.81,0,0,1-.81-.81V3.67a.81.81,0,0,1,.81-.81H18.29a.81.81,0,0,1,.81.81v9.66A.81.81,0,0,1,18.29,14.14Z"></path>
            <path class="cls-4"
                  d="M19.1,3.67v9.66a.81.81,0,0,1-.81.81H17.07a.81.81,0,0,0,.81-.81V3.67a.81.81,0,0,0-.81-.81h1.22A.81.81,0,0,1,19.1,3.67Z"></path>
            <path class="cls-5"
                  d="M20.5,3.67v9.66a.81.81,0,0,1-.81.81h-1.4a.81.81,0,0,0,.81-.81V3.67a.81.81,0,0,0-.81-.81h1.4A.81.81,0,0,1,20.5,3.67Z"></path>
            <path class="cls-6"
                  d="M11.84,16.7H9.26a1.25,1.25,0,0,1-.82-.31,8.9,8.9,0,0,1-2.29-5.24.4.4,0,0,1,.4-.47h2a.41.41,0,0,1,.4.34C9.37,13.75,10.54,15.9,11.84,16.7Z"></path>
            <path class="cls-6"
                  d="M7.85,8.63l2.29-2.24a.4.4,0,0,0-.29-.69H9c.49-2.6,1.63-4.62,2.88-5.4H9.26a1.26,1.26,0,0,0-.83.32A8.82,8.82,0,0,0,6.17,5.7H5.29A.4.4,0,0,0,5,6.39L7.28,8.63A.42.42,0,0,0,7.85,8.63Z"></path>
            <path d="M19.69,2.55H15.22A6.24,6.24,0,0,0,13.73.37a1.51,1.51,0,0,0-1-.37H9.26a1.55,1.55,0,0,0-1,.39A6.22,6.22,0,0,0,6.75,2.55H5.66a.31.31,0,0,0-.31.31.3.3,0,0,0,.31.3h.85a13.93,13.93,0,0,0-.6,2.23H5.29a.71.71,0,0,0-.5,1.22L7.07,8.85a.73.73,0,0,0,1,0l2.28-2.24a.71.71,0,0,0-.5-1.22H9.33a11.9,11.9,0,0,1,.72-2.23h8.24a.5.5,0,0,1,.5.51v5.1a.3.3,0,0,0,.31.3.29.29,0,0,0,.3-.3V3.67a1.1,1.1,0,0,0-.12-.51h.41a.51.51,0,0,1,.51.51v9.66a.51.51,0,0,1-.51.51h-.41a1.1,1.1,0,0,0,.12-.51V10.21a.3.3,0,0,0-.3-.31.31.31,0,0,0-.31.31v3.12a.5.5,0,0,1-.5.51H10A13.21,13.21,0,0,1,9.21,11a.72.72,0,0,0-.7-.6h-2a.69.69,0,0,0-.54.25.71.71,0,0,0-.17.57,13.86,13.86,0,0,0,.67,2.65h-4A.51.51,0,0,1,2,13.33V3.67a.51.51,0,0,1,.51-.51H4.26a.3.3,0,0,0,.3-.3.31.31,0,0,0-.3-.31H1.12A1.12,1.12,0,0,0,0,3.67v9.66a1.12,1.12,0,0,0,1.12,1.12H6.75a6.29,6.29,0,0,0,1.49,2.17,1.52,1.52,0,0,0,1,.38h3.46a1.51,1.51,0,0,0,1-.37l.33-.32a.31.31,0,0,0,0-.43.3.3,0,0,0-.43,0,3.5,3.5,0,0,1-.28.27.93.93,0,0,1-.61.22h-.79A3.53,3.53,0,0,1,11.4,16a8.31,8.31,0,0,0,.92-1.5h2.23l-.18.36a.3.3,0,0,0,.12.41.28.28,0,0,0,.15,0,.3.3,0,0,0,.26-.16,6.54,6.54,0,0,0,.32-.65h4.47a1.12,1.12,0,0,0,1.12-1.12V3.67A1.12,1.12,0,0,0,19.69,2.55ZM13.33.83a5.46,5.46,0,0,1,1.22,1.72H12.32a8.31,8.31,0,0,0-.92-1.5,3.53,3.53,0,0,1,.53-.44h.79A.93.93,0,0,1,13.33.83ZM8.72,5.89A.32.32,0,0,0,9,6h.89a.08.08,0,0,1,.09.06.1.1,0,0,1,0,.11L7.64,8.41a.1.1,0,0,1-.14,0L5.21,6.17a.1.1,0,0,1,0-.11A.11.11,0,0,1,5.29,6h.88a.3.3,0,0,0,.3-.26A8.55,8.55,0,0,1,8.63.85.92.92,0,0,1,9.26.61H11a9.92,9.92,0,0,0-2.32,5A.32.32,0,0,0,8.72,5.89ZM11,1.52a7.27,7.27,0,0,1,.65,1h-1.3A7.27,7.27,0,0,1,11,1.52ZM.61,13.33V3.67a.51.51,0,0,1,.51-.51h.4a1.23,1.23,0,0,0-.12.51v9.66a1.23,1.23,0,0,0,.12.51h-.4A.51.51,0,0,1,.61,13.33Zm8,2.83A8.75,8.75,0,0,1,6.45,11.1a.09.09,0,0,1,0-.08.12.12,0,0,1,.08,0h2a.11.11,0,0,1,.1.09A10,10,0,0,0,11,16.39H9.26A.93.93,0,0,1,8.64,16.16ZM11,15.48a7.27,7.27,0,0,1-.65-1h1.3A7.27,7.27,0,0,1,11,15.48Z"></path>
            <path d="M3.29,4.36a.3.3,0,0,0,.3.3H4.93a.3.3,0,0,0,.31-.3.31.31,0,0,0-.31-.31H3.59A.31.31,0,0,0,3.29,4.36Z"></path>
            <path d="M17.21,4.66a.3.3,0,0,0,.31-.3.31.31,0,0,0-.31-.31H15.87a.3.3,0,0,0-.3.31.29.29,0,0,0,.3.3Z"></path>
            <path d="M12,8.5h0a.3.3,0,0,0-.31-.3.29.29,0,0,0-.3.3.3.3,0,0,0,.3.31A.31.31,0,0,0,12,8.5Z"></path>
            <path d="M13.31,8.5h0A.3.3,0,0,0,13,8.2a.29.29,0,0,0-.3.3.3.3,0,0,0,.3.31A.31.31,0,0,0,13.31,8.5Z"></path>
            <path d="M14.64,8.5h0a.3.3,0,0,0-.6,0,.3.3,0,1,0,.6,0Z"></path>
            <path d="M15.37,8.5a.31.31,0,0,0,.31.31A.3.3,0,0,0,16,8.5h0a.29.29,0,0,0-.3-.3A.3.3,0,0,0,15.37,8.5Z"></path>
        </g>
    </g>
</svg>