<svg xmlns="http://www.w3.org/2000/svg" width="14" height="14" fill="none" viewBox="0 0 14 14">
  <path fill="url(#a)" fill-rule="evenodd" d="m5.818 12.066-.34-.766a1.415 1.415 0 0 0-1.444-.834l-.834.09a1.292 1.292 0 0 1-1.18-2.044l.494-.679a1.417 1.417 0 0 0 0-1.667l-.494-.678A1.29 1.29 0 0 1 3.2 3.445l.837.089a1.415 1.415 0 0 0 1.44-.834l.341-.767a1.29 1.29 0 0 1 2.36 0l.343.767a1.415 1.415 0 0 0 1.441.834l.834-.09a1.29 1.29 0 0 1 1.18 2.044l-.494.678a1.417 1.417 0 0 0-.27.834c-.002.3.091.593.267.837l.494.678a1.29 1.29 0 0 1-1.18 2.043l-.833-.088a1.42 1.42 0 0 0-1.441.83l-.341.766a1.29 1.29 0 0 1-2.36 0ZM8.808 7a1.75 1.75 0 1 1-3.5 0 1.75 1.75 0 0 1 3.5 0Z" clip-rule="evenodd" opacity=".4"/>
  <path stroke="#989A9C" stroke-linecap="round" stroke-linejoin="round" stroke-width="1.5" d="M7 8.75a1.75 1.75 0 1 0 0-3.5 1.75 1.75 0 0 0 0 3.5Z"/>
  <path stroke="#989A9C" stroke-linecap="round" stroke-linejoin="round" stroke-width="1.5" d="m5.48 11.3.341.766a1.29 1.29 0 0 0 2.36 0l.34-.766a1.415 1.415 0 0 1 1.441-.83l.835.088a1.29 1.29 0 0 0 1.18-2.043l-.495-.678A1.417 1.417 0 0 1 11.214 7c0-.3.095-.591.27-.834l.495-.678a1.29 1.29 0 0 0-1.18-2.043l-.834.089a1.415 1.415 0 0 1-1.44-.834l-.344-.767a1.29 1.29 0 0 0-2.36 0l-.34.767a1.415 1.415 0 0 1-1.441.834l-.837-.09a1.29 1.29 0 0 0-1.18 2.044l.494.678a1.417 1.417 0 0 1 0 1.667l-.494.68a1.29 1.29 0 0 0 1.18 2.042l.834-.089a1.42 1.42 0 0 1 1.443.834Z"/>
  <defs>
    <linearGradient id="a" x1="1.512" x2="12.484" y1="7" y2="7" gradientUnits="userSpaceOnUse">
      <stop stop-color="#E7E7E7"/>
      <stop offset=".823" stop-color="#E7E7E7" stop-opacity="0"/>
      <stop offset="1" stop-color="#E7E7E7" stop-opacity="0"/>
    </linearGradient>
  </defs>
</svg>
