<!--
  - 2023.12.11.18:40:15
  -->

<svg id="svg2" xmlns="http://www.w3.org/2000/svg" viewBox="0 0 4887.17 1022.8">
    <defs>
        <style>.cls-1{fill:#fff;}.cls-2{fill:#e10070;}</style>
    </defs>
    <g id="g14">
        <path id="path16" class="cls-1"
              d="M3610.17,165.4c22.52,0,42-7.9,57.78-23.71s23.71-35.27,23.71-57.77c0-21.89-8.51-41.35-24.32-57.16C3652.14,11,3633.3,3,3611.4,3c-22.49,0-42,7.3-57.76,23.11-17,15.21-24.93,34.67-24.93,57.77,0,22.5,7.9,42,23.71,57.77s34.65,23.71,57.75,23.71Z"
              transform="translate(0 0)"/>
    </g>
    <path id="path18" class="cls-1"
          d="M1593.79,739.43,1381.56,10.34H1093.94V57.16h27.36c22.5,0,39.53,1.82,51.08,6.08,20.07,6.07,32.84,21.28,38.31,45,3,10.34,4.26,32.84,4.26,67.5V750.38c0,54.12-1.22,91.82-4.87,114.32-4.86,29.19-15.2,51.69-32.23,66.28-17,15.2-37.09,23.1-60.19,23.1h-23.72v48H1401v-48h-19.47c-53.51,0-88.17-26.15-102.15-77.84q-7.31-28.28-7.3-125.87v-650l261.48,901.8h45.6l262.08-901.8V808.15c0,33.44-1.22,60.8-4.26,82.09-1.82,17.63-7.9,31.62-18.24,41.34-15.2,14.6-42,22.5-79,22.5h-12.16v48h372.76v-48h-20.68c-51.08,0-82.09-15.21-93-46.22-4.87-16.42-7.89-49.86-7.89-99.72V204.32A759.23,759.23,0,0,1,1983,121c2.43-17,8.51-31,18.24-40.74,15.2-15.2,41.35-23.11,78.44-23.11h20.68V10.34H1810.25Z"
          transform="translate(0 0)"/>
    <g id="g20">
        <path id="path22" class="cls-1"
              d="M2417.75,974.76c-53.51,0-91.82-24.32-116.14-73.58-27.37-56.55-40.75-139.25-40.75-248.71,0-132.56,21.88-221.34,66.28-267,26.14-27.36,56.55-41.34,90.61-41.34,21.88,0,41.95,5.47,60.2,17,27.37,17,48,40.74,62,72.36,22.5,51.08,34,125.27,34,223.17q0,318.33-156.27,318Zm0-678.62c-93,0-168.45,37.09-226.21,110.06-50.47,63.85-75.41,148.37-75.41,253.57,0,104.59,24.94,189.11,75.41,253.57,57.16,73,131.33,109.46,221.95,109.46,95.46,0,172.09-36.49,229.25-109.46,50.47-64.46,76-149.59,76-255.39,0-104-25.54-187.9-76-251.75-57.16-73-132.57-110.07-225-110.07Z"
              transform="translate(0 0)"/>
    </g>
    <g id="g24">
        <path id="path26" class="cls-1"
              d="M3117.64,965c-26.15,0-49.26-6.69-69.32-20.67-24.94-16.42-43.78-38.92-56.56-66.89-24.92-52.91-37.09-127.7-37.09-224.39,0-125.26,26.15-212.22,78.44-260.26,28-24.93,58.38-37.69,90.61-37.69q69.32,0,104,73c24.93,52.3,37.08,126.48,37.08,222q0,314.69-147.15,315Zm26.14-662.2c-48.65,0-91.2,14.59-128.3,44.39-19.46,15.81-35.88,38.31-48.64,66.89V0L2754.62,10.34V56h10.94c28,0,47.44,6.08,57.77,18.24C2835.48,87,2841,120.41,2841,174.52V855c0,61.42-1.82,101.55-6.08,121.61-.61,3-3,11.56-7.91,25.55h49.26q16.41-27.37,31-47.44c10.94-15.8,20.67-23.1,29.18-23.1,7.3,0,15.81,3.65,25.54,11.55q37.4,31,49.26,38.31c37.09,23.72,77.23,35.87,121.61,35.87,80.87,0,146.55-34,196.42-100.93,53.51-72.37,80.26-161.75,80.26-269.39q0-167.83-89.38-267.55c-46.23-51.09-105.19-76.62-176.36-76.62Z"
              transform="translate(0 0)"/>
    </g>
    <g id="g28">
        <path id="path30" class="cls-1"
              d="M4361.78,476.74c23.71-85.13,64.46-128.3,121.61-128.3,51.08,0,88.16,34.65,111.89,104,12.77,39.53,19.45,89.38,19.45,149.59H4346.56c.62-49.26,5.49-91.22,15.22-125.27Zm281.55,426.88C4608.66,944.36,4566.1,965,4514.41,965c-65.69,0-112.51-32.84-139.25-97.9-19.47-45.6-29.21-116.75-29.79-212.83h406.79c-3-80.88-18.25-149-45.6-203.71Q4629,296.45,4476.1,296.14c-68.72,0-127.7,27.36-176.36,82.09q-93,104-93,277.29,0,187.89,93,287.62c49.86,52.9,113.73,79.66,191.55,79.66,106.41,0,190.35-62.63,253-187.9l-44.4-23.11c-18.83,38.92-37.7,69.94-56.53,91.83Z"
              transform="translate(0 0)"/>
    </g>
    <g id="g32">
        <path id="path34" class="cls-1"
              d="M4079.63,937.67q-18.26-21-18.25-102.16V0L3843.07,10.34V56h17c28,0,46.84,6.07,57.18,18.23,12.15,13.38,18.22,46.82,18.22,100.94V835.51q0,81.18-18.22,102.16c-10.34,12.16-29.2,18.24-57.18,18.24h-24.32v46.21h324.72V955.91h-23.71c-27.36,0-46.81-6.09-57.15-18.25Z"
              transform="translate(0 0)"/>
    </g>
    <g id="g36">
        <path id="path38" class="cls-1"
              d="M3702,937.67c-12.16-13.38-17.64-47.43-17.64-102.16V307.09l-218.3,10.33v46.22h17c28,0,46.84,6.08,57.17,17.63,12.16,13.38,18.24,47.44,18.24,101V835.51q0,81.18-18.24,102.16c-10.33,12.16-29.18,18.24-57.17,18.24h-24.3v46.21h324.71V955.91h-23.73C3731.79,955.91,3712.34,949.83,3702,937.67Z"
              transform="translate(0 0)"/>
    </g>
    <path id="path40" class="cls-2" d="M612.34,466.4V667.07H813V466.4H612.34Z" transform="translate(0 0)"/>
    <path id="path42" class="cls-2"
          d="M9.73,10.34,0,360l52.29,9.12C62,266.35,89.39,189.73,133.78,139.86,180.6,87.57,244.45,60.2,327.15,57.77V789.9c0,63.85-9.12,105.2-27.37,124.66C284,931,256.61,940.71,218.91,944.36c-10.95,1.21-30.41,1.21-57.16,1.21v56.56l489.5-.61V945.57c-26.75,0-46.21,0-57.16-1.21-37.7-3.65-65.06-13.38-80.87-29.8C495,895.1,485.85,853.75,485.85,789.9V57.77c82.71,2.43,146.56,29.8,193.37,82.09,44.39,49.87,71.15,126.49,81.49,229.25L813,360,803.28,10.34H9.73Z"
          transform="translate(0 0)"/>
    <path id="path44" class="cls-2" d="M200.67,466.4H0V667.07H200.67Z" transform="translate(0 0)"/>
    <g id="g46">
        <path id="path48" class="cls-1"
              d="M4817.85,375.8V296.14h15.2l20.06,64.44L4872,296.14h15.2V375.8h-10.34V313.17L4858.6,375.8h-12.18l-18.23-61.42V375.8Zm-43.18,0V306.47h-21.88V296.14h55.34v10.32h-21.91V375.8Z"
              transform="translate(0 0)"/>
    </g>
</svg>