<!--
  - 2023.12.11.18:40:15
  -->

<svg id="Layer_1" data-name="Layer 1" xmlns="http://www.w3.org/2000/svg" viewBox="0 0 300 70.87">
    <defs>
        <style>
            .cls-1{fill:#fff;}.cls-2{fill:none;stroke:#fff;stroke-miterlimit:10;stroke-width:2px;}.cls-3{fill:#e10070;}
        </style>
    </defs>
    <path class="cls-1"
          d="M217.64,47.81a7.93,7.93,0,0,1-3.58-.79,6.57,6.57,0,0,1-2.56-2.17,5.93,5.93,0,0,1-1.05-3.15h2.71a3.75,3.75,0,0,0,1.43,2.6,4.74,4.74,0,0,0,3,1,4.83,4.83,0,0,0,2.54-.67,4.74,4.74,0,0,0,1.75-1.83,5.83,5.83,0,0,0,0-5.36,5,5,0,0,0-1.82-1.88,5.08,5.08,0,0,0-2.63-.7,7.33,7.33,0,0,0-2.18.32,6.17,6.17,0,0,0-1.84.85l-2.63-.31,1.4-11.39h12v2.48h-9.67l-.82,6.83h.14a6.08,6.08,0,0,1,1.78-.94,6.83,6.83,0,0,1,2.24-.37,7.11,7.11,0,0,1,6.41,3.77,8.22,8.22,0,0,1,1,4,7.77,7.77,0,0,1-1,4,7.23,7.23,0,0,1-2.72,2.74A7.81,7.81,0,0,1,217.64,47.81Z"/>
    <path class="cls-1"
          d="M244.39,31.58a8.32,8.32,0,0,0-1-2A6.35,6.35,0,0,0,242,28a6.08,6.08,0,0,0-1.88-1,7.27,7.27,0,0,0-2.31-.34,6.8,6.8,0,0,0-3.74,1.06,7.4,7.4,0,0,0-2.68,3.13,11.68,11.68,0,0,0-1,5.08,11.64,11.64,0,0,0,1,5.07,7.33,7.33,0,0,0,2.73,3.13,7.17,7.17,0,0,0,3.88,1,7,7,0,0,0,3.51-.85,5.94,5.94,0,0,0,2.37-2.42,7.54,7.54,0,0,0,.86-3.69l.86.18h-7V35.92h8.81V38.4a9.82,9.82,0,0,1-1.21,5,8.49,8.49,0,0,1-3.35,3.27A10.1,10.1,0,0,1,238,47.81a9.93,9.93,0,0,1-5.39-1.45A9.65,9.65,0,0,1,229,42.25a14.54,14.54,0,0,1-1.29-6.33,15.39,15.39,0,0,1,.74-5,10.88,10.88,0,0,1,2.09-3.74,9.19,9.19,0,0,1,3.21-2.38,9.89,9.89,0,0,1,4.08-.82,10.47,10.47,0,0,1,3.42.55,9.55,9.55,0,0,1,2.84,1.54,9,9,0,0,1,3.23,5.46Z"/>
    <rect class="cls-2" x="199.4" y="14.88" width="57.95" height="41.11" rx="6.12"/>
    <path id="path40" class="cls-3" d="M32.31,33.42v7.21h7.21V33.42Z"/>
    <path id="path42" class="cls-3"
          d="M10.65,17,10.3,29.6l1.88.33c.35-3.7,1.32-6.45,2.93-8.24a9.2,9.2,0,0,1,7-3V45.05c0,2.29-.33,3.78-1,4.48a4.59,4.59,0,0,1-2.9,1.07H16.15v2h17.6v-2H31.69a4.64,4.64,0,0,1-2.91-1.07c-.65-.7-1-2.19-1-4.48V18.74a9.2,9.2,0,0,1,7,3c1.6,1.79,2.56,4.54,2.93,8.24l1.88-.33L39.17,17Z"/>
    <path id="path44" class="cls-3" d="M17.51,33.42H10.3v7.21h7.21Z"/>
    <g id="g14">
        <path id="path16" class="cls-1"
              d="M140,22.61a2.82,2.82,0,0,0,2.07-.86,2.78,2.78,0,0,0,.85-2.07,2.85,2.85,0,0,0-.87-2.06,2.7,2.7,0,0,0-2-.85,2.84,2.84,0,0,0-2.08.83,2.66,2.66,0,0,0-.89,2.08A2.92,2.92,0,0,0,140,22.61Z"/>
    </g>
    <path id="path18" class="cls-1"
          d="M67.58,43.23,60,17H49.61v1.69h1a5.63,5.63,0,0,1,1.83.21,2,2,0,0,1,1.38,1.62A11.47,11.47,0,0,1,54,23V43.63a29.68,29.68,0,0,1-.17,4.11,3.93,3.93,0,0,1-1.16,2.38,3.14,3.14,0,0,1-2.16.83h-.86v1.72h11V51H60a3.47,3.47,0,0,1-3.67-2.8A23.33,23.33,0,0,1,56,43.63V20.27l9.39,32.4H67l9.42-32.4V45.7a20.75,20.75,0,0,1-.15,2.95,2.32,2.32,0,0,1-.66,1.49A4.13,4.13,0,0,1,72.8,51h-.44v1.72h13.4V51H85c-1.84,0-3-.55-3.35-1.66a15.45,15.45,0,0,1-.28-3.59V24a25.12,25.12,0,0,1,.15-3,2.55,2.55,0,0,1,.66-1.46A3.88,3.88,0,0,1,85,18.72h.74V17H75.35Z"/>
    <g id="g20">
        <path id="path22" class="cls-1"
              d="M97.19,51.69A4.34,4.34,0,0,1,93,49.05c-1-2-1.46-5-1.46-8.94,0-4.76.78-8,2.38-9.59A4.37,4.37,0,0,1,97.19,29a4,4,0,0,1,2.16.61,5.76,5.76,0,0,1,2.23,2.6,20.56,20.56,0,0,1,1.22,8c0,7.63-1.88,11.43-5.61,11.43Zm0-24.39a9.89,9.89,0,0,0-8.13,4c-1.82,2.29-2.71,5.33-2.71,9.11a14.28,14.28,0,0,0,2.71,9.11,9.65,9.65,0,0,0,8,3.94,10,10,0,0,0,8.24-3.94,14.49,14.49,0,0,0,2.7-9.21,14.17,14.17,0,0,0-2.73-9,9.85,9.85,0,0,0-8.08-4Z"/>
    </g>
    <g id="g24">
        <path id="path26" class="cls-1"
              d="M122.34,51.34a4.24,4.24,0,0,1-2.49-.74,5.59,5.59,0,0,1-2-2.41,19.46,19.46,0,0,1-1.33-8.06c0-4.5.94-7.63,2.82-9.35a4.81,4.81,0,0,1,3.25-1.36,4,4,0,0,1,3.74,2.63,19,19,0,0,1,1.33,8c0,7.54-1.77,11.32-5.28,11.32Zm.94-23.8a7.17,7.17,0,0,0-4.62,1.6,6.56,6.56,0,0,0-1.74,2.4V16.66l-7.63.37v1.64h.39a2.64,2.64,0,0,1,2.08.66c.44.46.63,1.66.63,3.6V47.39a25.55,25.55,0,0,1-.22,4.37,7.35,7.35,0,0,1-.28.91h1.77c.39-.65.77-1.22,1.12-1.7s.74-.83,1-.83a1.52,1.52,0,0,1,.92.41,20,20,0,0,0,1.77,1.38,8.06,8.06,0,0,0,4.37,1.29,8.42,8.42,0,0,0,7.06-3.63,15.78,15.78,0,0,0,2.89-9.68q0-6-3.22-9.61a8.18,8.18,0,0,0-6.33-2.76Z"/>
    </g>
    <g id="g28">
        <path id="path30" class="cls-1"
              d="M167.05,33.79c.85-3.06,2.31-4.61,4.37-4.61q2.75,0,4,3.74a18.11,18.11,0,0,1,.69,5.38H166.5A17.57,17.57,0,0,1,167.05,33.79Zm10.11,15.34a5.81,5.81,0,0,1-4.63,2.21,5.09,5.09,0,0,1-5-3.52,21.14,21.14,0,0,1-1.07-7.65h14.61a18,18,0,0,0-1.63-7.32c-1.86-3.69-4.62-5.55-8.29-5.55a8.19,8.19,0,0,0-6.33,2.95q-3.34,3.75-3.35,10,0,6.75,3.35,10.33a9,9,0,0,0,6.88,2.87c3.82,0,6.84-2.25,9.09-6.76l-1.6-.83a14.83,14.83,0,0,1-2,3.3Z"/>
    </g>
    <g id="g32">
        <path id="path34" class="cls-1"
              d="M156.91,50.36c-.44-.5-.66-1.73-.66-3.67v-30L148.4,17v1.64h.6a2.61,2.61,0,0,1,2,.66c.44.48.66,1.68.66,3.63V46.69c0,1.94-.22,3.17-.66,3.67a2.62,2.62,0,0,1-2,.65h-.88v1.66h11.67V51H159a2.65,2.65,0,0,1-2.05-.65Z"/>
    </g>
    <g id="g36">
        <path id="path38" class="cls-1"
              d="M143.34,50.36c-.44-.48-.64-1.71-.64-3.67v-19l-7.84.37v1.66h.61a2.73,2.73,0,0,1,2.05.63c.44.48.66,1.71.66,3.63v12.7c0,1.94-.22,3.17-.66,3.67a2.62,2.62,0,0,1-2.05.65h-.87v1.66h11.66V51h-.85A2.65,2.65,0,0,1,143.34,50.36Z"/>
    </g>
    <g id="g46">
        <path id="path48" class="cls-1"
              d="M183.43,30.17V27.3H184l.72,2.32.68-2.32H186v2.87h-.38V27.92l-.65,2.25h-.44L183.81,28v2.21Zm-1.55,0V27.68h-.78V27.3h2v.38h-.79v2.49Z"/>
    </g>
</svg>