<svg xmlns="http://www.w3.org/2000/svg" viewBox="0 0 12.44 12.44"><defs><style>.cls-1{fill:#fff;}.cls-2{fill:none;stroke:#fff;stroke-linecap:round;}</style></defs><g id="Layer_2" data-name="Layer 2"><g id="Layer_2-2" data-name="Layer 2"><path class="cls-1" d="M.48,2.57A.48.48,0,0,0,0,3.05a.47.47,0,0,0,.48.48ZM12,3.53a.47.47,0,0,0,.47-.48A.48.48,0,0,0,12,2.57ZM1.75,3.05V2.57H1.28v.48Zm8.94,0h.48V2.57h-.48ZM10.27,9.3l.46.14ZM7.32,11.87l.08.47h0Zm-2.2,0,.08-.47h0Zm-.1,0-.08.47h0ZM2.17,9.3l-.45.14Zm5.25,2.56-.08-.48ZM3.57,2.07l.43.2Zm.62-.84L3.87.88h0ZM5.12.67l.17.45h0Zm2.2,0L7.49.23h0Zm1.55,1.4.44-.2ZM.48,3.53H12v-1H.48Zm6.86,7.85-.1,0,.16.94h.1Zm-2.14,0-.1,0-.16.95H5Zm5-8.35V6.33h1V3.05Zm-8,3.28V3.05H1.28V6.33Zm8,0a10.1,10.1,0,0,1-.4,2.84l.92.27a11.29,11.29,0,0,0,.44-3.11Zm-3,5.07a5.82,5.82,0,0,1-2,0L5,12.34a6.68,6.68,0,0,0,2.36,0Zm-2.14,0A3.11,3.11,0,0,1,2.63,9.17l-.91.27a4.06,4.06,0,0,0,3.22,2.89ZM2.63,9.17a10.47,10.47,0,0,1-.4-2.84H1.28a10.92,10.92,0,0,0,.44,3.11ZM7.5,12.33a4.09,4.09,0,0,0,3.23-2.89l-.92-.27a3.08,3.08,0,0,1-2.47,2.21ZM3.83,3.05A1.92,1.92,0,0,1,4,2.27l-.87-.4a2.82,2.82,0,0,0-.26,1.18ZM4,2.27a2.21,2.21,0,0,1,.51-.68L3.87.88a3.14,3.14,0,0,0-.74,1Zm.51-.68a2.46,2.46,0,0,1,.78-.47L5,.23A3.33,3.33,0,0,0,3.87.88Zm.78-.47A2.64,2.64,0,0,1,6.22,1V0A3.6,3.6,0,0,0,5,.23ZM6.22,1a2.64,2.64,0,0,1,.93.16L7.49.23A3.7,3.7,0,0,0,6.22,0Zm.93.16a2.36,2.36,0,0,1,.78.47L8.57.88A3.39,3.39,0,0,0,7.49.23Zm.78.47a2.21,2.21,0,0,1,.51.68l.87-.4a3,3,0,0,0-.74-1Zm.51.68a1.77,1.77,0,0,1,.17.78h1a2.82,2.82,0,0,0-.26-1.18ZM1.75,3.53h8.94v-1H1.75Z"/><path class="cls-2" d="M5,6.22V8.77M7.5,6.22V8.77"/></g></g></svg>