<?xml version="1.0" encoding="UTF-8"?>
<!--
  - 2023.12.11.18:40:15
  -->

<svg xmlns="http://www.w3.org/2000/svg" viewBox="0 0 22 18.07">
    <defs>
        <style>
            .cls-1{fill:#def4f8;}.cls-2{fill:#bce8f1;}.cls-3{fill:#607882;}.cls-4{fill:#495959;}.cls-5{fill:#0363ef;}.cls-6{fill:#0043ff;}.cls-7{fill:#ffd731;}.cls-8{fill:#a9f5ff;}.cls-9{fill:#ff7a17;}.cls-10{fill:#fc9842;}.cls-11{fill:#ffe046;}.cls-12{fill:#7cd2e3;}
        </style>
    </defs>
    <title>unlim-icon</title>
    <g id="Layer_2" data-name="Layer 2">
        <g id="Layer_2-2" data-name="Layer 2">
            <path class="cls-1"
                  d="M21.29,14.26H.71a.39.39,0,0,1-.38-.39V1.58H21.67V13.87A.39.39,0,0,1,21.29,14.26Z"></path>
            <path class="cls-2"
                  d="M18.75,1.58v11a.39.39,0,0,1-.39.39H.33v.86a.39.39,0,0,0,.39.4H21.28a.39.39,0,0,0,.39-.4V1.58Z"></path>
            <path class="cls-3" d="M21.67,3.14H.33V.71A.38.38,0,0,1,.71.33H21.29a.38.38,0,0,1,.38.38Z"></path>
            <path class="cls-4" d="M21.28.33H18.75V3.14h2.92V.72A.38.38,0,0,0,21.28.33Z"></path>
            <path class="cls-5"
                  d="M14.81,4a4.84,4.84,0,0,0-3.08,1.68c-.3.29-.57.57-.79.82-.22-.25-.49-.53-.79-.82A4.84,4.84,0,0,0,7.07,4a3.72,3.72,0,1,0,0,7.43,4.84,4.84,0,0,0,3.08-1.68c.3-.29.57-.58.79-.82.22.24.49.53.79.82a4.84,4.84,0,0,0,3.08,1.68,3.72,3.72,0,1,0,0-7.43ZM7.07,9.84a2.16,2.16,0,1,1,0-4.31c.7,0,1.92,1.09,2.78,2.06a.13.13,0,0,1,0,.18C9,8.75,7.77,9.84,7.07,9.84Zm7.74,0c-.7,0-1.92-1.09-2.78-2.07a.13.13,0,0,1,0-.18c.85-1,2.08-2.06,2.78-2.06a2.16,2.16,0,1,1,0,4.31Z"></path>
            <path class="cls-6"
                  d="M14.81,4a2.56,2.56,0,0,0-.39,0,3.72,3.72,0,0,1,0,7.37,2.56,2.56,0,0,0,.39,0,3.72,3.72,0,1,0,0-7.43Z"></path>
            <path class="cls-3" d="M20.69,13a4.78,4.78,0,1,1-4.78-4.78A4.78,4.78,0,0,1,20.69,13Z"></path>
            <path class="cls-4" d="M17.91,8.62A4.78,4.78,0,0,1,13,16.72a4.78,4.78,0,1,0,4.95-8.1Z"></path>
            <path class="cls-7"
                  d="M14.61,13.81a1.5,1.5,0,0,1-.25-.93,1.56,1.56,0,1,1,2.86.93.13.13,0,0,0,0,.18l1,.74a.12.12,0,0,0,.18,0A3,3,0,1,0,12.87,13a3,3,0,0,0,.55,1.74.13.13,0,0,0,.19,0l1-.74A.15.15,0,0,0,14.61,13.81Z"></path>
            <path class="cls-8"
                  d="M14.36,12.88a1.52,1.52,0,0,1,.32-.87l-1.18-.9a3,3,0,0,0-.08,3.59.13.13,0,0,0,.19,0l1-.74a.15.15,0,0,0,0-.18A1.5,1.5,0,0,1,14.36,12.88Z"></path>
            <path class="cls-9"
                  d="M18.32,11.11l-1.17.9a1.58,1.58,0,0,1,.32,1,1.54,1.54,0,0,1-.25.85.13.13,0,0,0,0,.18l1,.74a.12.12,0,0,0,.18,0,3,3,0,0,0-.08-3.59Z"></path>
            <path class="cls-4" d="M16.5,13a.59.59,0,1,1-.59-.58A.58.58,0,0,1,16.5,13Z"></path>
            <path class="cls-4" d="M18.12,13.29H15.91a.33.33,0,0,1,0-.66h2.21a.33.33,0,1,1,0,.66Z"></path>
            <path class="cls-10" d="M2.83,1.75a.66.66,0,0,1-.65.66.66.66,0,0,1,0-1.32A.66.66,0,0,1,2.83,1.75Z"></path>
            <path class="cls-11" d="M4.7,1.75A.66.66,0,1,1,4,1.09.66.66,0,0,1,4.7,1.75Z"></path>
            <path class="cls-12" d="M6.63,1.75A.67.67,0,0,1,6,2.41.66.66,0,0,1,6,1.09.67.67,0,0,1,6.63,1.75Z"></path>
            <path d="M22,.72A.72.72,0,0,0,21.28,0H16.9a.33.33,0,0,0-.33.33.32.32,0,0,0,.33.32h4.38a.07.07,0,0,1,.07.07v2.1H.65V.72A.07.07,0,0,1,.72.65H15.33a.32.32,0,0,0,.32-.32A.32.32,0,0,0,15.33,0H.72A.72.72,0,0,0,0,.72V13.86a.72.72,0,0,0,.72.72H11.07a5.11,5.11,0,0,0,9.69,0h.52a.72.72,0,0,0,.72-.72ZM15.91,17.41A4.45,4.45,0,1,1,20.37,13,4.45,4.45,0,0,1,15.91,17.41ZM12.38,7.68a5.45,5.45,0,0,1,2.43-1.83,1.84,1.84,0,0,1,1.83,1.83c0,.08,0,.15,0,.23a4.36,4.36,0,0,0-.72,0,5,5,0,0,0-2.62.72A11,11,0,0,1,12.38,7.68Zm8.9,6.25h-.35A5.15,5.15,0,0,0,21,13a5.09,5.09,0,0,0-2.3-4.26,3.86,3.86,0,0,0,.13-1,4,4,0,0,0-4-4A5.1,5.1,0,0,0,11.5,5.42c-.19.17-.37.36-.56.56-.19-.2-.37-.39-.56-.56A5.12,5.12,0,0,0,7.07,3.64a4,4,0,1,0,0,8.09A5.12,5.12,0,0,0,10.38,10c.19-.18.38-.37.57-.58a.33.33,0,0,0,.38,0,.34.34,0,0,0,0-.47l-.17-.18a.32.32,0,0,0-.48,0c-.26.29-.52.56-.77.8a4.6,4.6,0,0,1-2.86,1.6,3.4,3.4,0,0,1,0-6.79,4.56,4.56,0,0,1,2.86,1.6c.25.24.51.51.77.8a.32.32,0,0,0,.48,0c.26-.29.52-.56.77-.8a4.53,4.53,0,0,1,2.86-1.6A3.39,3.39,0,0,1,18.2,7.68a3.08,3.08,0,0,1-.07.68A4.91,4.91,0,0,0,17.27,8c0-.12,0-.24,0-.36A2.48,2.48,0,0,0,14.81,5.2c-1,0-2.58,1.67-3,2.18a.47.47,0,0,0,0,.61,12.07,12.07,0,0,0,1,1,5.07,5.07,0,0,0-1.93,4,5.15,5.15,0,0,0,.09,1H.72a.07.07,0,0,1-.07-.07V3.47h20.7V13.86A.07.07,0,0,1,21.28,13.93Z"></path>
            <path d="M7.07,5.2a2.49,2.49,0,0,0,0,5c1,0,2.58-1.67,3-2.18a.47.47,0,0,0,0-.61C9.65,6.87,8.1,5.2,7.07,5.2Zm0,4.31a1.83,1.83,0,0,1,0-3.66A5.45,5.45,0,0,1,9.5,7.68,5.37,5.37,0,0,1,7.07,9.51Z"></path>
            <path d="M19.27,12.74a3.36,3.36,0,0,0-5.67-2.22,3.36,3.36,0,0,0-.44,4.37.46.46,0,0,0,.3.19h.07a.47.47,0,0,0,.28-.09l1-.74a.47.47,0,0,0,.1-.62,1.23,1.23,0,1,1,2.22-1h-.33a.93.93,0,0,0-.86-.58.91.91,0,1,0,0,1.82.93.93,0,0,0,.86-.58h1.35a.33.33,0,1,0,0-.66h-.35a1.74,1.74,0,0,0-.19-.54l.67-.51a2.72,2.72,0,0,1,.37,1.2,2.64,2.64,0,0,1-.37,1.56l-.54-.41a.32.32,0,0,0-.46.06.33.33,0,0,0,.06.46L18,15a.44.44,0,0,0,.35.09.46.46,0,0,0,.3-.19A3.3,3.3,0,0,0,19.27,12.74Zm-5.69,1.6a2.7,2.7,0,0,1,0-2.76l.66.51a1.8,1.8,0,0,0-.21.77,1.89,1.89,0,0,0,.21,1Zm3.61-2.77a1.88,1.88,0,0,0-1.41-.49,1.85,1.85,0,0,0-1.14.49L14,11.06l.07-.07a2.71,2.71,0,0,1,3.8.07Z"></path>
            <path d="M5,1.56a1,1,0,0,0-1.9-.12,1,1,0,1,0,0,.62A1,1,0,0,0,5,1.94a1,1,0,1,0,0-.38Zm-2.83.52a.33.33,0,1,1,.33-.33A.33.33,0,0,1,2.18,2.08ZM4,2.08a.33.33,0,1,1,.33-.33A.32.32,0,0,1,4,2.08ZM6.3,1.75A.33.33,0,1,1,6,1.42.33.33,0,0,1,6.3,1.75Z"></path>
        </g>
    </g>
</svg>