<?xml version="1.0" encoding="UTF-8"?>
<!--
  - 2023.12.11.18:40:15
  -->

<svg xmlns="http://www.w3.org/2000/svg" viewBox="0 0 21 21">
    <defs>
        <style>
            .cls-1{fill:#f5f5f5;}.cls-2{fill:#e6e6e6;}.cls-3{fill:#29b6f6;}.cls-4{fill:#03a9f4;}.cls-5{fill:#ff5722;}.cls-6{fill:#f4511e;}
        </style>
    </defs>
    <title>usa-icon</title>
    <g id="Layer_2" data-name="Layer 2">
        <g id="Layer_2-2" data-name="Layer 2">
            <circle class="cls-1" cx="10.5" cy="10.5" r="10.19"></circle>
            <path class="cls-2"
                  d="M10.5.31c-.21,0-.41,0-.62,0a10.19,10.19,0,0,1,0,20.34c.21,0,.41,0,.62,0A10.19,10.19,0,0,0,10.5.31Z"></path>
            <path class="cls-3" d="M1.17,14.61a10.2,10.2,0,0,0,18.66,0Z"></path>
            <path class="cls-4"
                  d="M18.6,14.61a10.19,10.19,0,0,1-8.72,6.06c.21,0,.41,0,.62,0a10.19,10.19,0,0,0,9.33-6.08Z"></path>
            <path class="cls-1" d="M5.09,14.61v4.53a10.19,10.19,0,0,1-1.65-1.29V14.61Z"></path>
            <path class="cls-1" d="M9.24,14.61v6a10,10,0,0,1-1.64-.35V14.61Z"></path>
            <path class="cls-1" d="M13.4,14.61v5.66a10,10,0,0,1-1.64.35v-6Z"></path>
            <path class="cls-2" d="M13.4,19.82a11.35,11.35,0,0,1-1.64.57v.23a10,10,0,0,0,1.64-.35Z"></path>
            <path class="cls-1" d="M17.56,14.61v3.24a10.19,10.19,0,0,1-1.65,1.29V14.61Z"></path>
            <path class="cls-2" d="M17.56,16.44a10.38,10.38,0,0,1-1.65,1.79v.91a10.19,10.19,0,0,0,1.65-1.29Z"></path>
            <path class="cls-5" d="M19.83,6.39a10.2,10.2,0,0,0-18.66,0Z"></path>
            <path class="cls-6"
                  d="M10.5.31c-.21,0-.41,0-.62,0A10.19,10.19,0,0,1,18.6,6.39h1.23A10.19,10.19,0,0,0,10.5.31Z"></path>
            <path class="cls-1"
                  d="M10.44,2.38s.05,0,.07,0A1.16,1.16,0,0,1,11.39,2a1,1,0,0,1,.93,1c0,.64-.51,1.4-1.81,2.07h-.08C9.13,4.4,8.63,3.64,8.63,3a1,1,0,0,1,.92-1,1.2,1.2,0,0,1,.89.42Z"></path>
            <path d="M20.12,6.27a10.54,10.54,0,0,0-2.41-3.4.3.3,0,0,0-.43,0,.31.31,0,0,0,0,.44,9.71,9.71,0,0,1,2.06,2.77H4a.29.29,0,0,0-.3.3A.3.3,0,0,0,4,6.7H19.63a9.76,9.76,0,0,1,.75,3.8,10,10,0,0,1-.75,3.8H1.37a10,10,0,0,1,0-7.6H2.63a.31.31,0,0,0,.31-.31.3.3,0,0,0-.31-.3h-1A9.89,9.89,0,0,1,16.31,2.5a.31.31,0,0,0,.36-.5A10.5,10.5,0,0,0,3.08,3.08,10.47,10.47,0,0,0,.88,14.7a.14.14,0,0,0,0,.06,10.54,10.54,0,0,0,4.55,5,.32.32,0,0,0,.14,0,.29.29,0,0,0,.27-.16.3.3,0,0,0-.12-.41L5.39,19V14.91h1.9v4.94l-.4-.14a.3.3,0,0,0-.4.17.31.31,0,0,0,.18.4A10.51,10.51,0,0,0,21,10.5a10.58,10.58,0,0,0-.88-4.23ZM17.25,17.72a10.47,10.47,0,0,1-1,.84V14.91h1Zm-3.54-2.81h1.9V19a10.28,10.28,0,0,1-1.9.89ZM13.09,20a8.81,8.81,0,0,1-1,.22V14.91h1ZM1.66,14.91H3.14V17.1A9.81,9.81,0,0,1,1.66,14.91Zm3.12,3.65a10.47,10.47,0,0,1-1-.84V14.91h1Zm3.13-3.65h1v5.35a9.29,9.29,0,0,1-1-.22Zm1.64,5.43V14.91h1.9v5.43c-.31,0-.63,0-.95,0s-.64,0-.95,0Zm8.31-3.25V14.91h1.48A9.31,9.31,0,0,1,17.86,17.09Z"></path>
            <path d="M4.84,8.22a.31.31,0,0,0-.31.31v3.22a1,1,0,0,0,1,1H6.78a1,1,0,0,0,1-1V8.53a.3.3,0,0,0-.3-.31.31.31,0,0,0-.31.31v3.22a.41.41,0,0,1-.41.41H5.55a.4.4,0,0,1-.4-.41V8.53a.31.31,0,0,0-.31-.31Z"></path>
            <path d="M9.17,11.26a.31.31,0,0,0-.31.31v.18a1,1,0,0,0,1,1h1.22a1,1,0,0,0,1-1v-.53a1,1,0,0,0-1-1H9.89a.41.41,0,0,1-.41-.41V9.25a.41.41,0,0,1,.41-.41h1.22a.41.41,0,0,1,.41.41v.14a.31.31,0,0,0,.62,0V9.25a1,1,0,0,0-1-1H9.89a1,1,0,0,0-1,1v.53a1,1,0,0,0,1,1h1.22a.41.41,0,0,1,.41.41v.53a.41.41,0,0,1-.41.41H9.89a.41.41,0,0,1-.41-.41v-.18a.31.31,0,0,0-.31-.31Z"></path>
            <path d="M16.16,12.78a.31.31,0,0,0,.31-.31V9.86a1.64,1.64,0,1,0-3.27,0v2.61a.3.3,0,0,0,.3.31.31.31,0,0,0,.31-.31V10.81h2v1.66a.31.31,0,0,0,.31.31Zm-2.35-2.59V9.86a1,1,0,0,1,2,0v.33Z"></path>
            <path d="M10.47,2a1.42,1.42,0,0,0-.92-.33A1.28,1.28,0,0,0,8.32,3c0,.5.25,1.47,2,2.34a.38.38,0,0,0,.36,0c1.72-.87,2-1.84,2-2.34a1.28,1.28,0,0,0-1.23-1.35,1.44,1.44,0,0,0-.92.33ZM12,3c0,.59-.56,1.22-1.54,1.74C9.49,4.22,8.93,3.59,8.93,3a.67.67,0,0,1,.62-.73.82.82,0,0,1,.65.31h0a.35.35,0,0,0,.54,0,.84.84,0,0,1,.65-.31A.67.67,0,0,1,12,3Z"></path>
        </g>
    </g>
</svg>