<!--
  - 2023.12.11.18:40:15
  -->

<svg id="Layer_1" data-name="Layer 1" xmlns="http://www.w3.org/2000/svg" viewBox="0 0 300 70.87">
    <defs>
        <style>
            .cls-1{fill:#fff;}.cls-2{fill:none;stroke:#fff;stroke-miterlimit:10;stroke-width:2px;}.cls-3{fill:#c10f06;}
        </style>
    </defs>
    <path class="cls-1"
          d="M249.65,51.18a7.93,7.93,0,0,1-3.58-.79,6.57,6.57,0,0,1-2.56-2.17,5.9,5.9,0,0,1-1-3.15h2.71a3.68,3.68,0,0,0,1.43,2.6,4.74,4.74,0,0,0,3,1,4.83,4.83,0,0,0,2.54-.67A4.74,4.74,0,0,0,254,46.17a5.58,5.58,0,0,0,.64-2.65,5.34,5.34,0,0,0-.67-2.71A5,5,0,0,0,252.1,39a5.08,5.08,0,0,0-2.63-.7,7.33,7.33,0,0,0-2.18.32,6.34,6.34,0,0,0-1.85.85l-2.62-.31,1.4-11.39h12V30.2h-9.68l-.78,6.8h.14a6.08,6.08,0,0,1,1.78-.94,6.83,6.83,0,0,1,2.24-.37,7.11,7.11,0,0,1,6.41,3.77,8.22,8.22,0,0,1,1,4,7.79,7.79,0,0,1-1,3.95,7.23,7.23,0,0,1-2.72,2.74A7.73,7.73,0,0,1,249.65,51.18Z"/>
    <path class="cls-1"
          d="M276.4,35a7.8,7.8,0,0,0-1-2,6.52,6.52,0,0,0-1.4-1.61,6.08,6.08,0,0,0-1.88-1A7.29,7.29,0,0,0,269.8,30a6.8,6.8,0,0,0-3.74,1.06,7.4,7.4,0,0,0-2.68,3.13,11.68,11.68,0,0,0-1,5.08,11.64,11.64,0,0,0,1,5.07,7.33,7.33,0,0,0,2.73,3.13A7.15,7.15,0,0,0,270,48.55a7,7,0,0,0,3.51-.85,5.94,5.94,0,0,0,2.37-2.42,7.54,7.54,0,0,0,.86-3.69l.86.18h-7V39.29h8.82v2.48a9.9,9.9,0,0,1-1.22,5A8.35,8.35,0,0,1,274.87,50a10.71,10.71,0,0,1-10.27-.27,9.68,9.68,0,0,1-3.6-4.11,14.38,14.38,0,0,1-1.3-6.33,15.68,15.68,0,0,1,.74-4.95,11.07,11.07,0,0,1,2.1-3.74,9.19,9.19,0,0,1,3.21-2.38,9.89,9.89,0,0,1,4.08-.82,10.47,10.47,0,0,1,3.42.55,9.55,9.55,0,0,1,2.84,1.54,9,9,0,0,1,3.2,5.51Z"/>
    <rect class="cls-2" x="231.41" y="18.25" width="57.95" height="41.11" rx="6.12"/>
    <polygon class="cls-3"
             points="211.88 11.51 200.34 36.19 196.01 26.84 191.31 26.84 198.44 42.14 202.24 42.14 216.53 11.51 211.88 11.51"/>
    <path class="cls-1"
          d="M162.38,57.33h9.29v-17c0-3.89,2.25-6.65,5.59-6.65s4.88,2.25,4.88,5.5V57.33h9.31V37.44c0-6.75-4-11.5-10.6-11.5A10.47,10.47,0,0,0,171.56,31h-.16V26.91h-9V57.33ZM144.11,26C134.45,26,128,33,128,42.2s6.46,16.16,16.19,16.16,16.2-7.07,16.2-16.16S153.89,26,144.18,26Zm-.06,25.44c-4.4,0-6.74-3.7-6.74-9.28s2.31-9.26,6.74-9.26,6.87,3.63,6.87,9.32-2.41,9.25-6.83,9.25Zm-42.6,5.88h26.09V50H112.79v-.19L126.92,34V26.8H101.45v7.37h14.29v.19l-14.29,16Zm-11.92,0h9.35V26.84H89.56Zm-21.69,0h9.32v-14C77.16,37,81,34.14,86.8,35H87V27a5,5,0,0,0-1.89-.22C81.48,26.78,79,28.44,77,32h-.2V26.84h-8.9ZM50.78,51.54c-4.15,0-6.64-2.67-7.1-6.78h22c0-6.56-1.67-11.82-5.3-15.07A14.6,14.6,0,0,0,50.12,26C41,26,34.57,33,34.57,42.09s6.07,16.17,16.15,16.17a16.14,16.14,0,0,0,9.36-2.72,12,12,0,0,0,5.11-7.2h-9c-.87,2-2.73,3.18-5.46,3.18Zm-.48-18.9c3.28,0,5.53,2.45,5.91,6H43.75C44.45,35,46.45,32.64,50.3,32.64ZM16,57.33h9.8L36.4,26.84H27l-5.94,19.6h-.12l-6-19.6H5.38ZM89.56,16h9.35v8.31H89.56Z"/>
</svg>