<svg xmlns="http://www.w3.org/2000/svg" width="16" height="16" fill="none" viewBox="0 0 16 16">
    <path stroke="#fff" stroke-linecap="round" stroke-linejoin="round" stroke-width="1.5"
          d="m7.222 10 1.111-2H5.667l1.11-2m7.89 2.667V7.333M4.533 12h4.934c1.12 0 1.68 0 2.108-.218a2 2 0 0 0 .874-.874c.218-.428.218-.988.218-2.108V7.2c0-1.12 0-1.68-.218-2.108a2 2 0 0 0-.874-.874C11.147 4 10.587 4 9.467 4H4.533c-1.12 0-1.68 0-2.108.218a2 2 0 0 0-.874.874c-.218.428-.218.988-.218 2.108v1.6c0 1.12 0 1.68.218 2.108a2 2 0 0 0 .874.874c.428.218.988.218 2.108.218Z"/>
</svg>
