<svg xmlns="http://www.w3.org/2000/svg" width="14" height="14" fill="none" viewBox="0 0 14 14">
    <path fill="url(#a)"
          d="M1.167 3.617c0-.654 0-.98.127-1.23.112-.22.29-.398.51-.51.25-.127.576-.127 1.23-.127h.233c1.307 0 1.96 0 2.46.254.438.224.795.581 1.019 1.02C7 3.524 7 4.177 7 5.484v6.766l-.058-.088c-.405-.607-.608-.911-.876-1.131a2.334 2.334 0 0 0-.803-.43c-.332-.101-.697-.101-1.428-.101h-.802c-.653 0-.98 0-1.23-.127a1.166 1.166 0 0 1-.51-.51c-.126-.25-.126-.576-.126-1.23V3.617Z"
          opacity=".38"/>
    <path stroke="#6F767E" stroke-linecap="round" stroke-linejoin="round" stroke-width="1.5"
          d="m7 12.25-.058-.088c-.405-.607-.608-.911-.876-1.131a2.334 2.334 0 0 0-.803-.43c-.332-.101-.697-.101-1.428-.101h-.802c-.653 0-.98 0-1.23-.127a1.166 1.166 0 0 1-.51-.51c-.126-.25-.126-.576-.126-1.23V3.617c0-.654 0-.98.127-1.23.112-.22.29-.398.51-.51.25-.127.576-.127 1.23-.127h.233c1.307 0 1.96 0 2.46.254.438.224.795.581 1.019 1.02C7 3.524 7 4.177 7 5.484m0 6.766V5.483m0 6.767.058-.088c.406-.607.608-.911.876-1.131a2.33 2.33 0 0 1 .803-.43c.332-.101.697-.101 1.428-.101h.802c.653 0 .98 0 1.23-.127.219-.112.397-.29.51-.51.126-.25.126-.576.126-1.23V3.617c0-.654 0-.98-.127-1.23a1.167 1.167 0 0 0-.51-.51c-.25-.127-.576-.127-1.23-.127h-.233c-1.306 0-1.96 0-2.459.254a2.338 2.338 0 0 0-1.02 1.02C7 3.524 7 4.177 7 5.484"/>
    <defs>
        <linearGradient id="a" x1="1.021" x2="7.146" y1="7" y2="7" gradientUnits="userSpaceOnUse">
            <stop stop-color="#E7E7E7"/>
            <stop offset=".823" stop-color="#E7E7E7" stop-opacity="0"/>
            <stop offset="1" stop-color="#E7E7E7" stop-opacity="0"/>
        </linearGradient>
    </defs>
</svg>
