<svg xmlns="http://www.w3.org/2000/svg" width="16" height="16" fill="none" viewBox="0 0 16 16">
    <path fill="url(#a)"
          d="M2 5.2c0-1.12 0-1.68.218-2.108a2 2 0 0 1 .874-.874C3.52 2 4.08 2 5.2 2h5.6c1.12 0 1.68 0 2.108.218a2 2 0 0 1 .874.874C14 3.52 14 4.08 14 5.2v5.6c0 1.12 0 1.68-.218 2.108a2 2 0 0 1-.874.874C12.48 14 11.92 14 10.8 14H5.2c-1.12 0-1.68 0-2.108-.218a2 2 0 0 1-.874-.874C2 12.48 2 11.92 2 10.8V5.2Z"
          opacity=".2"/>
    <path stroke="#989A9C" stroke-linecap="round" stroke-linejoin="round" stroke-width="1.5"
          d="m9.667 10 2-2-2-2M6.333 6l-2 2 2 2M5.2 14h5.6c1.12 0 1.68 0 2.108-.218a2 2 0 0 0 .874-.874C14 12.48 14 11.92 14 10.8V5.2c0-1.12 0-1.68-.218-2.108a2 2 0 0 0-.874-.874C12.48 2 11.92 2 10.8 2H5.2c-1.12 0-1.68 0-2.108.218a2 2 0 0 0-.874.874C2 3.52 2 4.08 2 5.2v5.6c0 1.12 0 1.68.218 2.108a2 2 0 0 0 .874.874C3.52 14 4.08 14 5.2 14Z"/>
    <defs>
        <linearGradient id="a" x1="1.7" x2="14.3" y1="8" y2="8" gradientUnits="userSpaceOnUse">
            <stop stop-color="#E7E7E7"/>
            <stop offset=".823" stop-color="#E7E7E7" stop-opacity="0"/>
            <stop offset="1" stop-color="#E7E7E7" stop-opacity="0"/>
        </linearGradient>
    </defs>
</svg>
