<svg xmlns="http://www.w3.org/2000/svg" width="16" height="16" fill="none" viewBox="0 0 16 16">
  <path fill="#fff" fill-rule="evenodd" d="M5.49 0h-.07C4.8 0 4.405 0 4.061.05a4.75 4.75 0 00-4.01 4.011C0 4.405 0 4.8 0 5.421v.14c0 .621 0 1.016.05 1.36a4.75 4.75 0 004.05 4.016 4.702 4.702 0 004.664 4.108h.861c.62 0 1.016 0 1.359-.05a4.75 4.75 0 004.011-4.011c.05-.344.05-.738.05-1.359V8.765A4.702 4.702 0 0010.937 4.1 4.75 4.75 0 006.92.05C6.577 0 6.182 0 5.561 0h-.07zm5.492 5.627c0 .583-.002.962-.05 1.293a4.75 4.75 0 01-4.012 4.011c-.33.049-.71.05-1.293.05a3.202 3.202 0 003.137 2.564h.79c.715 0 .992-.002 1.212-.034a3.25 3.25 0 002.745-2.745c.032-.22.034-.497.034-1.212v-.79a3.202 3.202 0 00-2.563-3.137zM4.279 1.534c.22-.032.497-.034 1.212-.034s.991.002 1.212.034A3.25 3.25 0 019.447 4.28c.033.22.035.497.035 1.212s-.002.991-.035 1.212a3.25 3.25 0 01-2.744 2.744c-.22.033-.497.035-1.212.035S4.5 9.48 4.279 9.447a3.25 3.25 0 01-2.745-2.744c-.032-.22-.034-.497-.034-1.212s.002-.991.034-1.212A3.25 3.25 0 014.28 1.534z" clip-rule="evenodd"/>
</svg>
