<svg xmlns="http://www.w3.org/2000/svg" width="17" height="17" fill="none" viewBox="0 0 17 17">
    <path stroke="#fff" stroke-linecap="round" stroke-linejoin="round" stroke-width="1.25"
          d="M15.583 7.083H1.417m14.166.709V5.808c0-.793 0-1.19-.154-1.493a1.417 1.417 0 0 0-.62-.619c-.302-.154-.7-.154-1.492-.154H3.682c-.793 0-1.19 0-1.493.154a1.417 1.417 0 0 0-.62.62c-.153.302-.153.699-.153 1.492v5.384c0 .793 0 1.19.154 1.493.136.266.352.483.619.619.303.154.7.154 1.493.154h4.463m4.604 1.417s2.125-1.013 2.125-2.532V10.57l-1.55-.553a1.709 1.709 0 0 0-1.151 0l-1.55.553v1.773c0 1.52 2.126 2.532 2.126 2.532Z"/>
</svg>
