<svg id="Layer_1" data-name="Layer 1" xmlns="http://www.w3.org/2000/svg" viewBox="0 0 415.93 415.69">
    <defs>
        <style>.cls-1{fill:#7b74ff;}</style>
    </defs>
    <g id="LWPOLYLINE">
        <path class="cls-1"
              d="M250.57,311.23h-.15a16,16,0,0,1-15.85-16.14l.07-8a12.75,12.75,0,0,1,.07-1.38c2.22-23.27,17.67-37.53,30.09-49,4.21-3.89,8.19-7.56,11.58-11.39,4.14-4.66,10.14-14.22,3.83-25.74-7.27-13.32-25-17.08-38.83-13.92C227,189,221.65,201.26,219.76,208.3A16,16,0,0,1,188.84,200c6.38-23.81,22.92-40.41,45.38-45.56,30.24-6.9,60.68,5.32,74,29.76,11.13,20.35,8.08,44.23-8,62.32a189.07,189.07,0,0,1-13.82,13.68c-11.48,10.6-18.66,17.68-19.87,27.92l-.07,7.22a16,16,0,0,1-16,15.87Z"
              transform="translate(-47.99 -48.29)"/>
    </g>
    <g id="POINT">
        <path class="cls-1"
              d="M250.56,359.2a16.12,16.12,0,0,1-11.28-4.64,15.93,15.93,0,0,1,0-22.64c5.92-5.92,16.64-5.92,22.56,0a15.86,15.86,0,0,1,4.72,11.28,15.84,15.84,0,0,1-16,16Z"
              transform="translate(-47.99 -48.29)"/>
    </g>
    <g id="CIRCLE">
        <path class="cls-1"
              d="M255.38,464a206.27,206.27,0,0,1-53.62-7.05C126.85,436.78,68.19,374.72,52.33,298.82,36.16,221.5,66,140.22,128.36,91.75c36-28,81.51-43.46,128-43.46a207.77,207.77,0,0,1,92.48,21.64c69.9,35,115.06,108,115.06,186.13A207.83,207.83,0,0,1,255.38,464Zm1-383.69C217,80.29,178.46,93.33,148,117,95.23,158,70,226.83,83.66,292.27,97.08,356.47,146.7,409,210.08,426a174.33,174.33,0,0,0,45.3,6h0A175.83,175.83,0,0,0,431.93,256.06c0-66.09-38.22-127.92-97.37-157.51A175.63,175.63,0,0,0,256.39,80.29Z"
              transform="translate(-47.99 -48.29)"/>
    </g>
</svg>