<svg xmlns="http://www.w3.org/2000/svg" width="14" height="15" fill="none" viewBox="0 0 14 15">
  <path fill="url(#a)" d="M1.75 6.163c0-.335 0-.503.043-.657a1.16 1.16 0 0 1 .186-.38c.095-.128.227-.23.492-.437l3.956-3.077c.205-.16.307-.239.42-.27a.583.583 0 0 1 .305 0c.114.031.216.11.421.27l3.956 3.077c.265.206.397.309.492.438.085.114.148.242.186.38.043.153.043.32.043.656v4.22c0 .654 0 .98-.127 1.23-.112.22-.29.398-.51.51-.25.127-.576.127-1.23.127H3.617c-.654 0-.98 0-1.23-.127a1.167 1.167 0 0 1-.51-.51c-.127-.25-.127-.576-.127-1.23v-4.22Z" opacity=".4"/>
  <path stroke="#989A9C" stroke-linecap="round" stroke-linejoin="round" stroke-width="1.5" d="M4.74 8.167a2.334 2.334 0 0 0 4.52 0M6.427 1.612 2.471 4.69c-.265.205-.397.308-.492.437a1.167 1.167 0 0 0-.186.38c-.043.153-.043.321-.043.656v4.22c0 .654 0 .98.127 1.23.112.22.29.398.51.51.25.127.576.127 1.23.127h6.766c.654 0 .98 0 1.23-.127.22-.112.398-.29.51-.51.127-.25.127-.576.127-1.23v-4.22c0-.335 0-.503-.043-.657a1.165 1.165 0 0 0-.186-.38c-.095-.128-.227-.23-.492-.436L7.573 1.612c-.205-.159-.307-.239-.42-.27a.583.583 0 0 0-.305 0c-.114.031-.216.111-.421.27Z"/>
  <defs>
    <linearGradient id="a" x1="1.488" x2="12.513" y1="6.786" y2="6.786" gradientUnits="userSpaceOnUse">
      <stop stop-color="#E7E7E7"/>
      <stop offset=".823" stop-color="#E7E7E7" stop-opacity="0"/>
      <stop offset="1" stop-color="#E7E7E7" stop-opacity="0"/>
    </linearGradient>
  </defs>
</svg>
