<svg xmlns="http://www.w3.org/2000/svg" width="18" height="18" fill="none" viewBox="0 0 18 18">
  <path stroke="#fff" stroke-linecap="round" stroke-linejoin="round" stroke-width="1.5" d="M2.25 12V5.4c0-.84 0-1.26.163-1.581a1.5 1.5 0 0 1 .656-.656C3.389 3 3.809 3 4.65 3h8.7c.84 0 1.26 0 1.581.163a1.5 1.5 0 0 1 .655.656c.164.32.164.74.164 1.581V12h-4.003c-.183 0-.275 0-.361.02a.75.75 0 0 0-.217.09c-.076.047-.14.112-.27.242l-.047.046c-.13.13-.195.195-.27.242a.752.752 0 0 1-.218.09c-.086.02-.178.02-.361.02H7.997c-.183 0-.275 0-.361-.02a.751.751 0 0 1-.217-.09c-.076-.047-.14-.112-.27-.242l-.048-.046c-.13-.13-.194-.195-.27-.242a.751.751 0 0 0-.217-.09C6.528 12 6.436 12 6.253 12H2.25Zm0 0a.75.75 0 0 0-.75.75V13c0 .465 0 .697.051.888a1.5 1.5 0 0 0 1.06 1.06c.192.052.424.052.889.052h11c.465 0 .697 0 .888-.051a1.5 1.5 0 0 0 1.06-1.06c.052-.191.052-.424.052-.889 0-.232 0-.349-.026-.444a.75.75 0 0 0-.53-.53C15.85 12 15.732 12 15.5 12H15"/>
</svg>
