<svg xmlns="http://www.w3.org/2000/svg" width="16" height="16" fill="none" viewBox="0 0 16 16">
    <path fill="url(#a)"
          d="M6 2h-.8c-1.12 0-1.68 0-2.108.218a2 2 0 0 0-.874.874C2 3.52 2 4.08 2 5.2v5.6c0 1.12 0 1.68.218 2.108a2 2 0 0 0 .874.874C3.52 14 4.08 14 5.2 14H6V2Z"
          opacity=".3"/>
    <path stroke="#fff" stroke-linecap="round" stroke-linejoin="round" stroke-width="1.5"
          d="M6 2v12M5.2 2h5.6c1.12 0 1.68 0 2.108.218a2 2 0 0 1 .874.874C14 3.52 14 4.08 14 5.2v5.6c0 1.12 0 1.68-.218 2.108a2 2 0 0 1-.874.874C12.48 14 11.92 14 10.8 14H5.2c-1.12 0-1.68 0-2.108-.218a2 2 0 0 1-.874-.874C2 12.48 2 11.92 2 10.8V5.2c0-1.12 0-1.68.218-2.108a2 2 0 0 1 .874-.874C3.52 2 4.08 2 5.2 2Z"/>
    <defs>
        <linearGradient id="a" x1="1.9" x2="6.1" y1="8" y2="8" gradientUnits="userSpaceOnUse">
            <stop stop-color="#E7E7E7"/>
            <stop offset=".823" stop-color="#E7E7E7" stop-opacity="0"/>
            <stop offset="1" stop-color="#E7E7E7" stop-opacity="0"/>
        </linearGradient>
    </defs>
</svg>
