<svg xmlns="http://www.w3.org/2000/svg" width="18" height="18" fill="none" viewBox="0 0 18 18">
    <path fill="#fff" fill-rule="evenodd"
          d="M6.391 5.33l-2.25-2.25a6.968 6.968 0 014.39-1.548c1.663 0 3.19.579 4.391 1.548l-2.25 2.25a3.832 3.832 0 00-2.14-.648c-.792 0-1.529.239-2.14.649zm-1.06 1.061L3.08 4.141a6.968 6.968 0 00-1.548 4.39c0 1.663.579 3.19 1.548 4.391l2.25-2.25a3.832 3.832 0 01-.648-2.14c0-.792.239-1.529.649-2.14zm1.06 5.341l-2.25 2.25a6.968 6.968 0 004.39 1.549c1.663 0 3.19-.58 4.391-1.548l-2.25-2.25c-.612.41-1.349.648-2.14.648-.793 0-1.529-.239-2.14-.649zm5.341-1.06l2.25 2.25a6.968 6.968 0 001.549-4.39c0-1.664-.58-3.19-1.548-4.392l-2.251 2.251c.41.612.65 1.348.65 2.14s-.24 1.529-.65 2.14zM8.532.032A8.475 8.475 0 002.52 2.52a8.475 8.475 0 00-2.49 6.01c0 2.347.953 4.473 2.49 6.01a8.475 8.475 0 006.01 2.49 8.476 8.476 0 006.01-2.49 8.476 8.476 0 002.49-6.01 8.475 8.475 0 00-2.49-6.01 8.476 8.476 0 00-6.01-2.49zm-2.35 8.5a2.35 2.35 0 114.7 0 2.35 2.35 0 01-4.7 0z"
          clip-rule="evenodd"/>
</svg>
