<svg xmlns="http://www.w3.org/2000/svg" width="17" height="17" fill="none" viewBox="0 0 17 17">
  <path fill="#fff" fill-rule="evenodd" d="M7.042.786H6.9c-1.264 0-2.07 0-2.748.206A4.75 4.75 0 00.992 4.151C.785 4.829.785 5.635.786 6.899V10.857c0 1.264 0 2.07.206 2.748a4.75 4.75 0 003.159 3.159c.678.207 1.484.207 2.748.206h.51a.75.75 0 000-1.5h-.367c-1.456 0-2.018-.008-2.454-.141a3.25 3.25 0 01-2.161-2.161c-.133-.437-.141-.998-.141-2.454V7.041c0-1.456.008-2.018.14-2.454a3.25 3.25 0 012.162-2.161c.436-.133.998-.141 2.454-.141h.367a.75.75 0 000-1.5h-.367zm6.772 4.625a.75.75 0 10-1.061 1.06l1.657 1.657h-7a.75.75 0 100 1.5h7l-1.657 1.656a.75.75 0 101.06 1.061l2.937-2.937a.75.75 0 000-1.06L13.814 5.41z" clip-rule="evenodd"/>
</svg>
