<svg xmlns="http://www.w3.org/2000/svg" width="17" height="15" fill="none" viewBox="0 0 17 15">
  <path fill="#6F767E" fill-rule="evenodd" d="M8.895 3.41c.827-.578 1.405-.982 1.86-1.242.463-.265.681-.309.8-.304.369.017.712.195.937.488.072.094.16.298.21.83.047.522.048 1.227.048 2.236v2.374c0 1.01 0 1.715-.049 2.237-.048.531-.137.735-.21.83a1.25 1.25 0 01-.936.487c-.119.005-.337-.039-.8-.303-.455-.26-1.033-.664-1.86-1.243L7.583 8.88V4.33l1.312-.918zm5.346 5.844c-.008.34-.021.644-.046.912-.055.598-.172 1.16-.513 1.605a2.75 2.75 0 01-2.062 1.074c-.56.024-1.088-.202-1.61-.5-.521-.299-1.156-.743-1.943-1.294l-.032-.023-1.118-.782v2.026a1.75 1.75 0 01-3.5 0V9.94a3.418 3.418 0 01.75-6.751h2.43l1.438-1.007.032-.022c.787-.552 1.422-.996 1.944-1.294.52-.298 1.05-.525 1.61-.5a2.75 2.75 0 012.06 1.073c.342.445.46 1.008.514 1.606.025.268.038.571.046.911a2.751 2.751 0 010 5.298zm.009-1.649a1.248 1.248 0 000-2v2zM6.083 4.69H4.167a1.917 1.917 0 100 3.833h1.916V4.69zm-1.166 5.333v2.25a.25.25 0 00.5 0v-2.25h-.5z" clip-rule="evenodd"/>
</svg>
