<svg xmlns="http://www.w3.org/2000/svg" width="16" height="16" fill="none" viewBox="0 0 16 16">
    <path stroke="#fff" stroke-linecap="round" stroke-linejoin="round" stroke-width="1.5"
          d="M4.667 5.667H8M4.667 8H10m-5.333 4v1.557c0 .355 0 .533.072.624.064.08.16.126.261.126.117 0 .256-.112.533-.334l1.59-1.272c.325-.26.488-.39.669-.482.16-.082.33-.142.507-.178.2-.041.407-.041.824-.041H10.8c1.12 0 1.68 0 2.108-.218a2 2 0 0 0 .874-.874C14 10.48 14 9.92 14 8.8V5.2c0-1.12 0-1.68-.218-2.108a2 2 0 0 0-.874-.874C12.48 2 11.92 2 10.8 2H5.2c-1.12 0-1.68 0-2.108.218a2 2 0 0 0-.874.874C2 3.52 2 4.08 2 5.2v4.133c0 .62 0 .93.068 1.185a2 2 0 0 0 1.414 1.414c.255.068.565.068 1.185.068Z"/>
</svg>
