<svg xmlns="http://www.w3.org/2000/svg" width="19" height="19" fill="none" viewBox="0 0 19 19">
    <path fill="#6F767E" fill-rule="evenodd"
          d="M9.036 1.5a7.536 7.536 0 100 15.073 7.536 7.536 0 000-15.073zM0 9.036a9.036 9.036 0 1118.073 0A9.036 9.036 0 010 9.036zm5.925-1.87a2.07 2.07 0 012.07-2.07h.416v-.618a.625.625 0 111.25 0v.618h.203a2.282 2.282 0 012.283 2.283.625.625 0 11-1.25 0c0-.57-.463-1.033-1.033-1.033h-.203v2.24l1.07.356a2.07 2.07 0 01-.654 4.034h-.416v.617a.625.625 0 01-1.25 0v-.617h-.204a2.282 2.282 0 01-2.282-2.283.625.625 0 011.25 0c0 .57.462 1.033 1.032 1.033h.204v-2.24L7.34 9.13a2.07 2.07 0 01-1.415-1.964zM8.41 8.17V6.346h-.416a.82.82 0 00-.26 1.598l.676.225zm1.25 1.734v1.822h.416a.82.82 0 00.26-1.597l-.676-.225z"
          clip-rule="evenodd"/>
</svg>
