<svg xmlns="http://www.w3.org/2000/svg" width="16" height="16" fill="none" viewBox="0 0 16 16">
  <path fill="#fff" d="M9.333 12.4c0-.373 0-.56.073-.703a.667.667 0 0 1 .291-.291c.143-.073.33-.073.703-.073h2.533c.374 0 .56 0 .703.073a.667.667 0 0 1 .291.291c.073.143.073.33.073.703v.533c0 .374 0 .56-.073.703a.667.667 0 0 1-.291.291c-.143.073-.33.073-.703.073H10.4c-.373 0-.56 0-.703-.073a.666.666 0 0 1-.291-.291c-.073-.143-.073-.33-.073-.703V12.4Z"/>
  <path stroke="#fff" stroke-linecap="round" stroke-linejoin="round" stroke-width="1.5" d="M14.667 7.333V5.467c0-.747 0-1.12-.146-1.406a1.334 1.334 0 0 0-.582-.582c-.286-.146-.659-.146-1.406-.146H3.467c-.747 0-1.12 0-1.406.146-.25.128-.455.332-.582.582-.146.286-.146.659-.146 1.406v2.4c0 .746 0 1.12.146 1.405.127.25.331.455.582.583.285.145.659.145 1.406.145h3.866M8 6.667h.003m3.33 0h.004m-6.67 0h.003m8.163 4.666v-1.166a1.167 1.167 0 0 0-2.333 0v1.166M8.167 6.667a.167.167 0 1 1-.334 0 .167.167 0 0 1 .334 0Zm3.333 0a.167.167 0 1 1-.333 0 .167.167 0 0 1 .333 0Zm-6.667 0a.167.167 0 1 1-.333 0 .167.167 0 0 1 .333 0ZM10.4 14h2.533c.374 0 .56 0 .703-.073a.667.667 0 0 0 .291-.291c.073-.143.073-.33.073-.703V12.4c0-.373 0-.56-.073-.703a.667.667 0 0 0-.291-.291c-.143-.073-.33-.073-.703-.073H10.4c-.373 0-.56 0-.703.073a.667.667 0 0 0-.291.291c-.073.143-.073.33-.073.703v.533c0 .374 0 .56.073.703a.666.666 0 0 0 .291.291c.143.073.33.073.703.073Z"/>
</svg>
