<svg xmlns="http://www.w3.org/2000/svg" width="14" height="14" fill="none" viewBox="0 0 14 14">
  <g opacity=".3">
    <path fill="url(#a)" d="M4.083 5.25a1.167 1.167 0 1 0 0-2.333 1.167 1.167 0 0 0 0 2.333Z"/>
    <path fill="url(#b)" d="M9.917 11.083a1.167 1.167 0 1 0 0-2.333 1.167 1.167 0 0 0 0 2.333Z"/>
  </g>
  <path stroke="#989A9C" stroke-linecap="round" stroke-linejoin="round" stroke-width="1.5" d="m11.083 2.917-8.166 8.166m2.333-7a1.167 1.167 0 1 1-2.333 0 1.167 1.167 0 0 1 2.333 0Zm5.833 5.833a1.167 1.167 0 1 1-2.333 0 1.167 1.167 0 0 1 2.333 0Z"/>
  <defs>
    <linearGradient id="a" x1="2.713" x2="11.287" y1="7" y2="7" gradientUnits="userSpaceOnUse">
      <stop stop-color="#E7E7E7"/>
      <stop offset=".823" stop-color="#E7E7E7" stop-opacity="0"/>
      <stop offset="1" stop-color="#E7E7E7" stop-opacity="0"/>
    </linearGradient>
    <linearGradient id="b" x1="2.713" x2="11.287" y1="7" y2="7" gradientUnits="userSpaceOnUse">
      <stop stop-color="#E7E7E7"/>
      <stop offset=".823" stop-color="#E7E7E7" stop-opacity="0"/>
      <stop offset="1" stop-color="#E7E7E7" stop-opacity="0"/>
    </linearGradient>
  </defs>
</svg>
