<svg xmlns="http://www.w3.org/2000/svg" width="14" height="14" fill="none" viewBox="0 0 14 14">
    <path fill="url(#a)"
          d="M2.917 3.033c0-.653 0-.98.127-1.23.112-.219.29-.397.51-.51.25-.126.576-.126 1.23-.126h4.433c.653 0 .98 0 1.23.127.219.112.397.29.51.51.126.25.126.576.126 1.23v7.933c0 .653 0 .98-.127 1.23-.112.219-.29.397-.51.51-.25.126-.576.126-1.23.126H4.784c-.653 0-.98 0-1.23-.127a1.166 1.166 0 0 1-.51-.51c-.126-.25-.126-.576-.126-1.23V3.034Z"
          opacity=".3"/>
    <path stroke="#6F767E" stroke-linecap="round" stroke-linejoin="round" stroke-width="1.5"
          d="M7 10.208h.006m-2.223 2.625h4.434c.653 0 .98 0 1.23-.127.219-.112.397-.29.51-.51.126-.25.126-.576.126-1.23V3.034c0-.653 0-.98-.127-1.23a1.167 1.167 0 0 0-.51-.51c-.25-.126-.576-.126-1.23-.126H4.784c-.653 0-.98 0-1.23.127-.219.112-.397.29-.51.51-.126.25-.126.576-.126 1.23v7.933c0 .653 0 .98.127 1.23.112.219.29.397.51.51.25.126.576.126 1.23.126Zm2.509-2.625a.292.292 0 1 1-.584 0 .292.292 0 0 1 .584 0Z"/>
    <defs>
        <linearGradient id="a" x1="2.713" x2="11.288" y1="7" y2="7" gradientUnits="userSpaceOnUse">
            <stop stop-color="#E7E7E7"/>
            <stop offset=".823" stop-color="#E7E7E7" stop-opacity="0"/>
            <stop offset="1" stop-color="#E7E7E7" stop-opacity="0"/>
        </linearGradient>
    </defs>
</svg>
