<svg xmlns="http://www.w3.org/2000/svg" width="14" height="19" fill="none" viewBox="0 0 14 19">
  <path fill="#6F767E" fill-rule="evenodd" d="M7.242.96h.323c1.422 0 2.328 0 3.083.26a4.75 4.75 0 012.94 2.939c.26.755.26 1.662.26 3.083V12.448c0 1.421 0 2.328-.26 3.083a4.75 4.75 0 01-2.94 2.939c-.755.26-1.661.26-3.083.26h-.323c-1.421 0-2.328 0-3.083-.26A4.75 4.75 0 011.22 15.53c-.26-.755-.26-1.662-.26-3.083V7.242c0-1.421 0-2.328.26-3.083A4.75 4.75 0 014.16 1.22C4.913.96 5.82.96 7.241.96zm.162 1.5c-1.64 0-2.27.01-2.755.178a3.25 3.25 0 00-2.011 2.01c-.168.486-.178 1.117-.178 2.756v4.882c0 1.64.01 2.27.178 2.755a3.25 3.25 0 002.01 2.011c.486.168 1.117.178 2.756.178 1.639 0 2.27-.01 2.755-.178a3.25 3.25 0 002.01-2.01c.168-.486.179-1.117.179-2.756V7.404c0-1.64-.01-2.27-.179-2.755a3.25 3.25 0 00-2.01-2.011c-.486-.168-1.116-.178-2.755-.178zM5.027 15.54a.75.75 0 01.75-.75H9.03a.75.75 0 010 1.5H5.777a.75.75 0 01-.75-.75zM7.404 4.964a.813.813 0 100-1.627.813.813 0 000 1.627z" clip-rule="evenodd"/>
</svg>
