<svg id="Layer_1" data-name="Layer 1" xmlns="http://www.w3.org/2000/svg" viewBox="0 0 21.5 21.5">
    <defs>
        <style>.cls-1{fill:#fff;fill-rule:evenodd;}</style>
    </defs>
    <path class="cls-1"
          d="M14.38,5.52h0c-.88,0-1.59,0-2.16.05A4.48,4.48,0,0,0,8.63,7.48,4.58,4.58,0,0,0,8,8.94c-.17.55-.33,1.24-.53,2.1h0v0L5.89,17.66a5,5,0,0,1,2.34-1.25,8.25,8.25,0,0,1,1.89-.14H22.45a8.2,8.2,0,0,1,1.89.14,5,5,0,0,1,2.35,1.25l-1.53-6.59v0h0c-.2-.86-.36-1.55-.53-2.1a4.81,4.81,0,0,0-.69-1.46A4.69,4.69,0,0,0,22,5.9a4.88,4.88,0,0,0-1.58-.33c-.58-.05-1.28-.05-2.17-.05H14.38Zm-4.21,12H22.4a7.45,7.45,0,0,1,1.86.13,3.77,3.77,0,0,1,2.65,2.65A7.45,7.45,0,0,1,27,22.16h0v.23h0a7.32,7.32,0,0,1-.13,1.85,3.77,3.77,0,0,1-2.65,2.66A8.06,8.06,0,0,1,22.4,27H10.17a8,8,0,0,1-1.85-.12,3.73,3.73,0,0,1-2.65-2.66,7.32,7.32,0,0,1-.13-1.85v-.23a7.45,7.45,0,0,1,.13-1.86,3.74,3.74,0,0,1,2.65-2.65A7.36,7.36,0,0,1,10.17,17.52Zm1.12,5.75a1,1,0,1,0-1-1A1,1,0,0,0,11.29,23.27Zm3.25-1a.75.75,0,0,1,.75-.75h6a.75.75,0,0,1,0,1.5h-6A.74.74,0,0,1,14.54,22.27Z"
          transform="translate(-5.54 -5.52)"/>
</svg>