<svg xmlns="http://www.w3.org/2000/svg" width="336" height="336" fill="none" viewBox="0 0 336 336">
    <g opacity=".04">
        <mask id="b" width="336" height="336" x="0" y="0" maskUnits="userSpaceOnUse" style="mask-type:alpha">
            <path fill="url(#a)" d="M0 0h336v336H0z"/>
        </mask>
        <g mask="url(#b)">
            <circle cx="168" cy="168" r="47.5" stroke="#EAECF0"/>
            <circle cx="168" cy="168" r="47.5" stroke="#EAECF0"/>
            <circle cx="168" cy="168" r="71.5" stroke="#EAECF0"/>
            <circle cx="168" cy="168" r="95.5" stroke="#EAECF0"/>
            <circle cx="168" cy="168" r="119.5" stroke="#EAECF0"/>
            <circle cx="168" cy="168" r="143.5" stroke="#EAECF0"/>
            <circle cx="168" cy="168" r="167.5" stroke="#EAECF0"/>
        </g>
    </g>
    <rect width="40" height="40" x="149" y="148" fill="#141414" fill-opacity=".51" rx="20"/>
    <path fill="url(#c)"
          d="M159 164.2v1.8h20v-1.8c0-1.12 0-1.68-.218-2.108a2.006 2.006 0 0 0-.874-.874c-.428-.218-.988-.218-2.108-.218h-13.6c-1.12 0-1.68 0-2.108.218a2.006 2.006 0 0 0-.874.874c-.218.428-.218.988-.218 2.108Z"
          opacity=".3"/>
    <path stroke="#989A9C" stroke-linecap="round" stroke-linejoin="round" stroke-width="1.5"
          d="M179 166h-20m9 9h7.8c1.12 0 1.68 0 2.108-.218.376-.192.682-.498.874-.874.218-.428.218-.988.218-2.108v-7.6c0-1.12 0-1.68-.218-2.108a2.006 2.006 0 0 0-.874-.874c-.428-.218-.988-.218-2.108-.218H174m-6 14 2 2m-2-2 2-2m-6 2h-1.8c-1.12 0-1.68 0-2.108-.218a2.006 2.006 0 0 1-.874-.874c-.218-.428-.218-.988-.218-2.108v-7.6c0-1.12 0-1.68.218-2.108.192-.376.498-.682.874-.874.428-.218.988-.218 2.108-.218h7.8m0 0-2 2m2-2-2-2"/>
    <defs>
        <radialGradient id="a" cx="0" cy="0" r="1" gradientTransform="rotate(90 0 168) scale(168)"
                        gradientUnits="userSpaceOnUse">
            <stop/>
            <stop offset="1" stop-opacity="0"/>
        </radialGradient>
        <linearGradient id="c" x1="158.5" x2="179.5" y1="163.5" y2="163.5" gradientUnits="userSpaceOnUse">
            <stop stop-color="#E7E7E7"/>
            <stop offset=".823" stop-color="#E7E7E7" stop-opacity="0"/>
            <stop offset="1" stop-color="#E7E7E7" stop-opacity="0"/>
        </linearGradient>
    </defs>
</svg>
