<svg xmlns="http://www.w3.org/2000/svg" width="18" height="18" fill="none" viewBox="0 0 18 18">
    <path fill="#6F767E" fill-rule="evenodd"
          d="M8.896 1.5a7.396 7.396 0 100 14.792 7.396 7.396 0 000-14.792zM0 8.896a8.896 8.896 0 1117.792 0A8.896 8.896 0 010 8.896zm9.71 3.258a.815.815 0 11-1.629 0 .815.815 0 011.63 0zM8.017 7.267a.88.88 0 011.758 0v.098c0 .26-.103.509-.286.692L8.366 9.18a.75.75 0 001.06 1.06l1.123-1.122a2.478 2.478 0 00.726-1.753v-.098a2.38 2.38 0 10-4.758 0v.407a.75.75 0 101.5 0v-.407z"
          clip-rule="evenodd"/>
</svg>
