<svg xmlns="http://www.w3.org/2000/svg" width="18" height="18" fill="none" viewBox="0 0 18 18">
  <path stroke="#fff" stroke-linecap="round" stroke-linejoin="round" stroke-width="1.5" d="M7.875 9H3.75m-.063.219-1.752 5.23c-.137.412-.206.617-.157.744.043.11.135.193.249.225.13.036.328-.053.724-.23l12.533-5.64c.386-.174.579-.261.638-.382a.375.375 0 0 0 0-.332c-.06-.12-.252-.207-.638-.381L2.746 2.81c-.394-.177-.59-.266-.721-.23a.375.375 0 0 0-.25.225c-.049.126.02.331.156.741l1.756 5.292c.023.07.035.106.04.142a.375.375 0 0 1 0 .096c-.005.036-.017.071-.04.142Z"/>
</svg>
