<svg xmlns="http://www.w3.org/2000/svg" width="18" height="18" fill="none" viewBox="0 0 18 18">
  <path stroke="#fff" stroke-linecap="round" stroke-linejoin="round" stroke-width="1.5" d="M5.25 11.25 7.5 9 5.25 6.75m4.5 4.5h3m-6.9 4.5h6.3c1.26 0 1.89 0 2.371-.245a2.25 2.25 0 0 0 .984-.984c.245-.48.245-1.11.245-2.371v-6.3c0-1.26 0-1.89-.245-2.371a2.25 2.25 0 0 0-.984-.984c-.48-.245-1.11-.245-2.371-.245h-6.3c-1.26 0-1.89 0-2.371.245a2.25 2.25 0 0 0-.984.984c-.245.48-.245 1.11-.245 2.371v6.3c0 1.26 0 1.89.245 2.371.216.424.56.768.984.984.48.245 1.11.245 2.371.245Z"/>
</svg>
