<svg xmlns="http://www.w3.org/2000/svg" width="18" height="18" fill="none" viewBox="0 0 18 18">
  <path stroke="#fff" stroke-linecap="round" stroke-linejoin="round" stroke-width="1.5" d="M12 6V3.375c0-.623 0-.935-.131-1.127a.75.75 0 0 0-.493-.315c-.23-.04-.512.092-1.079.353l-6.653 3.07c-.505.234-.757.35-.942.531a1.5 1.5 0 0 0-.365.57c-.087.244-.087.522-.087 1.079v3.714m10.125-.375h.008M2.25 8.4v4.95c0 .84 0 1.26.163 1.581a1.5 1.5 0 0 0 .656.655c.32.164.74.164 1.581.164h8.7c.84 0 1.26 0 1.581-.164a1.5 1.5 0 0 0 .655-.655c.164-.32.164-.74.164-1.581V8.4c0-.84 0-1.26-.164-1.581a1.5 1.5 0 0 0-.655-.656C14.611 6 14.191 6 13.35 6h-8.7c-.84 0-1.26 0-1.581.163a1.5 1.5 0 0 0-.656.656c-.163.32-.163.74-.163 1.581Zm10.5 2.475a.375.375 0 1 1-.75 0 .375.375 0 0 1 .75 0Z"/>
</svg>
