<svg xmlns="http://www.w3.org/2000/svg" width="16" height="16" fill="none" viewBox="0 0 16 16">
  <path fill="#fff" fill-rule="evenodd" d="M8.932.722c.272.118.433.4.396.694L8.755 6h4.13c.16 0 .324 0 .457.012.125.011.366.041.575.21a1 1 0 0 1 .371.793 1.044 1.044 0 0 1-.207.577c-.075.11-.18.234-.282.358l-5.954 7.144a.667.667 0 0 1-1.173-.51L7.245 10h-4.13c-.16 0-.324 0-.457-.012a1.045 1.045 0 0 1-.575-.21 1 1 0 0 1-.371-.793c.004-.269.135-.473.207-.577.075-.11.18-.234.283-.358l.015-.018L8.155.907a.667.667 0 0 1 .777-.185Z" clip-rule="evenodd"/>
</svg>
