<svg xmlns="http://www.w3.org/2000/svg" viewBox="0 0 10.68 11.84"><defs><style>.cls-1{fill:#fff;}</style></defs><g id="Layer_2" data-name="Layer 2"><g id="Layer_1-2" data-name="Layer 1"><path class="cls-1" d="M.8,4.23,3.37,1.38h0A6.11,6.11,0,0,1,4.6.17,1.49,1.49,0,0,1,6.68,1a6.25,6.25,0,0,1,.1,1.71v.18a2.85,2.85,0,0,0,0,.49A1.49,1.49,0,0,0,8.06,4.62a3.06,3.06,0,0,0,.5,0,6.29,6.29,0,0,1,.93,0,1.5,1.5,0,0,1,1,2.21,5,5,0,0,1-.6.72L7.3,10.46h0a6.2,6.2,0,0,1-1.22,1.21A1.49,1.49,0,0,1,4,10.87a6.35,6.35,0,0,1-.1-1.72V9a3.06,3.06,0,0,0,0-.5A1.51,1.51,0,0,0,2.61,7.21H2.12a6.29,6.29,0,0,1-.93,0A1.5,1.5,0,0,1,.2,5,5.66,5.66,0,0,1,.8,4.23Z"/></g></g></svg>