<svg xmlns="http://www.w3.org/2000/svg" width="17" height="17" fill="none" viewBox="0 0 17 17">
  <path fill="#6F767E" fill-rule="evenodd" d="M12.262 3.055a1.555 1.555 0 113.111.001 1.555 1.555 0 01-3.11-.001zM13.82 0a3.056 3.056 0 10-.002 6.111A3.056 3.056 0 0013.82 0zm-5.77.768h-.026c-1.049 0-1.871 0-2.536.042-.677.042-1.242.13-1.768.329A5.75 5.75 0 00.371 4.487C.172 5.013.084 5.578.04 6.255 0 6.92 0 7.742 0 8.79V8.842c0 1.048 0 1.87.042 2.536.042.677.13 1.241.329 1.767a5.75 5.75 0 003.348 3.349c.526.198 1.091.286 1.768.329.666.041 1.489.041 2.538.041H8.076c1.052 0 1.876 0 2.544-.042.678-.042 1.244-.13 1.771-.33a5.75 5.75 0 003.343-3.343c.2-.527.288-1.092.33-1.77.042-.667.042-1.491.042-2.542v-.405a.75.75 0 00-1.5 0v.38c0 1.081 0 1.858-.039 2.472-.038.608-.112 1.006-.236 1.335a4.25 4.25 0 01-2.47 2.47c-.329.124-.727.198-1.336.236-.614.039-1.392.04-2.474.04-1.08 0-1.857-.001-2.47-.04-.607-.037-1.005-.11-1.332-.234a4.25 4.25 0 01-2.475-2.476c-.124-.327-.197-.724-.235-1.331C1.5 10.67 1.5 9.896 1.5 8.816s0-1.854.039-2.467c.038-.607.111-1.004.235-1.332a4.25 4.25 0 012.475-2.475c.327-.124.725-.197 1.332-.235.612-.038 1.387-.039 2.467-.039h.39a.75.75 0 000-1.5h-.39z" clip-rule="evenodd"/>
  <ellipse cx="13.819" cy="3.055" fill="#FF2E2E" stroke="#FF2E2E" stroke-linecap="round" stroke-linejoin="round" stroke-width="1.5" rx="2.306" ry="2.305"/>
</svg>
