<svg xmlns="http://www.w3.org/2000/svg" width="13" height="13" fill="none" viewBox="0 0 13 13">
  <g clip-path="url(#a)">
    <path fill="#D7D7D7" d="M4.875 6.608c0-.606 0-.91.118-1.141.104-.204.27-.37.474-.474.231-.118.535-.118 1.141-.118h3.575c.607 0 .91 0 1.142.118.204.104.37.27.474.474.118.231.118.535.118 1.141v3.575c0 .607 0 .91-.118 1.142-.104.204-.27.37-.474.474-.232.118-.535.118-1.142.118H6.608c-.606 0-.91 0-1.141-.118a1.084 1.084 0 0 1-.474-.474c-.118-.232-.118-.535-.118-1.142V6.608Z"/>
    <path stroke="#fff" stroke-linecap="round" stroke-linejoin="round" stroke-width="1.5" d="M2.708 8.125c-.504 0-.757 0-.956-.083a1.083 1.083 0 0 1-.586-.586c-.083-.199-.083-.451-.083-.956V2.817c0-.607 0-.91.118-1.142.104-.204.27-.37.474-.474.232-.118.535-.118 1.142-.118H6.5c.505 0 .757 0 .956.083.266.11.477.32.587.586.082.2.082.451.082.956m-1.517 9.209h3.575c.607 0 .91 0 1.142-.118.204-.104.37-.27.474-.474.118-.232.118-.535.118-1.142V6.608c0-.606 0-.91-.118-1.142a1.084 1.084 0 0 0-.474-.473c-.232-.118-.535-.118-1.142-.118H6.608c-.606 0-.91 0-1.141.118-.204.104-.37.27-.474.473-.118.232-.118.536-.118 1.142v3.575c0 .607 0 .91.118 1.142.104.204.27.37.474.474.231.118.535.118 1.141.118Z"/>
  </g>
  <defs>
    <clipPath id="a">
      <path fill="#fff" d="M0 0h13v13H0z"/>
    </clipPath>
  </defs>
</svg>
