<svg xmlns="http://www.w3.org/2000/svg" viewBox="0 0 12.4 12.4"><defs><style>.cls-1{fill:none;stroke:#fff;}</style></defs><g id="Layer_2" data-name="Layer 2"><g id="Layer_4" data-name="Layer 4"><path class="cls-1" d="M3.3,6.37a6.48,6.48,0,0,1,0-3A3.68,3.68,0,0,1,6,.67a6.48,6.48,0,0,1,3,0A3.68,3.68,0,0,1,11.73,3.4a6.48,6.48,0,0,1,0,3A3.68,3.68,0,0,1,9,9.1a6.48,6.48,0,0,1-3,0M3.3,6.37A3.68,3.68,0,0,0,6,9.1M3.3,6.37A7,7,0,0,1,3.14,4.5L3,4.53A3.12,3.12,0,0,0,.65,6.87a5.49,5.49,0,0,0,0,2.55A3.11,3.11,0,0,0,3,11.75a5.49,5.49,0,0,0,2.55,0A3.12,3.12,0,0,0,7.87,9.42l0-.16A7,7,0,0,1,6,9.1"/></g></g></svg>