<svg xmlns="http://www.w3.org/2000/svg" width="18" height="18" fill="none" viewBox="0 0 18 18">
  <path stroke="#fff" stroke-linecap="round" stroke-linejoin="round" stroke-width="1.5" d="M15 7.125V5.1c0-1.26 0-1.89-.245-2.371a2.25 2.25 0 0 0-.984-.984c-.48-.245-1.11-.245-2.371-.245H6.6c-1.26 0-1.89 0-2.371.245a2.25 2.25 0 0 0-.984.984C3 3.209 3 3.839 3 5.1v7.8c0 1.26 0 1.89.245 2.371.216.424.56.768.984.984.48.245 1.11.245 2.371.245h3.9m0-8.25H6m1.5 3H6m6-6H6m6.375 6.002a1.686 1.686 0 0 1 3.277.562c0 1.124-1.686 1.686-1.686 1.686m.021 2.25h.008"/>
</svg>
