<svg id="Layer_1" data-name="Layer 1" xmlns="http://www.w3.org/2000/svg" viewBox="0 0 650 650"><defs><style>.cls-1{fill:#fff;}.cls-2{fill:#0b57ff;}</style></defs><circle cx="322.76" cy="325" r="121.83"/><path class="cls-1" d="M325,0C145.51,0,0,145.51,0,325S145.51,650,325,650,650,504.49,650,325h0C650,145.51,504.49,0,325,0Zm0,537.67c-117.46,0-212.67-95.21-212.67-212.67S207.54,112.33,325,112.33a208.85,208.85,0,0,1,133.29,47.92,11.23,11.23,0,0,1-14.22,17.23A187.78,187.78,0,0,0,395.39,149a91.35,91.35,0,0,0-69.68,74.91,11.23,11.23,0,1,1,0,22.46h0a90.61,90.61,0,0,0,74.88,74.89,11.24,11.24,0,0,1,22.47,0,91.37,91.37,0,0,0,74.88-69.65,187.79,187.79,0,0,0-28.45-48.67,11.23,11.23,0,0,1,15.71-16.06,11.48,11.48,0,0,1,1.51,1.83A209,209,0,0,1,533.18,322c0,115.73-92.48,210.23-208.18,212.68Z"/><path class="cls-2" d="M129.22,329.71c-.45,115.83,110.39,200,211.32,190.24,93.91-9.08,150.12-90.31,155.51-99.9,8.23-13.14,21.5-51,21.12-95.05-.28-34-10.54-63.36-17.42-76.9-8.42,36.32-39.86,67.4-76.69,73.16l.11,3.74c0,55.84-40.83,100.35-96.67,100.36a101.1,101.1,0,1,1,0-202.2h0c5.76-36.83,32.53-67.26,68.85-75.68-22.37-9.06-46.19-15.21-70.33-15C219.89,132.44,129.63,224.54,129.22,329.71Z"/><path d="M491.24,191.71a11.23,11.23,0,1,0-18.73,12.4,11,11,0,0,0,1.51,1.82,188.16,188.16,0,0,1,28.46,48.68A184.55,184.55,0,0,1,516,325c0,105.46-85.5,191-191,191S134,430.5,134,325s85.5-191,191-191a184.17,184.17,0,0,1,70.39,13.48A188.14,188.14,0,0,1,444.07,176a11.23,11.23,0,0,0,14.22-15.73A209,209,0,0,0,325,113.84c-117.46,0-212.67,95.23-212.67,212.68S207.55,539.17,325,539.17,537.71,444,537.71,326.49V325A208.84,208.84,0,0,0,491.24,191.71Z"/></svg>