<svg id="Layer_1" data-name="Layer 1" xmlns="http://www.w3.org/2000/svg" viewBox="0 0 635 635"><defs><style>.cls-1{fill:#fff;}.cls-2{fill:#0b57ff;}</style></defs><rect width="635" height="635" rx="134.25"/><circle cx="315.94" cy="317.5" r="87.2"/><path class="cls-1" d="M325,92.88C196.52,92.88,92.37,197,92.37,325.5S196.54,558.13,325,558.13,557.62,454,557.62,325.5h0C557.68,197,453.51,92.88,325,92.88Zm0,384.86a152.23,152.23,0,0,1,0-304.46,149.54,149.54,0,0,1,95.41,34.3A8,8,0,0,1,410.26,220a134.33,134.33,0,0,0-34.84-20.47,65.41,65.41,0,0,0-49.87,53.63,8,8,0,0,1,.59,16.08h-.59a64.86,64.86,0,0,0,53.6,53.6,8,8,0,0,1,16.08,0A65.4,65.4,0,0,0,448.85,273a134.41,134.41,0,0,0-20.36-34.84,8,8,0,0,1,11.24-11.5h0a9.72,9.72,0,0,1,1.08,1.32,149.66,149.66,0,0,1,33.24,95.4A152.24,152.24,0,0,1,325,475.59Z" transform="translate(-7.5 -8)"/><path class="cls-2" d="M184.9,328.87C184.57,411.8,263.91,472,336.16,465c67.22-6.46,107.46-64.62,111.31-71.51,5.89-9.4,15.39-36.5,15.08-68-.2-24.34-7.54-45.35-12.47-55-6,26-28.53,48.24-54.93,52.36l.08,2.68c0,40-29.22,71.83-69.2,71.83a72.37,72.37,0,0,1,0-144.73h0c4.13-26.36,23.29-48.14,49.29-54.17-16-6.46-33.07-10.89-50.34-10.77C249.8,187.65,185.19,253.59,184.9,328.87Z" transform="translate(-7.5 -8)"/><path d="M444,230.09A8,8,0,1,0,430.63,239a7.85,7.85,0,0,0,1.08,1.3,134.67,134.67,0,0,1,20.37,34.85,132,132,0,0,1,9.69,50.38A136.72,136.72,0,1,1,325,188.78a132,132,0,0,1,50.38,9.69,134.75,134.75,0,0,1,34.84,20.46,8,8,0,0,0,10.19-11.26A149.7,149.7,0,0,0,325,174.35,152.23,152.23,0,1,0,477.29,326.58V325.5A149.47,149.47,0,0,0,444,230.09Z" transform="translate(-7.5 -8)"/></svg>