<svg xmlns="http://www.w3.org/2000/svg" width="16" height="16" fill="none" viewBox="0 0 16 16">
  <path fill="#fff" fill-rule="evenodd" d="M2 6.8c0-1.68 0-2.52.327-3.162a3 3 0 0 1 1.311-1.311C4.28 2 5.12 2 6.8 2h3.4c1.68 0 2.52 0 3.162.327a3 3 0 0 1 1.311 1.311C15 4.28 15 5.12 15 6.8v1.233c0 1.68 0 2.52-.327 3.162a3 3 0 0 1-1.311 1.311c-.642.327-1.486.327-3.174.327-.627 0-.94 0-1.239.062a2.997 2.997 0 0 0-.762.267c-.27.138-.514.333-1.002.723l-.996.797c-.416.333-.624.5-.8.5a.5.5 0 0 1-.39-.188c-.11-.137-.11-.403-.11-.936v-1.225A2.889 2.889 0 0 1 2 9.944V6.8Zm6.5-2.661a.75.75 0 0 1 .75.75v2.528a.75.75 0 1 1-1.5 0V4.889a.75.75 0 0 1 .75-.75Zm0 5.055a.75.75 0 1 0 0 1.5h.008a.75.75 0 0 0 0-1.5H8.5Z" clip-rule="evenodd"/>
</svg>
