<svg xmlns="http://www.w3.org/2000/svg" width="16" height="18" fill="none" viewBox="0 0 16 18">
  <path fill="#fff" fill-rule="evenodd" d="M8.335 2.105a.75.75 0 00-.691-.242s-.04.009-.135.077a3.116 3.116 0 00-.418.384c-.363.384-.82.954-1.468 1.765L2.677 7.772c-.373.466-.629.786-.802 1.036-.18.259-.208.356-.212.375a.75.75 0 00.381.793c.018.01.11.048.426.07.303.02.713.02 1.31.02h.11c.506 0 .943 0 1.317.135a2.25 2.25 0 011.351 1.35c.136.375.135.812.134 1.317v.327c0 1.039 0 1.77.045 2.296.021.26.051.439.085.561.03.108.056.143.058.146a.75.75 0 00.69.242c.004-.001.046-.012.137-.078a3.11 3.11 0 00.417-.384c.364-.384.82-.954 1.469-1.765l2.946-3.682c.373-.467.628-.787.802-1.036.18-.26.208-.356.212-.376a.75.75 0 00-.382-.793c-.017-.01-.11-.048-.425-.07a22.11 22.11 0 00-1.421-.02c-.505 0-.942.001-1.317-.135a2.25 2.25 0 01-1.35-1.35c-.136-.375-.136-.812-.135-1.317v-.327c0-1.038 0-1.769-.044-2.296a3.116 3.116 0 00-.086-.561.477.477 0 00-.058-.145zm-.95-1.72a2.25 2.25 0 012.076.728c.366.416.466 1.01.513 1.574.05.597.05 1.39.05 2.382v.254c0 .682.01.825.044.918a.75.75 0 00.45.45c.093.033.236.045.918.045h.027c.563 0 1.024 0 1.384.024.354.024.722.075 1.038.247a2.25 2.25 0 011.144 2.379c-.064.354-.254.673-.456.965-.206.296-.494.656-.846 1.095l-.017.022-2.946 3.682-.023.029c-.62.775-1.116 1.394-1.527 1.83-.389.41-.838.813-1.384.908a2.25 2.25 0 01-2.075-.728c-.367-.416-.467-1.01-.513-1.574-.05-.597-.05-1.39-.05-2.382v-.254c0-.682-.011-.825-.044-.917a.75.75 0 00-.45-.45c-.093-.034-.237-.045-.918-.045h-.028c-.563 0-1.023 0-1.383-.025-.355-.024-.722-.075-1.039-.246a2.25 2.25 0 01-1.143-2.38c.064-.354.253-.673.456-.964.206-.297.494-.657.845-1.096l.017-.021 2.946-3.683.023-.029c.62-.775 1.116-1.394 1.527-1.83.39-.41.838-.812 1.384-.908z" clip-rule="evenodd"/>
</svg>
