<svg xmlns="http://www.w3.org/2000/svg" width="14" height="14" fill="none" viewBox="0 0 14 14">
    <path fill="url(#a)"
          d="M1.167 4.783v1.05h11.666v-1.05c0-.653 0-.98-.127-1.23a1.166 1.166 0 0 0-.51-.51c-.25-.126-.576-.126-1.23-.126H3.034c-.653 0-.98 0-1.23.127-.219.112-.397.29-.51.51-.126.25-.126.576-.126 1.23Z"
          opacity=".4"/>
    <path stroke="#989A9C" stroke-linecap="round" stroke-linejoin="round" stroke-width="1.5"
          d="M12.833 5.833H1.167m5.25 2.334H3.5M1.167 4.783v4.434c0 .653 0 .98.127 1.23.112.219.29.397.51.51.25.126.576.126 1.23.126h7.933c.653 0 .98 0 1.23-.127.219-.112.397-.29.51-.51.126-.25.126-.576.126-1.23V4.784c0-.653 0-.98-.127-1.23a1.166 1.166 0 0 0-.51-.51c-.25-.126-.576-.126-1.23-.126H3.034c-.653 0-.98 0-1.23.127-.219.112-.397.29-.51.51-.126.25-.126.576-.126 1.23Z"/>
    <defs>
        <linearGradient id="a" x1=".875" x2="13.125" y1="4.375" y2="4.375" gradientUnits="userSpaceOnUse">
            <stop stop-color="#E7E7E7"/>
            <stop offset=".823" stop-color="#E7E7E7" stop-opacity="0"/>
            <stop offset="1" stop-color="#E7E7E7" stop-opacity="0"/>
        </linearGradient>
    </defs>
</svg>
