<svg xmlns="http://www.w3.org/2000/svg" width="14" height="14" fill="none" viewBox="0 0 14 14">
    <path fill="#fff" fill-rule="evenodd"
          d="M10.406 1.167H3.594c-.307 0-.573 0-.791.017-.23.02-.46.06-.681.173a1.75 1.75 0 0 0-.765.765 1.79 1.79 0 0 0-.173.68c-.018.22-.018.485-.017.792v6.812c0 .307 0 .573.017.791.02.23.06.46.173.68.168.33.436.598.765.766.22.112.45.154.68.172.22.018.485.018.792.018h6.812c.307 0 .572 0 .79-.018.232-.018.46-.06.682-.172a1.75 1.75 0 0 0 .764-.765c.113-.22.155-.45.173-.68.018-.22.018-.485.018-.792V3.594c0-.307 0-.573-.018-.791a1.78 1.78 0 0 0-.173-.68 1.75 1.75 0 0 0-.764-.766 1.782 1.782 0 0 0-.681-.173c-.219-.017-.484-.017-.791-.017ZM8.75 4.375a.875.875 0 1 1 1.75 0 .875.875 0 0 1-1.75 0ZM6.125 7a.875.875 0 1 1 1.75 0 .875.875 0 0 1-1.75 0Zm-1.75 1.75a.875.875 0 1 0 0 1.75.875.875 0 0 0 0-1.75Z"
          clip-rule="evenodd"/>
</svg>
