<svg xmlns="http://www.w3.org/2000/svg" width="14" height="17" fill="none" viewBox="0 0 14 17">
    <path fill="#fff" fill-rule="evenodd"
          d="M7.33.79h.049c.824 0 1.477 0 2.007.033.541.034 1.004.104 1.439.266a4.75 4.75 0 012.796 2.795c.162.436.231.898.265 1.44.033.53.033 1.182.033 2.006v5.475a.75.75 0 01-.043.25 4.385 4.385 0 01-4.341 3.77H3.357A2.567 2.567 0 01.791 14.26V7.33c0-.824 0-1.477.032-2.007.034-.54.104-1.003.266-1.439A4.75 4.75 0 013.884 1.09c.436-.162.898-.232 1.44-.266C5.853.791 6.505.791 7.33.791zM2.29 11.924V7.356c0-.854 0-1.46.03-1.939.03-.472.086-.77.175-1.009a3.25 3.25 0 011.912-1.912c.24-.09.537-.145 1.01-.174.477-.03 1.084-.03 1.938-.03.854 0 1.46 0 1.938.03.472.029.77.085 1.009.174a3.25 3.25 0 011.913 1.912c.089.24.145.537.174 1.01.03.477.03 1.084.03 1.938v4.337H3.357c-.38 0-.742.083-1.066.232zm0 2.336c0 .589.478 1.067 1.067 1.067h6.178a2.885 2.885 0 002.785-2.134H3.357c-.589 0-1.066.478-1.066 1.067zm2.134-9.085a.75.75 0 01.75-.75h4.36a.75.75 0 010 1.5h-4.36a.75.75 0 01-.75-.75z"
          clip-rule="evenodd"/>
</svg>
