<svg xmlns="http://www.w3.org/2000/svg" width="17" height="17" fill="none" viewBox="0 0 17 17">
    <path stroke="#fff" stroke-linecap="round" stroke-linejoin="round" stroke-width="1.5"
          d="M9.916 7.792h-4.25m1.417 2.833H5.666m5.667-5.667H5.666m8.5-.141v7.366c0 1.19 0 1.786-.231 2.24-.204.4-.53.725-.929.929-.454.231-1.05.231-2.24.231H6.233c-1.19 0-1.785 0-2.24-.231a2.125 2.125 0 0 1-.928-.929c-.232-.454-.232-1.05-.232-2.24V4.817c0-1.19 0-1.786.232-2.24.203-.4.528-.725.928-.929.455-.231 1.05-.231 2.24-.231h4.533c1.19 0 1.786 0 2.24.231.4.204.725.53.929.929.231.454.231 1.05.231 2.24Z"/>
</svg>
