<svg xmlns="http://www.w3.org/2000/svg" width="20" height="18" fill="none" viewBox="0 0 20 18">
    <path fill="#fff"
          d="M5.01 16.569l.443-.606-.443.606zm.407.248l-.375.65.009.005.366-.655zm-1.149-2.416l-.72-.208.72.208zm.17-.446l.694.284a.725.725 0 00.008-.02l-.702-.264zm0 0l-.694-.284a.906.906 0 00-.008.02l.702.264zm-.163-1.565l-.649.375.001.002.648-.377zm-.013-.023l-.65.374v.001l.65-.375zm-1.273-.922l-.1.744.1-.744zm-.47-.075l.18-.728-.18.728zM1.011 9.643l.745-.08-.745.08zm0-.954l.745.08-.745-.08zm1.506-1.726l-.18-.728.18.728zm.471-.076l.102.743-.102-.743zm1.273-.921l-.65-.375.65.375zm.013-.023l-.648-.377v.001l.648.376zm.163-1.565l.694-.284-.694.284zm-.17-.446l-.72.207.72-.207zm.742-2.168l-.443-.605.443.605zm.407-.248l.375.649-.375-.65zm.42-.229L5.532.601l.303.686zm2.247.442l-.54.52.54-.52zm.302.37l-.593.46.593-.46zm1.435.642v-.75H9.82l.001.75zm.014 0v-.75h-.001v.75zm.012 0l.002-.75-.002.75zm1.436-.642l.593.46-.593-.46zm.302-.37l.54.52-.54-.52zm2.248-.442L14.136.6l-.303.686zm.419.228l-.375.65a.798.798 0 00.023.013l.352-.663zm0 0l.368-.653a.968.968 0 00-.016-.009l-.352.662zm0 0l.375-.65-.007-.003-.368.653zm.407.249l-.443.605.443-.605zm.742 2.168l-.721-.208.72.208zm-.17.446l.694.284-.694-.284zm.163 1.565l.649-.376v-.001l-.65.377zm.013.023l.65-.374V5.59l-.65.375zm1.273.921l-.102.743.102-.743zm.47.076l.181-.728-.18.728zm1.508 1.726l.745-.08-.745.08zm0 .954l.745.081-.745-.08zM17.15 11.37l-.18-.728.18.728zm-.471.075l.099.744h.002l-.101-.744zm0 0l.093.745.006-.001-.1-.744zm0 0l-.093-.744a.757.757 0 00-.03.005l.123.74zm0 0l.101.744a.827.827 0 00.022-.004l-.123-.74zm-1.273.922l.65.375v-.001l-.65-.374zm-.013.023l.648.377v-.002l-.648-.375zm-.163 1.565l.694-.284-.694.284zm.17.446l-.721.207.72-.207zm-.742 2.168l.443.605-.443-.605zm-.407.248l-.375-.65-.011.007.386.643zm0 0l.375.65.01-.006-.385-.644zm-.42.229l.304.686-.303-.686zm-2.247-.442l.54-.52-.54.52zm-.302-.37l.593-.46-.593.46zm-1.436-.643l.001.75v-.75zm-.012 0l-.001.75h.001v-.75zm-.014 0l-.001.75.001-.75zm-1.435.643l.582.473a.685.685 0 00.01-.014l-.592-.46zm0 0l-.582-.473a.753.753 0 00-.042.057l.624.416zm0 0l.585.468a.776.776 0 00.039-.052l-.624-.416zm0 0l-.586-.469-.007.01.593.459zm-.302.37l.54.52-.54-.52zm-2.248.442l-.303.686.303-.686zm-.419-.229l.375-.65a.873.873 0 00-.022-.012l-.353.662zm0 0l.353-.662a.762.762 0 00-.057-.027l-.296.69zm0 0l-.366.655a.75.75 0 00.07.035l.296-.69zm-.85.357c.128.093.278.179.475.293l.75-1.3a4.403 4.403 0 01-.34-.204l-.885 1.211zm-1.02-2.98a2.75 2.75 0 001.02 2.98l.886-1.21a1.25 1.25 0 01-.464-1.356l-1.441-.415zm.197-.523c-.086.21-.153.37-.196.522l1.441.415c.016-.055.043-.124.143-.37l-1.388-.567zm-.008.02l1.404.527-1.404-.527zm-.109-.924c.19.327.218.658.117.904l1.388.568c.317-.776.157-1.598-.208-2.226l-1.297.754zm-.014-.025l.013.023 1.299-.75-.014-.024-1.298.751zm-.725-.553c.263.036.535.224.724.552l1.3-.748c-.361-.628-.992-1.178-1.821-1.29l-.203 1.486zm-.55-.091c.153.038.324.06.55.09l.203-1.486a4.418 4.418 0 01-.392-.06l-.361 1.456zM.266 9.723a2.75 2.75 0 002.072 2.373l.36-1.455a1.25 1.25 0 01-.94-1.08l-1.492.162zM.25 9.166c0 .228-.001.4.016.558l1.491-.161a4.441 4.441 0 01-.007-.397H.25zm.016-.557c-.017.157-.016.33-.016.557h1.5c0-.265.001-.339.007-.396L.266 8.609zm2.072-2.374A2.75 2.75 0 00.266 8.61l1.491.16A1.25 1.25 0 012.7 7.692l-.361-1.456zm.55-.09c-.226.03-.397.052-.55.09l.36 1.456c.057-.014.13-.025.393-.06l-.203-1.487zm.724-.553c-.189.327-.46.516-.724.552l.203 1.486c.829-.113 1.46-.662 1.821-1.29l-1.3-.748zm.014-.025l-.013.024 1.298.75.014-.023-1.299-.75zm.118-.905c.1.246.073.577-.117.904l1.297.754c.364-.628.525-1.45.208-2.226l-1.388.568zm-.196-.523c.043.153.11.312.196.523l1.388-.568a4.444 4.444 0 01-.143-.37l-1.441.415zm1.02-2.98a2.75 2.75 0 00-1.02 2.98l1.441-.415a1.25 1.25 0 01.464-1.354l-.886-1.211zm.474-.293c-.197.114-.347.2-.475.293l.886 1.21a4.44 4.44 0 01.34-.204L5.042.866zm.491-.265c-.145.064-.293.151-.49.265l.75 1.299a4.44 4.44 0 01.346-.192L5.533.601zm3.091.607a2.75 2.75 0 00-3.09-.607l.605 1.372a1.25 1.25 0 011.405.276l1.08-1.04zm.355.432c-.14-.18-.245-.318-.355-.432L7.544 2.25c.04.042.086.1.249.31l1.186-.92zm.84.351c-.377.001-.677-.14-.84-.351l-1.186.918c.512.662 1.304.935 2.03.933l-.003-1.5zm.015 0H9.82l.001 1.5h.013l-.001-1.5zm.014 0h-.013l-.001 1.5h.013l.001-1.5zm.842-.352c-.163.211-.463.353-.841.352l-.003 1.5c.726.002 1.518-.271 2.03-.933L10.69 1.64zm.355-.43c-.11.113-.215.25-.355.43l1.186.92c.163-.21.209-.269.249-.31l-1.08-1.04zM14.135.6a2.75 2.75 0 00-3.09.607l1.08 1.041a1.25 1.25 0 011.405-.276l.606-1.372zm.492.265C14.43.752 14.28.665 14.136.6l-.606 1.372c.052.023.117.06.347.192l.75-1.3zm-.023-.013L13.9 2.178l.704-1.325zm.017.01l-.738 1.306.738-1.307zm.48.296c-.127-.094-.277-.18-.474-.293l-.75 1.299c.23.133.293.17.34.204l.885-1.21zm1.02 2.98a2.75 2.75 0 00-1.02-2.98l-.885 1.21c.424.31.61.851.464 1.355l1.441.415zm-.196.523c.086-.211.153-.37.196-.523l-1.441-.415a4.453 4.453 0 01-.143.37l1.388.568zm.117.904c-.19-.327-.218-.658-.117-.904l-1.388-.568c-.317.776-.156 1.598.208 2.226l1.297-.754zm.014.025l-.013-.024-1.298.751.013.024 1.298-.751zm.725.553c-.263-.036-.535-.225-.724-.552l-1.3.748c.361.628.992 1.177 1.821 1.29l.203-1.486zm.55.091c-.153-.038-.324-.06-.55-.09l-.203 1.485c.263.036.336.047.392.061l.361-1.456zm2.072 2.374a2.75 2.75 0 00-2.072-2.374l-.36 1.456c.508.126.884.557.94 1.079l1.492-.161zm.016.557c0-.227.001-.4-.016-.557l-1.491.16c.006.058.007.132.007.397h1.5zm-.016.558c.017-.157.016-.33.016-.558h-1.5c0 .266-.001.34-.007.397l1.491.161zm-2.072 2.373a2.75 2.75 0 002.072-2.373l-1.491-.161a1.25 1.25 0 01-.942 1.079l.361 1.456zm-.55.092c.226-.031.397-.053.55-.091l-.36-1.456a4.41 4.41 0 01-.393.06l.203 1.487zm-.002 0l-.198-1.487.198 1.487zm-.006 0l-.186-1.488.186 1.489zm.03-.004l-.247-1.48.247 1.48zm-.746.556c.189-.328.461-.516.724-.552l-.203-1.487c-.829.113-1.46.663-1.82 1.29l1.3.749zm-.014.024l.013-.023-1.298-.75-.014.023 1.299.75zm-.118.906c-.1-.246-.073-.577.117-.904l-1.297-.754c-.364.628-.525 1.45-.208 2.226l1.388-.568zm.196.522c-.043-.152-.11-.311-.196-.522l-1.388.568c.1.245.127.314.143.37l1.441-.416zm-1.02 2.981a2.75 2.75 0 001.02-2.98l-1.441.414a1.25 1.25 0 01-.463 1.355l.885 1.211zm-.474.293c.197-.114.347-.2.475-.293l-.886-1.21c-.046.033-.11.071-.34.204l.75 1.299zm.01-.006l-.771-1.287.772 1.287zm-.501.27c.145-.063.293-.15.49-.264l-.75-1.3c-.229.133-.294.17-.346.193l.606 1.372zm-3.091-.607a2.75 2.75 0 003.09.608l-.605-1.372a1.25 1.25 0 01-1.405-.276l-1.08 1.04zm-.355-.43c.14.18.245.317.354.43l1.08-1.04a4.44 4.44 0 01-.248-.31l-1.186.92zm-.841-.352c.377-.001.678.14.841.351l1.186-.918c-.512-.662-1.304-.935-2.03-.934l.003 1.5zm-.014 0h.013l-.001-1.5h-.013l.001 1.5zm-.014 0h.013l.001-1.5h-.013l-.001 1.5zm-.842.351c.163-.21.464-.352.84-.352l.004-1.5c-.726-.001-1.518.272-2.03.934l1.186.918zm-.011.014l-1.164-.946 1.164.946zm.042-.057l-1.248-.832 1.248.832zm-.039.053l-1.17-.938 1.17.938zm-.346.421c.11-.114.214-.25.354-.43l-1.186-.92c-.163.21-.209.268-.249.31l1.08 1.04zm-3.092.608a2.75 2.75 0 003.092-.608l-1.08-1.04a1.25 1.25 0 01-1.406.276l-.606 1.372zm-.49-.265c.197.114.345.2.49.265l.606-1.372a4.442 4.442 0 01-.347-.192l-.75 1.299zm.021.012l.706-1.323-.706 1.323zm.058.028l.59-1.38-.59 1.38zm-.071-.035l.733-1.31-.733 1.31zm6.443-8.306a1.66 1.66 0 01-1.66 1.66v1.5a3.16 3.16 0 003.16-3.16h-1.5zm-1.66-1.66c.917 0 1.66.744 1.66 1.66h1.5a3.16 3.16 0 00-3.16-3.16v1.5zm-1.659 1.66c0-.916.743-1.66 1.66-1.66v-1.5a3.16 3.16 0 00-3.16 3.16h1.5zm1.66 1.66a1.66 1.66 0 01-1.66-1.66h-1.5a3.16 3.16 0 003.16 3.16v-1.5z"/>
</svg>
