<svg xmlns="http://www.w3.org/2000/svg" width="50" height="50" fill="none" viewBox="0 0 50 50">
    <rect width="50" height="50" fill="url(#a)" rx="25"/>
    <path fill="#010101"
          d="M24.975 38.013c7.093 0 12.843-5.793 12.843-12.94 0-7.145-5.75-12.938-12.843-12.938-7.092 0-12.842 5.793-12.842 12.939s5.75 12.939 12.842 12.939Z"/>
    <path fill="#0A0A0A" fill-rule="evenodd"
          d="M24.979 33.166c4.377 0 8.005-3.585 8.005-8.101 0-4.517-3.618-8.102-8.005-8.102-4.388 0-8.006 3.585-8.006 8.102 0 4.516 3.618 8.101 8.006 8.101Zm0 5.276c7.33 0 13.281-5.993 13.281-13.377 0-7.385-5.95-13.378-13.281-13.378S11.697 17.68 11.697 25.065c0 7.384 5.95 13.377 13.282 13.377Z"
          clip-rule="evenodd"/>
    <path fill="url(#b)" fill-rule="evenodd"
          d="M24.977 33.23c4.41 0 8.059-3.618 8.059-8.156s-3.65-8.155-8.059-8.155c-4.409 0-8.058 3.617-8.058 8.155 0 4.538 3.649 8.155 8.058 8.155Zm0 5.318c7.385 0 13.378-6.036 13.378-13.474 0-7.438-5.993-13.474-13.378-13.474-7.384 0-13.377 6.036-13.377 13.474 0 7.438 5.993 13.474 13.377 13.474Z"
          clip-rule="evenodd"/>
    <path fill="#fff" d="M31.152 19.885a3.853 3.853 0 1 0 0-7.706 3.853 3.853 0 0 0 0 7.706Z"/>
    <defs>
        <linearGradient id="a" x1="32.021" x2="50" y1="31.418" y2="50" gradientUnits="userSpaceOnUse">
            <stop/>
            <stop offset=".5" stop-color="#33353B"/>
            <stop offset="1" stop-color="#626570"/>
        </linearGradient>
        <linearGradient id="b" x1="20.279" x2="29.237" y1="32.876" y2="18" gradientUnits="userSpaceOnUse">
            <stop stop-color="#00C2FF"/>
            <stop offset="1" stop-color="#112141" stop-opacity=".23"/>
        </linearGradient>
    </defs>
</svg>
