<svg xmlns="http://www.w3.org/2000/svg" width="21" height="21" fill="none" viewBox="0 0 21 21">
    <path fill="#fff" fill-rule="evenodd"
          d="M.993 10.5C.993 5.258 5.198 1 10.46 1c3.127 0 5.47 1.298 7.016 2.579.358.296.675.593.95.874V3.5a.75.75 0 011.5 0v3.063a.75.75 0 01-.75.75h-3.05a.75.75 0 010-1.5h1.52c-.3-.332-.676-.706-1.127-1.08C15.159 3.609 13.143 2.5 10.459 2.5c-4.423 0-7.966 3.577-7.966 8 0 4.421 3.57 8 7.966 8 4.397 0 7.966-3.579 7.966-8a.75.75 0 011.5 0c0 5.244-4.235 9.5-9.466 9.5-5.23 0-9.466-4.256-9.466-9.5z"
          clip-rule="evenodd"/>
</svg>
