<svg xmlns="http://www.w3.org/2000/svg" width="16" height="16" fill="none" viewBox="0 0 16 16">
    <path fill="#fff"
          d="M10.034 6H3.667a1.667 1.667 0 0 1 0-3.333h6.367a2.326 2.326 0 0 0-.7 1.667c0 .653.267 1.243.7 1.666Zm-4.068 7.334h6.367a1.667 1.667 0 1 0 0-3.334H5.966c.432.424.7 1.014.7 1.667s-.268 1.243-.7 1.667Z"/>
    <path stroke="#fff" stroke-linecap="round" stroke-linejoin="round"
          d="M10.034 6H3.667a1.667 1.667 0 1 1 0-3.333h6.367M5.966 13.333h6.367a1.667 1.667 0 1 0 0-3.333H5.966M2 11.667a2.333 2.333 0 1 0 4.667 0 2.333 2.333 0 0 0-4.667 0Zm12-7.334a2.333 2.333 0 1 1-4.667 0 2.333 2.333 0 0 1 4.667 0Z"/>
</svg>
