<svg xmlns="http://www.w3.org/2000/svg" viewBox="0 0 17.77 19.87">
    <defs>
        <style>.cls-1{fill:none;stroke:#fff;stroke-linejoin:round;}</style>
    </defs>
    <g id="Layer_2" data-name="Layer 2">
        <g id="Layer_6" data-name="Layer 6">
            <path class="cls-1"
                  d="M9.81,14.3a.51.51,0,0,1,.95,0l.44,1.19a.49.49,0,0,0,.31.3l1.23.42a.49.49,0,0,1,0,.93l-1.23.42a.5.5,0,0,0-.31.29L10.76,19a.51.51,0,0,1-.95,0l-.44-1.19a.52.52,0,0,0-.31-.29l-1.23-.42a.49.49,0,0,1,0-.93l1.23-.42a.51.51,0,0,0,.31-.3Z"/>
            <path class="cls-1"
                  d="M11.65,1a.78.78,0,0,1,1.46,0l.83,2.26a.75.75,0,0,0,.47.45l2.35.81a.74.74,0,0,1,0,1.4l-2.35.8a.78.78,0,0,0-.47.45l-.83,2.27a.79.79,0,0,1-1.46,0l-.83-2.27a.78.78,0,0,0-.47-.45L8,5.92a.74.74,0,0,1,0-1.4l2.35-.81a.75.75,0,0,0,.47-.45Z"/>
            <path class="cls-1"
                  d="M3.11,7.17a.57.57,0,0,1,1.07,0l.49,1.39A.56.56,0,0,0,5,8.9l1.39.5a.57.57,0,0,1,0,1.07L5,11a.6.6,0,0,0-.35.35L4.18,12.7a.57.57,0,0,1-1.07,0l-.49-1.39A.6.6,0,0,0,2.27,11L.88,10.47a.57.57,0,0,1,0-1.07l1.39-.5a.56.56,0,0,0,.35-.34Z"/>
        </g>
    </g>
</svg>