<svg xmlns="http://www.w3.org/2000/svg" width="16" height="16" fill="none" viewBox="0 0 16 16">
    <path fill="#fff" d="M5.333 2c0-.368.299-.667.667-.667h4a.667.667 0 1 1 0 1.334H6A.667.667 0 0 1 5.333 2Z"/>
    <path fill="#fff" fill-rule="evenodd"
          d="M1.333 4c0-.368.299-.667.667-.667h12a.667.667 0 1 1 0 1.334h-.71l-.427 6.417c-.034.503-.062.92-.112 1.26-.051.352-.134.675-.305.976-.267.468-.67.845-1.154 1.08-.312.15-.64.211-.995.24-.342.027-.76.027-1.264.027H6.967c-.504 0-.922 0-1.264-.027-.356-.029-.683-.09-.995-.24a2.667 2.667 0 0 1-1.154-1.08c-.171-.3-.254-.624-.305-.977a17.24 17.24 0 0 1-.112-1.26L2.71 4.668H2A.667.667 0 0 1 1.333 4Zm5.334 2.333c.368 0 .666.299.666.667v3.333a.667.667 0 0 1-1.333 0V7c0-.368.298-.667.667-.667ZM10 7a.667.667 0 1 0-1.333 0v3.333a.667.667 0 0 0 1.333 0V7Z"
          clip-rule="evenodd"/>
</svg>
