<svg xmlns="http://www.w3.org/2000/svg" width="14" height="14" fill="none" viewBox="0 0 14 14">
    <path fill="url(#a)"
          d="M10.383 12.25c.654 0 .98 0 1.23-.127.22-.112.398-.29.51-.51.127-.25.127-.576.127-1.23v-3.85c0-.653 0-.98-.127-1.23a1.166 1.166 0 0 0-.51-.51c-.25-.126-.576-.126-1.23-.126H3.617c-.654 0-.98 0-1.23.127-.22.112-.398.29-.51.51-.127.25-.127.576-.127 1.23v3.85c0 .653 0 .98.127 1.229.112.22.29.398.51.51.25.127.576.127 1.23.127h6.766Z"
          opacity=".4"/>
    <path stroke="#989A9C" stroke-linecap="round" stroke-linejoin="round" stroke-width="1.5"
          d="M9.333 4.667V2.625c0-.485 0-.727-.102-.876a.583.583 0 0 0-.383-.246c-.178-.03-.399.072-.84.275L2.835 4.166c-.392.182-.589.272-.733.413a1.167 1.167 0 0 0-.284.443c-.067.19-.067.406-.067.839V8.75m7.875-.292h.006M1.75 6.533v3.85c0 .654 0 .98.127 1.23.112.22.29.398.51.51.25.127.576.127 1.23.127h6.766c.654 0 .98 0 1.23-.127.22-.112.398-.29.51-.51.127-.25.127-.576.127-1.23v-3.85c0-.653 0-.98-.127-1.23a1.166 1.166 0 0 0-.51-.51c-.25-.126-.576-.126-1.23-.126H3.617c-.654 0-.98 0-1.23.127-.22.112-.398.29-.51.51-.127.25-.127.576-.127 1.23Zm8.167 1.925a.292.292 0 1 1-.584 0 .292.292 0 0 1 .584 0Z"/>
    <defs>
        <linearGradient id="a" x1="1.488" x2="12.513" y1="8.458" y2="8.458" gradientUnits="userSpaceOnUse">
            <stop stop-color="#E7E7E7"/>
            <stop offset=".823" stop-color="#E7E7E7" stop-opacity="0"/>
            <stop offset="1" stop-color="#E7E7E7" stop-opacity="0"/>
        </linearGradient>
    </defs>
</svg>
